<?xml version="1.0" encoding="utf-8"?>
<!-- Generator: Adobe Illustrator 15.1.0, SVG Export Plug-In  -->
<!DOCTYPE svg PUBLIC "-//W3C//DTD SVG 1.1//EN" "http://www.w3.org/Graphics/SVG/1.1/DTD/svg11.dtd" [
	<!ENTITY ns_flows "http://ns.adobe.com/Flows/1.0/">
]>
<svg version="1.1"
	 xmlns="http://www.w3.org/2000/svg" xmlns:xlink="http://www.w3.org/1999/xlink" xmlns:a="http://ns.adobe.com/AdobeSVGViewerExtensions/3.0/"
	 x="0px" y="0px" width="21px" height="40px" viewBox="0.758 0 21 40" enable-background="new 0.758 0 21 40" xml:space="preserve">
<defs>
</defs>
<path d="M16.764,21.076c0-1.426,0-2.853,0-4.279c0-0.718,0.062-1.563-0.082-2.198c-0.105-0.464-0.323-0.632-0.494-0.987
	c-0.117-0.24-0.124-0.413-0.124-0.727c0-0.121-0.252-0.357-0.288-0.425c-0.131-0.239-0.179-0.673-0.35-0.844
	c-0.381-0.381-0.234-1.188-0.617-1.563c-0.186-0.181-0.104-0.72-0.287-0.905c-0.181-0.18-0.317-0.567-0.393-0.761
	c-0.205-0.544-0.432-1.076-0.615-1.604c0.028-0.288-0.201-0.114-0.289-0.288c-0.051-0.098,0.075-0.378,0-0.454
	C13.178,5.995,12.863,6.027,12.813,6c-0.299,0.113-0.608,0.684-0.781,1.029c0.067-0.454-1.954-0.247-2.229-0.247
	c-0.658,0-1.318,0-1.978,0c-0.239,0-0.624-0.076-0.854,0C6.499,6.938,6.14,8.509,6.315,8.509c0.084,0,1.028-0.014,1.028,0.06
	c0,0.513,0,1.025,0,1.538c0,0.395-0.248,0.622-0.248,1.05c0,0.25-0.822,0.264-1.072,0.308c-0.509,0.089-2.468,0.003-1.931,1.077
	c0.022,1.171,0,2.347,0,3.52c0,4.896,0,9.793,0,14.689c0,0.579,0,1.156,0,1.735c0,0.408,1.219,0.796,1.55,0.927
	c2.151,0.841,4.179,0.654,6.369,0.198c0.726-0.151,1.613-0.405,2.2-0.85c0.179-0.135,0.248-0.028,0.248-0.241
	c0-0.555,0-1.109,0-1.664c0-2.31,0-4.619,0-6.93c0-3.78,0-7.562,0-11.343c0.268,0.193,0.422,0.549,0.616,0.782
	c0.2,0.235,0.323,0.557,0.496,0.823c0.093,0.143,0.436,0.503,0.492,0.658c0.212,0.566,0,1.633,0,2.245c0,2.866,0,5.733,0,8.599
	c0,1.424,0,2.851,0,4.275c0,0.211-0.248,0.272-0.248,0.637c0,0.338-0.044,0.329,0.29,0.329c0.223,0,0.226-0.011,0.328-0.082
	c0.39-0.269,0.33-0.692,0.33-1.255C16.764,26.753,16.764,23.916,16.764,21.076z M14.047,27.064c0,0.288,0,0.576,0,0.864
	c0,0.66-0.011,0.577-0.652,0.658c-0.91,0.115-1.819,0.229-2.729,0.344c-0.408,0.05-0.879,0.189-1.291,0.137
	c-1.533-0.192-3.066-0.385-4.602-0.575c-0.329-0.041-0.229-0.218-0.229-0.522c0-0.343,0-0.686,0-1.028
	c1.614,0.165,3.231,0.329,4.847,0.493c0.702,0.071,1.553-0.163,2.249-0.238c0.805-0.084,1.604-0.169,2.406-0.255
	C14.047,26.981,14.047,27.023,14.047,27.064z M14.047,15.141c0,0.288,0,0.576,0,0.864c0,0.66-0.011,0.577-0.652,0.658
	c-0.91,0.115-1.819,0.229-2.729,0.344c-0.408,0.05-0.879,0.189-1.291,0.137c-1.533-0.192-3.066-0.385-4.602-0.575
	c-0.329-0.041-0.229-0.218-0.229-0.522c0-0.343,0-0.686,0-1.028c1.614,0.165,3.231,0.329,4.847,0.493
	c0.702,0.071,1.553-0.163,2.249-0.238c0.805-0.084,1.604-0.169,2.406-0.255C14.047,15.058,14.047,15.1,14.047,15.141z"/>
<rect id="sliceCopy_x5F_7_1_" x="20.777" fill="none" width="19.73" height="40"/>
<rect id="sliceCopy_x5F_6_1_" fill="none" width="20.777" height="40"/>
</svg>
