<?xml version="1.0" encoding="utf-8"?>
<!-- Generator: Adobe Illustrator 15.1.0, SVG Export Plug-In  -->
<!DOCTYPE svg PUBLIC "-//W3C//DTD SVG 1.1//EN" "http://www.w3.org/Graphics/SVG/1.1/DTD/svg11.dtd" [
	<!ENTITY ns_flows "http://ns.adobe.com/Flows/1.0/">
]>
<svg version="1.1"
	 xmlns="http://www.w3.org/2000/svg" xmlns:xlink="http://www.w3.org/1999/xlink" xmlns:a="http://ns.adobe.com/AdobeSVGViewerExtensions/3.0/"
	 x="0px" y="0px" width="29px" height="40px" viewBox="0.745 0 29 40" enable-background="new 0.745 0 29 40" xml:space="preserve">
<defs>
</defs>
<path d="M20.402,11.622c0.158,0.928,0.826,1.643,1.236,2.436c0.526,1.017,0.949,2.126,1.405,3.18c0.36,0.835,0.72,1.661,1.203,2.426
	c0.466,0.735,0.625,1.479,0.575,2.338c-0.138,2.415,0.123,4.84,0.123,7.255c0,1.127,0.104,2.311-0.015,3.433
	c-0.037,0.35-0.188,0.619-0.54,0.702c-0.219,0.05-0.705,0.093-0.778-0.206c-0.095-0.388,0.408-0.438,0.488-0.743
	c0.106-0.405,0-0.838,0-1.248c0-1.313,0.006-2.625-0.003-3.936c-0.019-2.28-0.13-4.489-0.723-6.684
	c-0.089-0.333-0.251-0.85-0.501-1.094c-0.21-0.205-0.155-0.589-0.376-0.787c-0.641-0.574-0.93-1.369-1.408-2.124
	c-0.219-0.346-0.465-0.623-0.726-0.934c-0.177-0.209-0.17-0.565-0.403-0.704c-0.425-0.253-1.172-0.132-1.662-0.154
	c-0.42-0.02-1.266-0.158-1.619,0.149c-0.184,0.159-0.057,0.886-0.057,1.116c0,0.365-0.182,1.116,0.241,1.292
	c0.318,0.134,0.687,0.115,1.022,0.141c0.554,0.043,1.094,0.183,1.631,0.316c0.992,0.247,1.592,0.619,2.315,1.339
	c0.804,0.799,0.946,1.832,1.302,2.861c0.427,1.234,0.631,2.308,0.479,3.622c-0.221,1.903-1.132,3.89-2.333,5.371
	c-1.501,1.851-4.071,2.264-6.244,2.754c-1.084,0.244-2.244,0.398-3.332,0.08c-0.938-0.276-1.881-0.575-2.813-0.878
	c-0.624-0.204-1.023-0.659-1.575-1.002c-0.33-0.206-0.549-0.501-0.826-0.767c-0.343-0.326-0.667-0.487-0.919-0.917
	c-1.101-1.877-1.639-3.926-1.565-6.112c0.057-1.682,0.483-3.414,1.521-4.74c0.526-0.677,0.946-1.117,1.739-1.421
	c0.858-0.329,1.719-0.521,2.573-0.815c0.509-0.174,1.514,0.244,1.641-0.439c0.068-0.37,0.191-1.888-0.313-1.888
	c-0.423-0.002-0.209-4.994-0.209-5.509C10.433,9.358,9.81,9.426,9.315,9.209C9.109,9.12,8.973,8.953,9.018,8.72
	c0.029-0.158,0.119-0.305,0.212-0.434C9.362,8.1,9.345,8.075,9.43,7.884c0.166-0.364,0.487-0.46,0.854-0.47
	c0.459-0.011,0.612-0.333,1.064-0.333c1.323,0,2.648,0,3.971,0c0.166,0,1.525,0.071,1.549-0.036
	c0.055-0.264-0.032-0.553-0.014-0.822c0.02-0.291,0.577-0.218,0.758-0.205c0.408,0.029,0.582,0.302,0.582,0.741
	c0,0.16-0.223,0.29-0.059,0.441c0.133,0.123,0.291,0.214,0.417,0.346c0.279,0.289,0.296,0.853,0.523,1.209
	C19.622,9.604,19.693,10.889,20.402,11.622L20.402,11.622z"/>
<rect id="sliceCopy_x5F_6_1_" x="28.987" fill="none" width="20.777" height="40"/>
<rect id="sliceCopy_x5F_5_1_" fill="none" width="28.987" height="40"/>
</svg>
