<?xml version="1.0" encoding="utf-8"?>
<!-- Generator: Adobe Illustrator 15.1.0, SVG Export Plug-In  -->
<!DOCTYPE svg PUBLIC "-//W3C//DTD SVG 1.1//EN" "http://www.w3.org/Graphics/SVG/1.1/DTD/svg11.dtd" [
	<!ENTITY ns_flows "http://ns.adobe.com/Flows/1.0/">
]>
<svg version="1.1"
	 xmlns="http://www.w3.org/2000/svg" xmlns:xlink="http://www.w3.org/1999/xlink" xmlns:a="http://ns.adobe.com/AdobeSVGViewerExtensions/3.0/"
	 x="0px" y="0px" width="97px" height="40px" viewBox="0.51 0 97 40" enable-background="new 0.51 0 97 40" xml:space="preserve">
<defs>
</defs>
<path d="M87.245,6.455c0.617,0.926,1.002,2.6,1.002,3.704c0,0.369,0,0.737,0,1.106c0,0.174,0.326,0.687,0.393,0.879
	c0.039,0.119,1.439,0.019,1.672,0.022c0.465,0.009,1.813-0.238,1.971,0.288c0.197,0.655,0.637,1.474,0.115,2.049
	c-0.434,0.475-1.232,0.479-1.854,0.552c-0.74,0.088-1.129,0.345-1.885,0.155c-0.115,0.61-0.158,0.749-0.613,1.169
	c-0.408,0.377-0.574,0.065-0.574,0.76c0,0.369-0.063,0.897-0.363,1.034c-0.268,0.121-1.104,0.062-1.395-0.006
	c-0.293-0.068-1.135-0.43-1.391-0.284c-0.406,0.231-0.734,0.382-1.189,0.56c-0.943,0.368-0.523,1.76-0.494,2.513
	c0.076,2.004,0,4.027,0,6.034c0,0.945-0.123,1.873-0.268,2.802c-0.063,0.402-0.209,0.761-0.326,1.151
	c-0.156,0.522-0.139,0.695-0.68,0.754c-1.039,0.115-2.629,0.173-2.816-1.208c-0.125-0.927-0.279-1.505-0.215-2.432
	c0.143-2.113,0.285-4.228,0.422-6.342c0.02-0.283,0.469-2.361,0.289-2.438c-0.795-0.337-1.166-1.349-2.107-1.513
	c-0.361-0.063-0.75,0.023-1.096,0c-0.463-0.032-0.834-0.016-1.297,0.077c-0.887,0.178-1.945,0.015-2.852,0.015
	c0.045-0.393,0.105-0.79,0.092-1.186c-0.676,0.4-1.303,0.758-2.029,1.049c-0.68,0.272-1.488,0.137-2.213,0.137
	c0.201,0.88,0.41,1.763,0.545,2.656c0.037,0.257,0.371,1.335,0.23,1.54c-0.01,0.014-0.557,0.2-0.6,0.223
	c-0.287,0.158-0.107,0.404-0.041,0.708c0.443,2.043,0.928,4.073,1.348,6.122c0.398,1.935,0.881,3.855,1.326,5.779
	c0.129,0.55-0.254,0.452-0.719,0.519c-0.418,0.06-0.85,0.12-1.277,0.182c-0.887,0.126-1.787,0.146-2.682,0.286
	c-0.252,0.039-0.955,0.292-1.033-0.03c-0.086-0.367-0.164-0.734-0.248-1.1c-0.279-1.208-0.557-2.416-0.836-3.625
	c-0.412-1.786-0.865-3.56-1.262-5.35c-0.104-0.476-0.201-0.958-0.314-1.432c-0.131-0.541-0.055-1.049-0.643-1.049
	c-0.971,0-2.014-0.06-2.943,0.227c-0.838,0.259-1.031,1.63-1.781,1.786c-1.021,0.212-2.006,0.285-3.051,0.356
	c-1.279,0.087-2.729,0.087-3.945-0.363c-0.324-0.12-0.672-0.21-0.971-0.38c-0.428-0.242-0.818-0.715-1.131-0.257
	c-0.189,0.278-0.879,1.117-0.701,1.502c0.096,0.209,0.271,0.87,0.48,0.869c-0.143,0.143-0.32,0.417-0.5,0.502
	c-0.102,0.047-0.334-0.13-0.434,0.038c-0.285,0.476-0.578,0.945-0.873,1.414c-0.471,0.749-0.998,1.726-1.158,2.605
	c-0.082,0.454,0.18,1.082-0.09,1.46c-0.328,0.285-1.084,0.167-1.436,0.005c-0.871-0.399-1.684-0.887-2.512-1.369
	c-0.295-0.172-2.563-1.28-2.424-1.79c0.238-0.876,0.789-1.683,1.213-2.487c1.01-1.918,2.107-3.782,3.195-5.658
	c0.393-0.677-0.275-2.297-0.85-2.728c-0.811-0.612-2.219-1.055-3.217-1.236c-1.824-0.333-3.869-0.667-5.715-0.403
	c-1.191,0.17-2.352,0.732-3.48,1.131c-2.529,0.895-5.059,1.79-7.586,2.685c-4.275,1.514-8.553,3.028-12.826,4.542
	c-0.867,0.304-4.174,0.66-4.174-0.725c0-1.951,0.188-4.039-0.059-5.975c-0.258-1.995-0.205-4.016-0.365-6.023
	c-0.115-1.439,1.342-1.311,2.406-1.336c1.039-0.025,2.08-0.045,3.121-0.065c4.154-0.081,8.316-0.002,12.471-0.002
	c2.035,0,4.07,0,6.104,0c0.682,0,1.547-0.395,2.207-0.566c0.98-0.253,1.775-0.522,2.598-1.109c0.838-0.599,1.672-0.793,2.662-1.047
	c0.395-0.102,0.801-0.152,1.193-0.265c0.426-0.122,0.887-0.793,1.205-1.1c0.578-0.555,1.15-1.644,1.971-1.753
	c0.471-0.063,0.898-0.151,1.367-0.089c0.303,0.04,0.607,0.081,0.912,0.122c0.178,0.023,0.352-0.091,0.512-0.078
	c0.209,0.017,0.412,0.16,0.592,0.25c0.178,0.089,0.492,0.024,0.686,0.024c0.48,0,0.73,0.186,0.73,0.723c0,0.572,0,1.145,0,1.717
	c0,0.114,0.182-0.057,0.182-0.225c0-0.133-0.092-0.808,0-0.894c0.18-0.167,1.289,0,1.537,0c0.256,0,0.514,0,0.768,0
	c0.209,0-0.039-0.485,0.066-0.593c0.105-0.106,1.277,0.005,1.277,0.061c0,0.212-0.115,0.532,0.135,0.532
	c0.131,0,0.73,0.07,0.73-0.061c0.002-0.196-0.111-0.531,0.125-0.531c0.313,0,0.625,0,0.939,0c0.234,0,0.121,0.335,0.121,0.532
	c0,0.131,0.639,0.061,0.777,0.061c0.152,0-0.039-0.509,0.045-0.593c0.072-0.073,0.596,0,0.699,0c0.109,0,0.531-0.068,0.531,0.061
	c0,0.37-0.123,0.532,0.26,0.532c0.109,0,0.672,0.076,0.744,0c0.07-0.074-0.086-0.593,0.033-0.593c0.299,0,0.596,0,0.896,0
	c0.381,0,0.256,0.166,0.256,0.532c0,0.046,1.004,0.275,1.004-0.147c0-0.314-0.084-0.385,0.223-0.385c0.326,0,0.652,0,0.979,0
	c0.105,0-0.035,0.524,0.029,0.593c0.07,0.076,0.633,0,0.742,0c0.336,0,0.26-0.041,0.26-0.384c0.002-0.334,0.227-0.209,0.533-0.209
	c0.104,0,0.627-0.073,0.701,0c0.08,0.081-0.104,0.593,0.043,0.593c0.129,0,0.643,0.082,0.732,0c0.141-0.131-0.188-0.593,0.1-0.593
	c0.354,0,1.268-0.202,1.268,0.209c0,0.408-0.043,0.384,0.363,0.384c0.471,0,0.365-0.07,0.365-0.532c0-0.058,1.127-0.165,1.232-0.061
	c0.066,0.069-0.08,0.593,0.027,0.593c0.34,0,0.678,0,1.014,0c0.447,0,0.234,0.733,0.234,1.108c0,0.069,0.299,0.032,0.359,0.032
	c0.867,0,1.736,0,2.604,0c2.869,0,5.736,0,8.607,0c1.488,0,2.979,0,4.467,0c0.188,0,0.52,0.067,0.699,0
	c0.52-0.192,1.105-0.967,1.5-1.381c0.139-0.144,0.586-0.467,0.602-0.673c0.023-0.311,0.018-0.65,0.088-0.956
	c0.148-0.639,0.506-1.231,1.221-1.231c0.273,0,0.58-0.146,0.844-0.218c0.125-0.035,0.625,0.429,0.719,0.538
	C86.86,5.048,87.106,5.813,87.245,6.455 M64.032,7.959c-4.465,0-8.932,0-13.396,0c-1.654,0-3.313,0-4.971,0
	c0.039,0-0.125,0.501,0.049,0.501c0.219,0,0.436,0,0.654,0c0.955,0,1.912,0,2.867,0c3.271,0,6.545,0,9.816,0c1.252,0,2.5,0,3.752,0
	c0.334,0,0.666,0,1.002,0C64.155,8.461,64.032,8.332,64.032,7.959 M48.892,22.278c0,1.434,3.088,1.003,3.896,1.003
	c0.551,0,1.105,0,1.658,0c0.703,0,0.973-0.427,1.223-0.965c0.385-0.822-0.619-1.276-1.213-1.361c-0.531-0.076-1.133,0-1.668,0
	C51.61,20.956,48.892,20.453,48.892,22.278 M25.224,16.943c0.375-0.809,0.287-1.733-0.84-1.733c-0.703,0-1.557-0.141-2.244,0.03
	c-0.59,0.148-1.004,1.021-0.604,1.536c0.307,0.394,0.68,0.486,1.143,0.486C23.386,17.262,24.671,17.5,25.224,16.943 M8.763,14.207
	c-0.365-0.03-0.73-0.062-1.096-0.091c0.055,1.964,0.24,3.918,0.32,5.883c0.012,0.325-0.119,1.125,0.156,1.324
	c0.607,0.438,1.334,0.495,2.047,0.621c0.885,0.155,1.932-0.33,2.768-0.623c0.934-0.326,1.846-0.701,2.736-1.14
	c0.984-0.486,1.727-0.833,1.492-2.037c-0.092-0.474-0.18-0.911-0.336-1.364c-0.244-0.708-0.154-0.951-0.889-1.056
	c-0.955-0.137-1.869-0.41-2.803-0.659C11.7,14.677,10.261,14.394,8.763,14.207"/>
<rect id="sliceCopy_x5F_40_1_" x="96.644" fill="none" width="82.738" height="40"/>
<rect id="sliceCopy_x5F_39_1_" fill="none" width="96.643" height="40"/>
</svg>
