<?xml version="1.0" encoding="utf-8"?>
<!-- Generator: Adobe Illustrator 15.1.0, SVG Export Plug-In  -->
<!DOCTYPE svg PUBLIC "-//W3C//DTD SVG 1.1//EN" "http://www.w3.org/Graphics/SVG/1.1/DTD/svg11.dtd" [
	<!ENTITY ns_flows "http://ns.adobe.com/Flows/1.0/">
]>
<svg version="1.1"
	 xmlns="http://www.w3.org/2000/svg" xmlns:xlink="http://www.w3.org/1999/xlink" xmlns:a="http://ns.adobe.com/AdobeSVGViewerExtensions/3.0/"
	 x="0px" y="0px" width="40px" height="40px" viewBox="0 0 40 40" enable-background="new 0 0 40 40" xml:space="preserve">
<defs>
</defs>
<path d="M33.236,12.732c0-0.401-0.201-0.602-0.6-0.602H20.668c-0.146,0-0.273,0.056-0.383,0.164l-0.219,0.438v7.649l0.219,0.437
	l0.383,0.11h11.969c0.398,0,0.6-0.182,0.6-0.547V12.732 M35.477,10.547c0.291,0.363,0.438,0.8,0.438,1.311v16.339
	c0,0.474-0.146,0.875-0.438,1.204c-0.328,0.398-0.766,0.6-1.311,0.6H5.805c-0.475,0-0.893-0.201-1.258-0.602
	C4.184,29.07,4,28.67,4,28.195V11.857c0-0.509,0.184-0.947,0.547-1.311C4.912,10.183,5.33,10,5.805,10h28.361
	C34.711,10,35.148,10.183,35.477,10.547 M27.334,16.667l-0.436-0.273l0.162-0.273l0.492,0.273v-0.492h0.383l-0.055,0.492
	l0.492-0.273l0.164,0.273l-0.547,0.273l0.547,0.272l-0.164,0.328l-0.492-0.273l0.055,0.547h-0.383v-0.547l-0.492,0.273l-0.162-0.328
	L27.334,16.667 M26.133,16.394l-0.492,0.273l0.492,0.272l-0.164,0.328l-0.547-0.273l0.109,0.547h-0.438v-0.547l-0.438,0.273
	l-0.219-0.328l0.492-0.272l-0.492-0.273l0.219-0.273l0.438,0.273v-0.492h0.438l-0.109,0.492l0.547-0.273L26.133,16.394
	 M26.188,26.065l-0.109-0.329l-0.383-0.218h-1.529c-0.146,0-0.256,0.071-0.33,0.218c-0.109,0.071-0.162,0.183-0.162,0.329v1.529
	l0.162,0.384l0.33,0.109h1.529l0.383-0.109l0.109-0.384V26.065 M27.553,25.519l-0.328,0.219c-0.109,0.072-0.162,0.183-0.162,0.329
	v1.528l0.162,0.384l0.33,0.109h1.582l0.33-0.109l0.109-0.384v-1.529l-0.111-0.328l-0.328-0.219H27.553 M26.188,22.459l-0.109-0.382
	l-0.385-0.11h-1.529l-0.328,0.11l-0.162,0.382v1.53l0.162,0.326l0.33,0.221h1.529l0.383-0.221l0.109-0.326V22.459 M29.465,22.077
	l-0.328-0.11h-1.584l-0.328,0.11c-0.109,0.145-0.164,0.272-0.164,0.382v1.53l0.164,0.326l0.328,0.221h1.584l0.33-0.221l0.109-0.326
	v-1.53L29.465,22.077 M32.854,25.737l-0.383-0.219h-1.475l-0.383,0.219c-0.111,0.072-0.162,0.183-0.162,0.329v1.528l0.162,0.384
	l0.383,0.109h1.477l0.381-0.109l0.164-0.384v-1.529L32.854,25.737 M32.854,22.077l-0.383-0.11h-1.475l-0.385,0.11l-0.162,0.382v1.53
	l0.162,0.326l0.385,0.221h1.475l0.383-0.221l0.164-0.326v-1.53L32.854,22.077 M23.727,16.394l-0.49,0.273l0.49,0.272l-0.107,0.328
	l-0.602-0.273l0.109,0.547h-0.383v-0.547l-0.492,0.273l-0.164-0.328l0.438-0.272l-0.438-0.273l0.164-0.273l0.492,0.273v-0.492h0.383
	l-0.109,0.492l0.602-0.273L23.727,16.394 M14.328,22.841l0.438-0.764l0.328-0.82h0.109l-0.055,0.82l-0.055,0.764v1.804h-1.748
	L14.328,22.841 M22.252,25.519h-1.475c-0.109,0-0.238,0.071-0.383,0.218l-0.219,0.329v1.529l0.219,0.384l0.383,0.109h1.475
	l0.383-0.109l0.164-0.384v-1.529l-0.164-0.328L22.252,25.519 M22.252,21.967h-1.475l-0.383,0.11l-0.219,0.382v1.53l0.219,0.326
	c0.145,0.147,0.273,0.221,0.383,0.221h1.475l0.383-0.221l0.164-0.326v-1.53l-0.164-0.382L22.252,21.967 M11.541,24.809v1.257h3.553
	v1.912h1.803v-1.912h1.039v-1.421h-1.039v-4.81h-2.295L11.541,24.809 M9.629,23.17l0.602,0.053l0.438,0.111l0.328-1.366
	l-0.656-0.164L9.574,21.75c-1.166,0-2.059,0.309-2.678,0.929c-0.547,0.583-0.818,1.33-0.818,2.24c0,0.982,0.271,1.767,0.818,2.349
	c0.547,0.547,1.33,0.82,2.35,0.82l0.984-0.109l0.711-0.164l-0.164-1.475l-0.547,0.218H9.629c-0.438,0-0.82-0.146-1.146-0.436
	c-0.365-0.257-0.547-0.675-0.547-1.258c0-0.437,0.164-0.819,0.492-1.148C8.682,23.351,9.082,23.17,9.629,23.17"/>
<rect id="sliceCopy_x5F_2_1_" x="39.914" fill="none" width="29.462" height="40"/>
<rect id="sliceCopy_x5F_1_1_" fill="none" width="39.914" height="40"/>
</svg>
