<?xml version="1.0" encoding="utf-8"?>
<!-- Generator: Adobe Illustrator 15.1.0, SVG Export Plug-In  -->
<!DOCTYPE svg PUBLIC "-//W3C//DTD SVG 1.1//EN" "http://www.w3.org/Graphics/SVG/1.1/DTD/svg11.dtd" [
	<!ENTITY ns_flows "http://ns.adobe.com/Flows/1.0/">
]>
<svg version="1.1"
	 xmlns="http://www.w3.org/2000/svg" xmlns:xlink="http://www.w3.org/1999/xlink" xmlns:a="http://ns.adobe.com/AdobeSVGViewerExtensions/3.0/"
	 x="0px" y="0px" width="107px" height="40px" viewBox="0.611 0 107 40" enable-background="new 0.611 0 107 40"
	 xml:space="preserve">
<defs>
</defs>
<path d="M60.227,6.817c0.49,0,1.104-0.11,1.461,0.277c0.119,0.128,0.258,0.132,0.416,0.132c0.213,0,0.119,0.124,0.24,0.148
	c0.234,0.047,0.445-0.006,0.678,0.014c0.484,0.04,0.914,0.29,1.332,0.529c0.432,0.246,0.848,0.178,1.299,0.312
	c0.248,0.072,1.029,0.321,1.189,0.482c0.234,0.237,0.361,1.071,0.4,1.401c0.057,0.487,0.025,0.948-0.104,1.424
	c-0.143,0.463-0.59,1.788-1.227,1.821c1.648,0,3.295,0,4.943,0c1.131,0,2.266,0,3.396,0c0.328,0,1.252-0.173,1.545,0
	c0.271,0.161,0.146,0.559,0.553,0.636c0.447,0.084,0.898,0.157,1.342,0.255c0.756,0.167,1.496,0.382,2.256,0.526
	c0.381,0.073,0.76,0.143,1.145,0.198c0.729,0.104,0.762-0.313,0.854-0.96c0.107-0.75,0.721-1.292,0.77-2.075
	c0.025-0.401,0.074-0.792,0.129-1.192c0.029-0.227,0.904-0.103,1.127-0.103c0.162,0,0.076,2.091,0.076,2.335c0,0.483,0,0.967,0,1.45
	c0,0.127-0.088,0.594-0.037,0.674c0.135,0.213,0.926,0.163,1.107,0.179c0.313,0.026,0.611,0.043,0.924,0.039
	c3.451-0.042,6.9-0.073,10.352-0.106c1.486-0.015,3.021,0.093,4.49-0.098c0.375-0.048,0.764-0.014,1.141-0.014
	c0.502,0,0.434,0.585,0.512,0.985c0.082,0.436,0.291,0.764-0.051,1.066c-0.23,0.205-0.756,0.228-1.061,0.216
	c-3.145-0.128-6.256-0.223-9.404-0.223c-2.174,0-4.35,0-6.523,0c-0.439,0-0.865-0.034-1.291,0.073
	c-0.293,0.072-0.273,0.56,0.076,0.56c0.359,0,1.117-0.155,1.439,0c0.869,0.418,0.594,1.56,0.594,2.318
	c0,0.152-0.768,0.065-0.93-0.015c-0.406-0.204-0.613-0.186-1.072-0.186c-1.75,0-3.537,0.168-5.293,0.225
	c-1.121,0.037-2.232,0.184-3.35,0.224c-0.16,0.006-0.881-0.068-0.967,0.058c-0.242,0.355-0.48,0.85-0.885,1.044
	c-0.617,0.297-1.176-0.006-1.623-0.441c-0.377-0.37-0.648-0.42-1.117-0.628c0.066,0.552,0.125,1.079,0.111,1.634
	c-0.016,0.654,0.029,1.314-0.818,1.153c-0.227-0.044-0.432-0.219-0.666-0.226c-0.357-0.011-0.717-0.019-1.074-0.03
	c-0.602-0.016-1.205-0.004-1.807-0.004c-2.41,0-4.818,0.036-7.229,0.036c0.58,2.124,0.557,4.076,0.557,6.248
	c0,0.323,0.166,4.877-0.32,4.808c-1.672-0.237-3.467-0.055-5.152-0.055c-0.967,0-1.934,0-2.902,0c-0.596,0-1.32,0.066-1.324-0.716
	c-0.023-3.722-0.047-7.443-0.07-11.164c-0.002-0.255,0.109-1.172-0.088-1.293c-0.367-0.227-0.873,0.112-0.842,0.514
	c0.023,0.287,0.281,0.869-0.07,1.019c-0.305,0.13-0.076,0.651-0.055,0.979c0.021,0.314,0.016,0.96-0.139,1.222
	c-0.307,0.52-1.467,0.967-2.029,0.967c-1.201,0-2.271-0.05-3.359-0.595c-0.313,0.934-0.689,1.834-1.039,2.755
	c-0.189,0.501-0.398,1-0.568,1.507c-0.064,0.195-0.273,0.552-0.25,0.754c0.029,0.287,0.328,0.442,0.26,0.781
	c-0.098,0.481-0.615,1.106-1.105,1.131c-0.738,0.037-1.541-0.309-2.244-0.516c-0.447-0.132-0.879-0.341-1.313-0.511
	c-0.449-0.174-1.086-0.592-1.582-0.513c0.887-1.25,1.633-2.691,2.408-4.014c0.254-0.433,0.508-0.866,0.76-1.299
	c0.133-0.229,0.449-0.636,0.436-0.888c-0.027-0.548-0.014-1.128-0.592-1.417c-0.178-0.122-0.648-0.432-0.871-0.449
	c-3.254-0.229-6.49-0.518-9.752-0.518c-1.605,0-3.213-0.065-4.813,0.093c-1.025,0.102-2.051,0.204-3.078,0.306
	c-1.137,0.112-2.871,0.412-2.801,1.837c0.021,0.455,0.137,0.907,0.35,1.31c0.154,0.289,0.611,0.673,0.537,1.036
	c-0.041,0.199-0.316,0.213-0.482,0.222c-0.658,0.029-1.318,0.06-1.977,0.09c-2.324,0.106-4.65,0.212-6.973,0.318
	c-0.959,0.044-1.914,0.087-2.871,0.131c-0.418,0.018-1.035,0.151-1.438-0.036c-0.857-0.401-0.801-1.524-0.801-2.33
	c0-0.933,0-1.866,0-2.799c0-2.188,0-4.376,0-6.565c0-0.736-0.066-0.738,0.568-1.176c0.205-0.141,0.916,0.016,1.158,0.025
	c0.297,0.011,0.605-0.001,0.898,0.04c1.961,0.272,3.922,0.544,5.883,0.815c0.672,0.092,1.502,0.086,2.063,0.508
	c0.736,0.555,1.186,1.444,2.143,1.681c0.428,0.105,0.936,0.009,1.369-0.005c3.299-0.11,6.523-1.059,9.535-2.359
	c1.26-0.544,2.514-1.046,3.877-1.286c1.277-0.225,2.582-0.255,3.869-0.439c0.852-0.122,1.676-0.179,2.533-0.22
	c0.049-0.002,0.633-1.865,0.914-2.112c0.734-0.643,1.84-0.322,2.684-0.138c0.785,0.173,1.521,0.378,2.283,0.641
	c0.549,0.189,0.408,1.605,0.619,1.605c0.934,0,1.869,0,2.803,0c0.969,0,1.936,0,2.904,0c0.313,0,0.096-0.483,0.17-0.483
	c0.426,0,0.852,0,1.275,0c0.527,0,1.055,0,1.582,0c0.043,0,0.26-0.03,0.291,0c0.131,0.12-0.164,0.477,0.098,0.487
	c0.799,0.031,1.596,0.016,2.395,0.043c1.564,0.05,3.086,0.012,4.654-0.111c0.801-0.063,1.602-0.111,2.4-0.2
	c0.855-0.095,1.775,0.017,2.406-0.613c0.139-0.139,0.77-1.024,0.586-1.146c-0.385-0.255-0.748-0.503-1.176-0.682
	c-0.893-0.373-1.824-0.492-2.762-0.687c-0.42-0.087-0.844-0.158-1.254-0.287c-0.256-0.08-0.359-0.111-0.547-0.298
	c-0.234-0.235-0.219-0.222-0.574-0.222c-0.369,0-1.068,0.179-1.395,0c-0.314-0.386-0.51-0.885-0.361-1.374
	C58.008,6.933,58.521,6.352,58.48,6C59.148,6.073,59.744,6.375,60.227,6.817 M48.037,22.538c-0.506,0.007-1.01,0.014-1.518,0.021
	c-0.67,0.01-1.482-0.183-1.285,0.841c0.186,0.972,1.258,0.847,1.996,0.847C48.271,24.245,48.246,23.245,48.037,22.538"/>
<rect id="sliceCopy_x5F_57_1_" fill="none" width="106.674" height="40"/>
</svg>
