<?xml version="1.0" encoding="utf-8"?>
<!-- Generator: Adobe Illustrator 15.1.0, SVG Export Plug-In  -->
<!DOCTYPE svg PUBLIC "-//W3C//DTD SVG 1.1//EN" "http://www.w3.org/Graphics/SVG/1.1/DTD/svg11.dtd" [
	<!ENTITY ns_flows "http://ns.adobe.com/Flows/1.0/">
]>
<svg version="1.1"
	 xmlns="http://www.w3.org/2000/svg" xmlns:xlink="http://www.w3.org/1999/xlink" xmlns:a="http://ns.adobe.com/AdobeSVGViewerExtensions/3.0/"
	 x="0px" y="0px" width="121px" height="40px" viewBox="0.292 0 121 40" enable-background="new 0.292 0 121 40"
	 xml:space="preserve">
<defs>
</defs>
<path d="M115.749,9.167c0.857,0,0.471,2.731,0.471,3.313c0,0.337-0.201,0.214-0.52,0.214c-0.721,0-1.439,0-2.16,0
	c-1.896,0-3.793-0.028-5.689,0.027c-2.211,0.063-4.418,0.117-6.629,0.137c-0.912,0.009-1.824,0.014-2.738,0.026
	c-0.633,0.009-1.268,0.018-1.902,0.026c-0.297,0.004-0.596,0.009-0.896,0.014c-0.453,0.007-0.225,0.121-0.389,0.557
	c-0.289,0.757-1.619,1.708-2.455,1.34c-0.594-0.263-1.092-0.833-1.566-1.261c-0.158-0.142-0.928-0.271-1.152-0.35
	c-0.533-0.186-1.012-0.295-1.57-0.356c-2.105-0.234-4.252-0.021-6.363,0.06c-0.557,0.021-0.438,0.319-0.574,0.82
	c-0.061,0.22-0.213,0.307-0.451,0.331c-0.451,0.045-0.404,0.06-0.445,0.51c-0.045,0.488-0.088,0.977-0.137,1.464
	c-0.008,0.073-1.02,0.047-1.113,0.049c-2.322,0.025-4.645,0.051-6.967,0.077c-2.127,0.022-4.365-0.08-6.471,0.221
	c-0.529,0.075-1.061,0.103-1.588,0.185c-0.373,0.058-1.342,0.398-1.686,0.31c-0.656-0.168-0.564-2.532-0.564-3.15
	c-1.418,0.322-2.855,0.543-4.283,0.828c-0.338,0.067-0.693,0.076-1.035,0.108c-0.025,0.002-0.166,0.794-0.209,0.925
	c-0.221,0.662,0.055,1.778,0.145,2.458c0.135,1.016,0.338,2.021,0.586,3.017c0.691,2.638,1.543,5.188,2.539,7.721
	c0.508,1.296,0.955,2.754,1.693,3.939c-2.098,0.727-4.223,1.887-6.17,2.922c-0.232,0.122-0.631,0.455-0.932,0.322
	c-0.256-0.331-0.465-0.696-0.654-1.067c-0.414-0.81-0.771-1.671-1.047-2.536c-0.326-1.023-0.65-2.045-0.977-3.067
	c-1.115-3.5-1.943-7.08-2.869-10.633c-0.424,0.195-0.883,0.361-1.283,0.602c-0.234,0.14-0.4,0.346-0.633,0.469
	c-0.553,0.293-1.492,0.332-2.115,0.38c-1.143,0.087-2.107-0.201-3.129-0.698c-0.305-0.148-0.543-0.458-0.82-0.235
	c-0.221,0.177-0.523,0.279-0.775,0.405c-0.359,0.18-0.521,0.97-0.666,1.335c-0.229,0.569-0.441,1.145-0.629,1.729
	c-0.262,0.814-0.521,1.676-0.586,2.533c-0.084,1.115-0.227,2.238-0.227,3.355c0,0.394-0.004,0.829-0.49,0.704
	c-0.705-0.182-1.381-0.523-2.037-0.836c-1.029-0.49-2.025-1.042-3.045-1.551c-0.43-0.214,0.008-0.744,0.16-1.093
	c0.871-1.985,1.662-3.99,2.361-6.044c0.246-0.728,0.875-1.838,0.273-2.524c-0.318-0.362-0.654-0.693-0.949-1.073
	c-0.15-0.192-1.109-0.189-1.367-0.185c-2.004,0.036-4.008,0.074-6.012,0.191c-2.258,0.131-4.514,0.232-6.773,0.313
	c-3.426,0.123-6.404,2.42-8.979,4.478C9.907,22,8.495,23.127,7.271,24.354c-0.289,0.29-0.539,0.834-0.904,1.017
	c-0.838,0.419-1.053-0.529-1.205-1.167c-0.217-0.902-0.148-1.886-0.227-2.813c-0.086-1.021-0.174-2.044-0.264-3.064
	c-0.094-1.042-0.189-2.069-0.338-3.104c-0.203-1.427-1.084-4.081,1.24-4.081c1.418,0,2.838,0,4.256,0c5.543,0,11.086,0,16.627,0
	c0.607,0,1.217,0,1.824,0c0.215,0,0.459,0.044,0.666,0c0.6,0,0.607-1.056,1.258-1.211c1.049-0.251,2.076-0.308,3.105-0.679
	c0.578-0.207,0.883-0.372,1.355-0.762c0.574-0.472,0.629-0.925,0.723-1.628c0.158-1.187-0.057-2.533,1.553-2.492
	c0.518,0.014,0.777,0.437,1.162,0.805c0.504,0.48,0.74,0.329,1.443,0.245c0.633-0.076,0.729-0.02,1.055,0.499
	c0.271,0.436,0.313,0.98,0.424,1.479c0.029,0.131,2.723-0.137,3.049-0.156c0.906-0.056,1.842,0.244,2.74,0.327
	c0.662,0.062,1.355,0,2.018,0c2.836,0,5.67,0,8.504,0c0.49,0,0.98,0,1.469,0c-0.068-0.398-0.107-0.804-0.279-1.175
	c0.557,0,1.115,0,1.674,0c0.834,0,0.055,0.417,0.582,0.682c0.229,0.112,0.67,0.022,0.914,0.022c2.035,0,4.07,0,6.105,0
	c5.836,0,11.672,0,17.508,0c1.51,0,3.021,0,4.531,0c-0.049-0.242-0.045-0.479-0.045-0.726c0-0.287-0.27-0.733-0.131-0.99
	c0.133-0.247,0.457-1.181,0.73-1.207c0.604-0.058,1.203-0.115,1.807-0.172c0.459-0.045,0.271,0.448,0.271,0.827
	c0,0.687,0,1.374,0,2.061c0,0.175,0,0.35,0,0.524c0,0.061-0.383,0.128-0.377,0.295c0.012,0.204,1.123,0.831,1.309,0.969
	c0.777,0.576,1.789,0.681,2.725,0.728c4.078,0.204,8.133,0.103,12.215,0.027c1.215-0.022,2.447,0.039,3.645-0.15
	C112.755,9.162,115.222,8.426,115.749,9.167 M42.96,15.515c-1.186,0-1.322,1.667-0.752,2.397c0.461,0.462,0.996,0.377,1.588,0.377
	c0.529,0,3.209,0.357,3.453-0.412c0.326-1.023,0.465-2.362-1.047-2.362C45.122,15.515,44.04,15.515,42.96,15.515 M6.565,15.421
	c0.275,1.894,0.426,3.796,0.705,5.689c3.07-2.703,6.371-5.087,9.686-7.477c-3.543,0-7.084,0-10.625,0
	C6.409,14.229,6.487,14.825,6.565,15.421"/>
<rect id="sliceCopy_x5F_44_1_" x="120.306" fill="none" width="90.918" height="40"/>
<rect id="sliceCopy_x5F_43_1_" fill="none" width="120.306" height="40"/>
</svg>
