<?xml version="1.0" encoding="utf-8"?>
<!-- Generator: Adobe Illustrator 15.1.0, SVG Export Plug-In  -->
<!DOCTYPE svg PUBLIC "-//W3C//DTD SVG 1.1//EN" "http://www.w3.org/Graphics/SVG/1.1/DTD/svg11.dtd" [
	<!ENTITY ns_flows "http://ns.adobe.com/Flows/1.0/">
]>
<svg version="1.1"
	 xmlns="http://www.w3.org/2000/svg" xmlns:xlink="http://www.w3.org/1999/xlink" xmlns:a="http://ns.adobe.com/AdobeSVGViewerExtensions/3.0/"
	 x="0px" y="0px" width="88px" height="40px" viewBox="0.77 0 88 40" enable-background="new 0.77 0 88 40" xml:space="preserve">
<defs>
</defs>
<path d="M81.719,16.672c-2.687,0.233-5.324,0.597-7.978-0.112c-1.418-0.379-2.739-1.008-3.988-1.769
	c-0.284-0.174-0.567-0.348-0.852-0.521c-0.28-0.169-0.324-0.133-0.644-0.069c-1.189,0.24-2.353,0.525-3.563,0.604
	c-1.765,0.115-3.53,0.23-5.295,0.345c-1.07,0.07-2.102-0.092-3.17-0.206c-1.321-0.141-2.658-0.227-3.964-0.471
	c-0.65-0.122-1.31-0.221-1.953-0.369c-0.313-0.072-0.624-0.267-0.846-0.013c-0.38,0.435-0.724,0.72-1.298,0.843
	c-0.399,0.085-0.806,0.201-1.215,0.223c-0.551,0.029-0.657-0.198-0.946-0.584c-0.434-0.575-1.26-1.158-2.035-0.923
	c-1.293,0.392-2.531,0.977-3.908,0.896c-1.048-0.062-2.021-0.016-3.053-0.32c-0.938-0.277-1.703-0.752-2.689-0.86
	c-1.288-0.139-2.527-0.267-3.82-0.267c-5.349,0-10.757,0.391-15.877,2.023c-1.929,0.615-3.891,1.188-5.739,2.017
	c-0.679,0.304-1.313,0.704-1.958,1.073c-0.768,0.438-1.632,0.874-2.198,1.566c-0.209,0.255-0.42,0.506-0.636,0.755
	c-0.287,0.332,0.16,0.667,0.373,0.923c0.388,0.465,0.81,0.912,1.253,1.324c0.452,0.421,0.83,0.907,1.437,0.487
	c0.543-0.375,1.075-0.732,1.645-1.062c1.289-0.745,2.607-1.318,3.974-1.916c1.783-0.78,3.63-1.561,5.54-1.964
	c1.413-0.299,2.843-0.704,4.272-0.903c1.484-0.207,2.968-0.414,4.451-0.62c2.427-0.338,4.933-0.33,7.374-0.216
	c1.318,0.062,2.635,0.147,3.953,0.23c0.56,0.035,1.127,0.126,1.688,0.126c0.086,0,0.11,0.603,0.15,0.709
	c0.129,0.338,0.238,0.59,0.449,0.881c-1.228-0.112-2.227-0.977-3.418-1.1c-1.468-0.151-2.932-0.283-4.403-0.398
	c-2.473-0.194-5.024-0.1-7.486,0.188c-3.924,0.459-7.89,1.155-11.532,2.752c-1.91,0.838-3.916,1.634-5.664,2.777
	c-0.606,0.396-1.261,0.73-1.734,1.282c-0.226,0.263,0.947,1.511,1.147,1.74c0.571,0.651,1.106,1.24,2.021,1.11
	c0.148-0.021,0.241-0.482,0.344-0.592c0.27-0.292,0.531-0.472,0.866-0.691c1.518-0.993,3.337-1.583,5.018-2.249
	c2.513-0.996,5.138-1.656,7.749-2.342c1.178-0.309,2.509-0.266,3.718-0.37c1.104-0.095,2.207-0.216,3.313-0.266
	c1.688-0.077,3.374-0.153,5.062-0.23c1.228-0.055,2.497,0.252,3.713,0.41c1.125,0.145,2.256,0.255,3.384,0.382
	c0.28,0.031,0.565,0.033,0.848,0.049c0.24,0.013,0.635-0.077,0.838,0.012c0.211,0.091,0.355,0.481,0.451,0.66
	c0.24,0.44,0.411,0.86,0.363,1.359c-0.071,0.695-0.194,1.201-0.434,1.858c-0.058,0.159-0.432,0.417-0.229,0.595
	c0.178,0.157,0.743-0.293,0.84-0.39c0.846-0.834,1.139-2.225,0.661-3.302c0.735,0.584,1.764-0.144,2.351-0.579
	c0.171-0.126,0.234-0.316,0.332-0.504c0.061-0.114,0.062-0.442,0.131-0.495c0.24-0.185,0.472-0.399,0.789-0.435
	c0.34-0.038,0.628,0.214,0.509,0.542c0.194-0.187,0.447-0.3,0.712-0.3c0.245,0,0.432,0.003,0.656,0.133
	c0.152,0.088,0.252,0.351,0.402,0.407c0.178,0.066,1.872-0.083,1.9-0.179c0.062-0.2,0.024-0.372,0.237-0.346
	c0.266,0.032,0.53,0.063,0.794,0.095c0.899,0.108,1.797,0.216,2.697,0.324c2.685,0.323,5.367,0.651,8.051,0.981
	c1.209,0.149,2.42,0.332,3.632,0.447c1.238,0.118,2.53,0.371,3.775,0.314c1.356-0.062,2.705,0.024,3.983-0.457
	c1.822-0.686,3.534-1.358,4.845-2.876c0.729-0.843,1.438-1.682,2.115-2.566C83.239,16.412,82.479,16.542,81.719,16.672
	L81.719,16.672z M7.515,20.904c-0.778,0.778-1.727-0.719-0.759-1.118c0.383-0.158,0.874,0.079,0.955,0.495
	C7.753,20.497,7.599,20.712,7.515,20.904C7.374,21.044,7.515,20.904,7.515,20.904z M10.307,19.914
	c-0.716,0.716-1.741-0.561-0.844-1.107c0.383-0.234,0.91-0.002,1.029,0.424C10.559,19.464,10.394,19.702,10.307,19.914
	C10.166,20.054,10.307,19.914,10.307,19.914z M30.418,15.081c-0.724,0.724-1.76-0.537-0.91-1.113
	c0.369-0.25,0.898-0.084,1.067,0.325C30.693,14.58,30.526,14.817,30.418,15.081C30.277,15.221,30.418,15.081,30.418,15.081z
	 M33.21,15.261c-0.711,0.71-1.757-0.508-0.91-1.082c0.354-0.241,0.894-0.095,1.067,0.302C33.489,14.759,33.315,15.004,33.21,15.261
	C33.069,15.401,33.21,15.261,33.21,15.261z M12.827,23.275c-0.705,0.706-1.767-0.502-0.909-1.083
	c0.342-0.232,0.815-0.107,1.026,0.239C13.13,22.736,12.946,22.987,12.827,23.275C12.688,23.416,12.827,23.275,12.827,23.275z
	 M15.079,22.315c-0.644,0.644-1.74-0.363-1.021-0.99C14.699,20.682,15.801,21.682,15.079,22.315
	C14.938,22.455,15.238,22.175,15.079,22.315z M35.701,19.073c-0.729,0.729-1.747-0.608-0.841-1.061
	C35.506,17.69,36.287,18.488,35.701,19.073C35.562,19.213,35.841,18.933,35.701,19.073z M38.192,19.344
	c-0.193,0.084-0.408,0.238-0.624,0.196c-0.425-0.08-0.702-0.542-0.524-0.947C37.486,17.585,38.994,18.655,38.192,19.344
	C38.192,19.344,38.332,19.223,38.192,19.344z M56.413,16.882c-0.19-0.1-0.38-0.2-0.569-0.3c2.601,0.064,5.2,0.127,7.803,0.191
	c1.702,0.042,3.407,0.083,5.11,0.125c0.501,0.012,1.003,0.024,1.504,0.037c0.386,0.01,0.433,0.073,0.771,0.338
	C66.159,17.142,61.286,17.012,56.413,16.882L56.413,16.882z"/>
<rect id="sliceCopy_x5F_15_1_" x="88" fill="none" width="88.001" height="40"/>
<rect id="sliceCopy_x5F_14_1_" fill="none" width="88" height="40"/>
</svg>
