<?xml version="1.0" encoding="utf-8"?>
<!-- Generator: Adobe Illustrator 15.1.0, SVG Export Plug-In  -->
<!DOCTYPE svg PUBLIC "-//W3C//DTD SVG 1.1//EN" "http://www.w3.org/Graphics/SVG/1.1/DTD/svg11.dtd" [
	<!ENTITY ns_flows "http://ns.adobe.com/Flows/1.0/">
]>
<svg version="1.1"
	 xmlns="http://www.w3.org/2000/svg" xmlns:xlink="http://www.w3.org/1999/xlink" xmlns:a="http://ns.adobe.com/AdobeSVGViewerExtensions/3.0/"
	 x="0px" y="0px" width="95px" height="40px" viewBox="0.099 0 95 40" enable-background="new 0.099 0 95 40" xml:space="preserve">
<defs>
</defs>
<path d="M89.14,10.486c0.611,0.12,2.045,2.156,0.947,2.193c0.295,0.923-3.137,0.646-4.053,0.65
	c-3.748,0.019-7.498,0.036-11.244,0.055c-3.01,0.015-6.016,0.028-9.023,0.043c-0.168,0.001-0.205,1.095-0.205,1.295
	c0,0.562,0.537,0.452,0.699,0.847c0.174,0.431,0,1.423,0,1.994c0,0.632,0.313,2.117-0.699,1.745c0,0.823,0.137,1.803-0.049,2.594
	c0.863,0.126,0.447,4.008,0.447,4.933c0,1.662,0,3.324,0,4.985c0,0.397,0.043,2.393-0.023,2.393c-0.965,0-0.629,1.503-0.623,2.293
	c0,0.092,0.535,0.448-0.066,0.448c-0.285,0-1.379,0.203-1.379-0.249c0-0.154,0.299-0.135,0.299-0.448c0-0.217,0-0.432,0-0.646
	c0-0.387-0.051-0.894-0.051-1.197c0-0.202-0.748-0.516-0.748-1.047c0-3.374,0-6.747,0-10.118c0-0.349-0.059-0.789,0.051-1.096
	c0.102-0.284,0.35-0.427,0.35-0.947c0-0.534,0.275-2.248-0.498-1.846c-0.166-0.281-0.174-2.006,0-2.143
	c-0.201-0.104-0.498-0.239-0.498-0.499c0-0.16-0.35-0.684-0.35-0.399c0,0.355-0.111,0.327-0.301,0.548
	c-0.127,0.15-0.447-0.005-0.447,0.249c0,0.112-0.047,0.285-0.148,0.35c-0.539,0.34-1.268,0.153-1.945,0.2
	c-0.689,0.045-1.158,0.249-1.496-0.35c-0.064-0.115,0-0.461,0-0.598c0-0.082-0.854-0.05-0.963-0.05c-1.988,0-3.973,0-5.959,0
	c-0.303,0-4.045-0.055-4.045,0.05c0,0.17-0.051,0.437,0,0.598c0.104,0.325,0.264,0.131,0.4,0.449
	c0.203,0.47,0.016,0.913,0.447,1.396c0.188,0.209,0.447,0.026,0.447,0.398c0,0.215,0,0.432,0,0.648c0,0.847,0,1.696,0,2.542
	c0,1.711,0,3.423,0,5.134c0,0.831,0,1.662,0,2.492c0,0.477-0.1,0.974-0.1,1.395c0,0.85-1.025,0.548-1.678,0.548
	c-2.088,0-4.176,0-6.268,0c-0.578,0-1.643,0.185-2.074-0.25c-0.199-0.2-0.498,0.087-0.498-0.349c0-0.216,0-0.432,0-0.648
	c0-0.415,0-0.831,0-1.246c0-3.372,0.154-6.854-0.1-10.168c-0.078-1.034,0.287-1.216,0.697-1.944
	c-0.971,0.026-2.24-0.323-1.943,0.997c0.113,0.502,0.693,0.75,0.15,1.246c-0.232,0.211-0.686,0.208-0.998,0.25
	c-0.725,0.093-0.479-0.048-0.748,0.349c-0.238,0.355-0.314,0.731-0.447,1.146c-0.135,0.417-0.285,0.839-0.398,1.246
	c-0.09,0.316-0.117,1.063-0.35,1.297c-0.254,0.255,0.078,0.921-0.199,1.196c-0.154,0.152,0.051,0.498-0.273,0.498
	c-0.17,0-0.52,0.183-0.723,0.2c-1.139,0.099-3.762,0.198-3.789-1.347c-0.014-0.808,0.576-1.701,0.799-2.391
	c0.215-0.679,0.646-1.72,0.646-2.393c0-0.571,0.268-0.711-0.1-1.246c-0.334-0.489-0.787-0.669-1.295-0.922
	c-0.461-0.229-0.811-0.553-1.047-1.072c-0.086-0.189-0.08-0.409-0.199-0.548c-0.207-0.244-0.129-0.092-0.523-0.225
	c-0.236-0.079-0.375-0.222-0.375-0.473c0-0.108-1.756-0.05-1.93-0.05c-0.879,0-3.357,0.449-4.002-0.2
	c-0.525-0.529,0.129-1.046-0.779-1.046c-0.719,0-1.508,0.102-2.211-0.075c-0.182-0.045-0.365,0.224-0.6,0.224
	c-0.406,0-0.113,0.154-0.398,0.399c-2.25,1.934-4.768,3.874-7.227,5.434c-0.119,0.075-0.32,0.035-0.449,0.149
	c-0.102,0.091-0.174,0.524-0.35,0.699c-0.123,0.124-0.613,0.433-0.797,0.523c-0.615,0.306-1.322,0.125-1.846-0.273
	c-0.531-0.406-0.945-1.785-0.945-2.392c0-0.678-0.281-1.905-0.574-2.493c-0.338-0.682-0.262-1.739-0.373-2.492
	c-0.133-0.894-0.377-3.481,1.146-3.042c0.262-0.29,1.434-0.149,1.896-0.149c2.078,0,4.156,0,6.236,0c2.674,0,5.113-0.25,7.82-0.25
	c0.707,0,1.416,0,2.125,0c-0.082,0,0.279-0.519,0.266-0.498c0.188-0.282,0.059-0.278,0.398-0.499c0.26-0.167,0.711-0.064,0.896-0.2
	c0.35-0.251-0.09-0.797-0.1-1.096c-0.018-0.654,0.273-0.575,0.699-0.849c0.307-0.196,0.617-0.797,0.99-0.797
	c0.43,0,0.77-0.018,0.979,0.4c0.131,0.263,0.678,0.169,0.973,0.349c0.211,0.129,0.162,0.341,0.547,0.449
	c0.668,0.185,1.648,0,2.359,0c0.449,0,0.957-0.263,1.08,0.398c0.539-0.219,0.623,0.961,0.648,1.347
	c1.238-0.003,2.938,0.209,3.988-0.2c0.338-0.131,1.156-1.085,1.396-0.349c0.35-0.278,0.912-0.4,1.246-0.15
	c0.301-0.521,2.234-0.345,2.791-0.249c0.166,0.029,0.285,0.289,0.348,0.299c0.197,0.031,0.443-0.051,0.648-0.05
	c0.418,0.001,0.877-0.05,1.309-0.05c0.65,0,1.301,0,1.951,0c0.24,0,0.439,0.244,0.629,0.25c0.213,0.005,0.688-0.56,0.748,0.099
	c0.4-0.085,0.652,0.045,1.084,0.035c0.438-0.011,0.875-0.022,1.314-0.034c0.078-0.002,0.139-0.217,0.244-0.25
	c0.404-0.124,0.787-0.146,1.145-0.324c0.322-0.159,0.697-0.311,1.049-0.398c0.211-0.054,1.199-0.398,0.525-0.63
	c-0.768-0.267-1.533-0.531-2.301-0.797c-0.41-0.142-1.66-0.315-1.791-0.841c-0.107-0.431-1.305-0.182-1.619-0.499
	c-0.348-0.35-0.957-0.46-1.146-0.947C46.409,3.86,46.677,3.6,46.97,3.233c0.553-0.69,0.904,0.374,1.195,0.374
	c0.26,0,0.576,0.153,0.799,0.25c0.441-0.743,3.939,0.7,4.594,0.876c0.594,0.16,1.826,0.408,2.109,0.969
	c0.025,0.05,0.434-0.192,0.623,0c0.115,0.115,0.051,0.483,0.051,0.647c0,0.432,0,0.865,0,1.296c0,0.433,0,0.864,0,1.296
	c0,0.715-0.762,0.697-1.363,0.697c-0.641,0-0.859,0.052-1.354,0.249c-0.238,0.096-0.189,0.449,0.082,0.449c1.934,0,3.869,0,5.803,0
	c0.318,0,1.154,0.125,1.367-0.049c0.178-0.146-0.111-0.495,0.275-0.623c0.564-0.19,0.385-0.538,0.422-1.072
	c0.021-0.266-0.109-0.172,0.102-0.548c0.029-0.052,0.41-0.434,0.498-0.499c0.305-0.221,1.297-0.557,1.695-0.349
	c0.225,0.118,0.299,0.125,0.299,0.499c0,0.494,0.152,0.221,0.348,0.548c0.242,0.406,0.25,0.662,0.25,1.196
	c0,1.585,2.24,1.046,3.426,1.046C75.173,10.486,82.155,10.486,89.14,10.486 M15.415,13.327c0.107-0.044,0.182-0.119,0.299-0.149
	c-2.773,0-5.549,0-8.324,0c0.078,0.451,0.104,1.205,0.299,1.595c0.197,0.394,0.547,0.302,0.697,0.738
	c0.232,0.685,0.465,1.37,0.699,2.053c0.885-0.645,1.578-0.852,2.242-1.395c0.441-0.358,1.063-0.644,1.496-0.947
	C13.71,14.602,14.569,13.978,15.415,13.327"/>
<rect id="sliceCopy_x5F_57_1_" x="94.487" fill="none" width="106.674" height="40"/>
<rect id="sliceCopy_x5F_56_1_" fill="none" width="94.488" height="40"/>
</svg>
