<?xml version="1.0" encoding="utf-8"?>
<!-- Generator: Adobe Illustrator 15.1.0, SVG Export Plug-In  -->
<!DOCTYPE svg PUBLIC "-//W3C//DTD SVG 1.1//EN" "http://www.w3.org/Graphics/SVG/1.1/DTD/svg11.dtd" [
	<!ENTITY ns_flows "http://ns.adobe.com/Flows/1.0/">
]>
<svg version="1.1"
	 xmlns="http://www.w3.org/2000/svg" xmlns:xlink="http://www.w3.org/1999/xlink" xmlns:a="http://ns.adobe.com/AdobeSVGViewerExtensions/3.0/"
	 x="0px" y="0px" width="106px" height="40px" viewBox="0.512 0 106 40" enable-background="new 0.512 0 106 40"
	 xml:space="preserve">
<defs>
</defs>
<path d="M101.77,12.422C101.854,12.512,101.953,12.62,101.77,12.422c-0.129-0.138-0.07-0.075-0.002,0
	c-0.434-0.467-1.918-0.183-2.484-0.183c-0.701,0-1.402,0-2.104,0c-0.615,0-1.135,0.15-1.078-0.593
	c0.078-0.992,0.137-2.072-0.08-3.009c-0.115-0.505,0.074-1.107,0.139-1.606c0.074-0.582-0.098-1.041-0.295-1.574
	c-0.314-0.84-2.314-0.28-2.945-0.196c-0.543,0.102-0.168,1.793-0.217,2.171c-0.188,1.423-1.453,1.112-2.549,1.112
	c-1.512,0-3.023,0-4.533,0c-3.029,0-6.061,0-9.09,0c-0.387,0-1.492,0.206-1.742-0.15c-0.189-0.265-0.395-0.49-0.607-0.735
	c-0.254-0.29-1.082-0.037-1.418-0.022c-0.412,0.018-0.947,0.129-1.279-0.196c-0.506-0.496-0.17-1.673-1.137-0.972
	c-0.346,0.252-0.654,0.489-1.066,0.623c-0.17,0.056-0.342,0.12-0.5,0.205c-0.17,0.09-0.15,0.286-0.313,0.345
	c-0.654,0.244-1.762-0.071-2.072-0.695c-0.146-0.295-0.705-0.605-0.945-0.848c-0.316-0.318-0.795-0.406-1.23-0.38
	c-0.631,0.037-0.807,0.826-1.311,1.23c-0.232,0.185-0.586,0.357-0.736,0.617c-0.094,0.159-0.619,0.11-0.807,0.309
	c-0.168,0.172-0.379,0.671-0.664,0.671c-0.666,0-1.33,0-1.996,0c-1.299,0-2.602,0-3.898,0c-2.637,0-5.273,0-7.91,0
	c-1.209,0-2.65-0.217-3.834,0.025c-0.984,0.201-1.723,1.362-2.41,2.014c-0.527,0.499-1.035,1.313-1.799,1.353
	c-0.971,0.048-1.51,0.988-2.311,1.437c-0.391,0.22-0.814,0.176-1.246,0.234c-0.627,0.085-1.227,0.179-1.863,0.184
	c-1.4,0.012-2.799,0.051-4.199,0.036c-1.775-0.018-3.551-0.044-5.324-0.084c-0.682-0.015-1.369-0.024-2.051,0.048
	c-0.322,0.034-0.998,0.402-1.188,0.271c0.484-0.228,0.197-0.709-0.246-0.51c-0.404,0.184-0.691,0.544-1.111,0.714
	c-1.086,0.441-2.615,0.184-3.758,0.167c-2.867-0.044-5.734-0.051-8.604-0.051c-1.008,0-2.236-0.481-2.758,0.729
	c-0.236,0.544-0.164,1.229-0.148,1.805c0.01,0.367-0.178,1.443,0.123,1.722c0.33,0.303,0.436,0.341,0.453,0.848
	c0.02,0.506-0.006,1.016-0.006,1.523c0,0.638,0,1.276,0,1.914c0,0.253,0.17,1.388-0.086,1.518c-0.707,0.359-0.326,2.604-0.326,3.372
	c0,0.893,0.016,2.236,1.252,1.628c0.582-0.286,5.666-1.776,6.006-1.89c0.363-0.12,22.014-7.005,24.047-7.556
	c1.578-0.427,3.566-0.407,4.99,0.524c1.305,0.854,0.705,2.652,0.248,3.856c-0.525,1.38-0.791,2.838-1.6,4.078
	c-0.939,1.436-1.635,3.414-0.502,4.923C39.756,34.849,41.711,35,43.418,35c0.615,0,1.41,0.031,1.801-0.539
	c0.311-0.452,0.363-1.718-0.326-1.924c0.5-0.543,0.561-1.456,0.768-2.137c0.264-0.862,0.664-1.68,0.904-2.544
	c0.264-0.944,0.621-1.826,0.928-2.754c0.158-0.475,0.326-1.171,0.771-1.468c0.494-0.333,0.787,0.496,1.057,0.75
	c0.477,0.453,1.873,0.187,2.473,0.193c0.947,0.009,1.906-0.029,2.85,0.072c0.787,0.086,1.73,0.243,2.422-0.252
	c0.365-0.262,0.785-0.561,1.273-0.486c0.34,0.052-0.061,0.88,0.01,1.148c0.137,0.536,1.24,0.741,1.572,0.313
	c0.225-0.29,0.184-0.615,0.344-0.911c0.203-0.381,0.082-0.762,0.275-1.126c0.281-0.532-0.229-1.635,0.254-2.039
	c0.352-0.294,0.928,1.094,0.971,1.313c0.082,0.395-0.227,2.424,0.689,1.901c-0.004,0.564,1.074,0.445,1.402,0.374
	c0.295-0.065,0.369-0.197,0.363-0.502c-0.012-0.638,0.133-0.512,0.779-0.512c2.535,0,5.072,0,7.609,0c5.176,0,10.352,0,15.525,0
	c1.025,0,2.064,0.05,3.09-0.01c0.711-0.042,1.449-0.148,2.158-0.042c0.76,0.117,0.309,0.98,1.201,0.969
	c0.754-0.012,1.607,0.218,2.34-0.024c0.658-0.217,0.508-1.167,0.469-1.704c-0.072-1.005-0.047-2.012-0.047-3.02
	c0-0.392,0.27-0.942,0.102-1.319c-0.092-0.208-0.234-0.687-0.469-0.732c-0.027-0.51,0.443-1.429-0.363-1.551
	c0.951-0.248,2.016-0.092,2.988-0.092c0.387,0,1.852,0.253,2.135-0.091c0.373-0.454,0.168-1.289,0.168-1.825
	C101.906,13.872,102.195,12.882,101.77,12.422z M31.307,18.557c-1.768,0.501-22.436,7.108-24.18,7.868
	c0.078-0.2,0.318-0.158,0.41-0.365c0.068-0.153-0.182-0.258-0.09-0.457c-0.756,0.051-0.662-1.169-0.631-1.633
	c0.064-1.019,0.135-2.004,0.125-3.032c-0.004-0.386-0.383-2.77,0.383-2.77c1.686,0,3.373,0,5.059,0c6.504,0,13.006,0,19.51,0
	c-0.227,0.085-0.348,0.32-0.584,0.388C31.365,18.541,31.41,18.528,31.307,18.557z M57.254,23.322
	c-0.477,1.005-2.689,0.591-3.479,0.555c-0.824-0.039-1.656-0.009-2.48-0.009c-0.613,0-1.512,0.296-1.703-0.44
	c-0.109-0.421-0.211-1.076-0.051-1.479c0.197-0.493-0.002-1.315,0.389-1.67c0.484-0.438,0.637-0.173,0.744,0.308
	c0.145,0.652,0.332,1.315,0.801,1.812c0.359,0.379,0.881,0.714,1.391,0.843c0.439,0.11,1.1-0.348,0.563-0.733
	c-0.537-0.386-2.021-2.388-0.686-2.466c0.775-0.046,1.564-0.004,2.338-0.004c0.334,0,1.955-0.222,2.148,0.055
	c0.195,0.281,0.023,1.184,0.023,1.518C57.254,22.075,57.455,22.895,57.254,23.322z"/>
<rect id="sliceCopy_x5F_39_1_" x="106.002" fill="none" width="96.643" height="40"/>
<rect id="sliceCopy_x5F_38_1_" fill="none" width="106.002" height="40"/>
</svg>
