<?xml version="1.0" encoding="utf-8"?>
<!-- Generator: Adobe Illustrator 15.1.0, SVG Export Plug-In  -->
<!DOCTYPE svg PUBLIC "-//W3C//DTD SVG 1.1//EN" "http://www.w3.org/Graphics/SVG/1.1/DTD/svg11.dtd" [
	<!ENTITY ns_flows "http://ns.adobe.com/Flows/1.0/">
]>
<svg version="1.1"
	 xmlns="http://www.w3.org/2000/svg" xmlns:xlink="http://www.w3.org/1999/xlink" xmlns:a="http://ns.adobe.com/AdobeSVGViewerExtensions/3.0/"
	 x="0px" y="0px" width="125px" height="40px" viewBox="0.521 0 125 40" enable-background="new 0.521 0 125 40"
	 xml:space="preserve">
<defs>
</defs>
<path d="M121.221,13.454c0.01-0.37-0.152-0.347-0.811-0.347c-1.818,0-5.217,0-7.037,0c-6.291,0-12.582,0-18.873,0
	c-6.982,0-13.961,0-20.943,0c-0.775,0-1.551,0-2.326,0c-0.529,0-0.453,0.003-0.453-0.55c0-1.012,0-2.024,0-3.035
	c0-0.491,0-0.982,0-1.474c0-0.507,0.469-0.802-0.352-1.055c-0.959-0.295-2.402,0.006-3.387,0c-0.65-0.006-2.354-0.33-2.857,0.175
	C63.813,7.54,63.135,7.8,62.643,8.048c-0.715,0.36-1.596,0.616-2.357,0.616c-2.922,0-5.846,0-8.77,0
	c0.191-0.785,0.045-1.548,0.045-2.265c0-0.302,0.213-0.848,0.088-1.077c-0.303-0.559-2.525-0.22-3.035-0.22
	c-0.701,0.046-0.527,1.417-0.527,1.956c0,0.396,0,0.792,0,1.188c0,0.218,0.088,0.417-0.158,0.417c-0.645,0-1.285,0-1.926,0
	c-1.715,0-3.432,0-5.146,0c-0.41,0-0.244-0.561-0.244-0.923c0-0.296,0.115-0.938-0.045-1.187c-0.369-0.571-2.283-0.22-2.918-0.22
	c-0.871,0-0.09,1.704-0.336,2.154c-0.318,0.586-2.572-0.007-3.254,0.22c-0.461,0.154-0.813,0.414-0.836,0.968
	c-0.027,0.656-0.178,2.056,0.045,2.683c0.283,0.799,1.754,0.383,2.549,0.439c1.076,0.075,2.395,0.088,3.564,0.088
	c0.713,0,1.428,0,2.145,0c0.105,0,0.066,0.202,0.01,0.265c-0.092,0.096-0.613,0.059-0.723,0.064
	c-0.975,0.041-1.869,0.051-2.754,0.419c-0.588,0.245-1.371,0.886-2.021,1.319c-0.73,0.485-1.621,0.902-2.465,1.275
	c-0.795,0.351-1.582,0.683-2.373,0.967c-0.67,0.24-1.379,0.396-2.17,0.396c-0.537,0-2.809,0.415-3.107,0
	c-0.162-0.226,0.234-0.501,0.309-0.703c0.059-0.165,0.043-0.471,0.043-0.704c0-0.408,0.176-1.08,0.131-1.408
	c-0.096-0.719-0.611-0.879-1.252-0.879c-1.564,0-3.129,0-4.695,0c-1.93,0-3.859,0-5.791,0c-0.682,0-1.965-0.226-2.553,0.044
	c-0.527,0.241-0.504,0.835-0.572,1.319c-0.031,0.219-0.188,0.547-0.066,0.792c0.135,0.265,0.428,0.393,0.506,0.66
	c-0.721-0.03-1.6-0.221-2.287-0.176c-0.182,0.012-0.352,0.176-0.547,0.176c-0.322,0-0.646,0-0.969,0c-1.008,0-2.018,0-3.027,0
	c-0.225,0-0.82-0.026-0.996,0.176c-0.283,0.327-0.09,1.413-0.09,1.847c0,0.593,0,1.188,0,1.781c0,2.053,0,4.105,0,6.156
	c0,1.027,0,2.053,0,3.079c0,0.942,0.355,1.158,1.275,1.121c1.334-0.055,2.668-0.06,4.002-0.087
	c-0.227,0.968,3.959,1.164,3.959-0.027c0-0.517-0.303-0.695-0.352-1.206c-0.027-0.288,0-0.59,0-0.879
	c0-0.631,0.033-0.625,0.703-0.615c0.367,0.006,0.439,0.088,0.807-0.066c3.143-1.319,6.283-2.639,9.426-3.958
	c0.393-0.166,0.785-0.33,1.178-0.496c0.344-0.144,0.311-0.399,0.756-0.548c0.279-0.093,1.789-0.09,1.883,0.099
	c0.271,0.543,1.166-0.46,1.166-0.795c0-0.42,0.158-0.917,0.484-1.228c0.246-0.235,0.361-0.263,0.764-0.263
	c0.373,0,0.285-0.035,0.865,0.088c0.508,0.106,1.131,0.043,1.674,0.043c0.219,0,0.639,1.275,0.568,1.627
	c-0.072,0.352-0.529,0.625-0.529,1.011c0,0.121-0.418,0.866-0.57,0.945c-0.268,0.136-0.564,0.833-0.703,1.077
	c-0.178,0.308-0.541,0.62-0.66,0.924c-0.154,0.393-0.131,0.941-0.131,1.385c0,0.538-0.656,1.109-0.406,1.685
	c0.445,1.037,2.363,1.33,3.328,1.715c0.49,0.194,1.496-0.182,1.992-0.258c0.283-0.042,1.09-0.33,1.154-0.546
	c0.184-0.641-0.111-1.586-0.184-2.239c-0.082-0.734,0.021-0.952,0.344-1.642c0.24-0.518,0.424-0.907,0.631-1.375
	c0.146-0.331,0.525-0.728,0.527-1.099c0.137,0.05,0.289,0.087,0.436,0.087c5.582,0,11.258-0.044,16.768-0.044
	c0.221,0,0.824-1.212,0.959-1.407c0.352-0.505,0.801-1.023,1.078-1.584c0.26-0.524,0.787-1.096,1.166-1.54
	c0.357-0.42,0.543-0.835,1.059-0.833c6.443,0.01,12.885,0.019,19.324,0.03c2.582,0.004,5.164,0.008,7.746,0.012
	c0.49,0,0.338,0.414,0.369,0.837c0.029,0.416,0.211,1.25,0.836,1.055c0,0.868-0.176,1.998,0.043,2.814
	c-0.951,0-0.967,0.212-0.969,1.011c-0.002,0.946,0.178,1.1,1.189,1.1c-0.059,0.233-0.045,0.463-0.045,0.704
	c0,0.139-0.721,0.132-0.924,0.285c-0.34,0.256-0.221,0.848-0.221,1.254c0,0.635-0.141,0.916,0.529,1.013
	c0.855,0.121,1.918-0.071,2.814-0.09c-0.357,0.505,0.996,2.593,1.143,3.211c-0.738,0.021-0.871,2.128-0.594,2.682
	c0.225,0.447,1.787,0.176,2.186,0.176c0.447,0,0.574,0.007,0.826-0.309c0.205-0.255,0.664-1.112,0.264-1.319
	c0.307-0.569-0.146-0.846-0.439-1.23c-0.258-0.341-0.42-0.833-0.615-1.275c-0.26-0.591-0.686-2.438-1.363-2.552
	c0.059-0.191,0.131-0.755,0.131-0.989c0-0.222-0.098-0.389-0.219-0.571c-0.225-0.337-0.176-0.701-0.176-1.188
	c0-0.533,0-1.069,0-1.604c0-0.303,0.146-0.921,0.064-1.166c-0.074-0.229,0.199-0.82,0.199-1.188c0-1.029,0.131-1.923,0.131-3.015
	c0-0.87-0.111-1.796-0.043-2.636c5.604,0.018,11.207,0.036,16.811,0.052c3.227,0.011,6.455,0.021,9.684,0.03
	c0.574,0.003,1.152,0.01,1.729,0.006c1.129-0.007,1.33,0.142,1.33-0.271C121.221,15.218,121.211,13.899,121.221,13.454z
	 M18.049,23.572c-0.061,0.325-1.047,0.792-1.318,0.792c-0.316,0-0.42,0.277-0.703,0.351c-0.131,0.033-1.121,0.015-1.275-0.175
	c-0.139-0.172-0.002-1.125,0.088-1.275c0.338-0.33,1.813-0.088,2.316-0.088C17.623,23.176,18.164,22.967,18.049,23.572z
	 M38.279,21.726c-0.043-0.453,0.377-0.686,0.658-0.925c0,0.575-0.176,1.258,0.398,1.584C38.861,22.565,38.328,22.229,38.279,21.726z
	 M40.963,22.385c0.025-0.35-0.309-0.332-0.309-0.64c0-0.225,0-0.452,0-0.679c-0.189-0.772,2.123-0.432,2.639-0.44
	C43.035,21.789,42.074,22.302,40.963,22.385z"/>
<rect id="sliceCopy_x5F_53_1_" x="125.222" fill="none" width="112.593" height="40"/>
<rect id="sliceCopy_x5F_52_1_" fill="none" width="125.222" height="40"/>
</svg>
