<?xml version="1.0" encoding="utf-8"?>
<!-- Generator: Adobe Illustrator 15.1.0, SVG Export Plug-In  -->
<!DOCTYPE svg PUBLIC "-//W3C//DTD SVG 1.1//EN" "http://www.w3.org/Graphics/SVG/1.1/DTD/svg11.dtd" [
	<!ENTITY ns_flows "http://ns.adobe.com/Flows/1.0/">
]>
<svg version="1.1"
	 xmlns="http://www.w3.org/2000/svg" xmlns:xlink="http://www.w3.org/1999/xlink" xmlns:a="http://ns.adobe.com/AdobeSVGViewerExtensions/3.0/"
	 x="0px" y="0px" width="113px" height="40px" viewBox="0.299 0 113 40" enable-background="new 0.299 0 113 40"
	 xml:space="preserve">
<defs>
</defs>
<path d="M108.467,11.969c-0.254-0.553,0.512-1.195-0.391-1.396c-0.547-0.122-1.109-0.024-1.66-0.036
	c-0.35-0.008-0.223-0.584-0.361-0.803c-0.328-0.529-1.225-0.31-1.73-0.276c-0.723,0.047-0.982,0.245-0.982,1.002
	c-0.516-0.036-1.025-0.129-1.541-0.15c-0.023,0.092,0,0.167,0.074,0.225c-8.863,0-17.725-0.004-26.59,0
	c-2.156,0.001-4.314,0.006-6.471-0.001c-1.078-0.002-2.156-0.009-3.234-0.02c-0.588-0.006-1.176-0.014-1.764-0.022
	c-0.373-0.006-0.771,0.099-1.139,0.053c-0.26-0.034-0.387-0.291-0.666-0.33c-0.24-0.034-0.816,0.138-1.006-0.021
	c-0.574-0.485-1.508-0.23-2.256-0.186c-1.037,0.063-2.078,0.052-3.115,0.032c-0.568-0.01-1.133-0.023-1.701-0.029
	c-0.041-0.001-0.635,0.069-0.527-0.041c-0.018,0-0.623-0.086-0.375,0.037c-1.211-0.195-2.445-0.195-3.668-0.158
	c-0.377,0.011-3.369,0.156-3.316-0.064c0.098-0.412-0.488-0.273-0.682-0.303c-0.324-0.051-0.064-0.503-0.582-0.465
	c-0.383,0.028-1.637-0.206-1.445,0.426c-0.125-0.013-0.25-0.024-0.375-0.037c0,0.753-0.918,1.106-1.48,1.4
	c-0.824,0.43-1.66,0.813-2.531,1.075c-0.438,0.132-0.848,0.44-1.277,0.616c-0.484,0.198-0.973,0.391-1.455,0.596
	c-1.072,0.454-2.18,0.833-3.24,1.305c-0.482,0.212-0.969,0.275-1.469,0.417c-0.471,0.131-0.893,0.357-1.389,0.396
	c-0.313,0.024-0.986-0.044-1.127-0.385c-0.162-0.391-1.221-0.051-1.582-0.014c-2.307,0.236-4.654,0.392-6.971,0.465
	c-1.045,0.032-2.053,0.279-3.096,0.342c-1.172,0.072-2.332,0.182-3.508,0.204c-0.945,0.018-1.898,0.112-2.846,0.074
	c-0.279-0.011-0.602-0.031-0.861,0.092c-0.107,0.05-0.193,0.134-0.219,0.255c-0.297,0.094-0.613,0.102-0.92,0.089
	c-0.484-0.02-0.971-0.1-1.457-0.067c-0.395,0.027-0.652-0.173-1.02-0.173c-1.102,0-1.891,0.12-2.416,1.186
	c-0.232,0.472,0.006,0.898,0.07,1.376c0.064,0.496,0.049,1,0.111,1.499c0.148,1.192,0.156,2.387,0.23,3.584
	c0.072,1.137,0.172,2.272,0.285,3.406c0.092,0.908-0.006,2.235,0.441,3.056c0.457,0.836,1.648,0.867,2.469,0.741
	c0.268-0.04,0.924-0.094,1.018-0.409c0.131-0.444,0.92-0.512,1.311-0.641c1.002-0.333,1.848-0.795,2.775-1.285
	c0.461-0.242,0.949-0.398,1.432-0.586c0.545-0.212,1.02-0.557,1.568-0.755c0.799-0.286,1.566-0.703,2.287-1.153
	c0.305-0.19,0.592-0.411,0.92-0.559c0.428-0.194,0.676,0.082,1.064-0.008c0.404-0.092,0.822-0.375,1.199-0.541
	c0.539-0.234,1.078-0.468,1.615-0.703c1.143-0.497,2.279-1.058,3.445-1.499c0.848-0.32,1.568,0.56,1.902,1.262
	c0.139,0.29,0.043,0.561,0.449,0.634c0.588,0.107,1.162-0.33,1.654-0.585c0.418-0.217,0.854-0.203,1.291-0.349
	c0.441-0.147,0.867-0.349,1.254-0.609c0.676-0.456,0.281-1.536,0.543-2.234c0.113-0.309,0.432-0.508,0.543-0.819
	c0.096-0.266,0.154-0.384,0.396-0.578c0.641-0.505,1.318-0.773,2.113-0.955c0.82-0.187,1.75-0.314,2.592-0.356
	c1.082-0.053,1.221,0.905,1.77,1.651c1.02,1.38,3.566,1.423,4.965,0.588c0.748-0.448,1.338-1.111,2.076-1.57
	c0.311-0.191,0.533-0.55,0.848-0.702c0.072-0.036,0.779-0.417,0.715-0.434c0.738,0.188,1.605,0.141,2.369,0.14
	c1.273-0.001,2.545-0.089,3.818-0.1c1.145-0.011,2.289-0.022,3.434-0.033c0.375-0.003,0.811-0.122,1.105,0.187
	c0.416,0.435,0.809,0.894,1.33,1.209c0.764,0.462,1.656,0.545,2.527,0.59c1.234,0.066,2.457,0.049,3.682-0.098
	c4.814-0.58,9.551-1.453,14.42-1.354c2.775,0.056,5.578,0.114,8.35-0.106c0.615-0.049,1.225-0.143,1.832-0.265
	c0.623-0.126,1.387-0.158,1.965-0.434c0.537-0.662,1.617-0.003,1.58-1.122c-0.016-0.448,0.096-1.186-0.137-1.577
	c-0.223-0.373,0.051-0.788,0.434-0.902c0.365-0.11,0.76-0.059,1.137-0.069c0.703-0.02,1.402-0.124,2.107-0.122
	c2.926,0.011,5.854,0.022,8.781,0.033c-0.029-0.116-0.066-0.229-0.113-0.338c0.178,0,0.514,0.05,0.516-0.22
	c0.004-0.467,0.025-0.875-0.174-1.309C108.434,11.898,108.449,11.932,108.467,11.969C108.203,11.401,108.467,11.969,108.467,11.969z
	 M5.088,17.262L5.088,17.262 M42.172,18.163c-0.17-0.593,1.631-0.336,2.078-0.36c0.24-0.013,0.752-0.064,0.871,0.223
	c0.107,0.259,0.117,0.839,0.014,1.095c-0.244,0.592-1.91,0.594-2.416,0.411C42.324,19.39,41.859,18.328,42.172,18.163
	C42.057,17.766,42.172,18.163,42.172,18.163z"/>
<rect id="sliceCopy_x5F_54_1_" x="112.592" fill="none" width="103.27" height="40"/>
<rect id="sliceCopy_x5F_53_1_" fill="none" width="112.593" height="40"/>
</svg>
