<?xml version="1.0" encoding="utf-8"?>
<!-- Generator: Adobe Illustrator 15.1.0, SVG Export Plug-In  -->
<!DOCTYPE svg PUBLIC "-//W3C//DTD SVG 1.1//EN" "http://www.w3.org/Graphics/SVG/1.1/DTD/svg11.dtd" [
	<!ENTITY ns_flows "http://ns.adobe.com/Flows/1.0/">
]>
<svg version="1.1"
	 xmlns="http://www.w3.org/2000/svg" xmlns:xlink="http://www.w3.org/1999/xlink" xmlns:a="http://ns.adobe.com/AdobeSVGViewerExtensions/3.0/"
	 x="0px" y="0px" width="93px" height="40px" viewBox="0.769 0 93 40" enable-background="new 0.769 0 93 40" xml:space="preserve">
<defs>
</defs>
<path d="M89,19.84c-5.682-0.877-11.365-1.754-17.046-2.631c-0.346-0.054-0.704-0.028-1.053-0.028
	c-1.146-0.005-2.292-0.009-3.438-0.014c-3.738-0.016-7.479-0.031-11.218-0.046c-3.681-0.015-7.361-0.03-11.041-0.044
	c-1.07-0.005-2.141-0.009-3.213-0.014c-0.213-0.001-0.426-0.001-0.639-0.002c-0.321-0.001-0.609,0.402-0.996,0.402
	c-0.844,0-1.688,0-2.531,0c-0.62,0-0.684,0.138-0.684-0.463c0-1.774,0-3.548,0-5.323c0-0.23,0-0.458,0-0.688
	c0-0.171-0.516-0.073-0.648-0.073c-0.096,0-0.648-0.062-0.648,0.044c0,0.226,0,0.452,0,0.678c0,1.808,0,3.615,0,5.423
	c0,0.348,0.176,0.804-0.221,0.804c-0.887,0-1.772,0-2.658,0c-0.33,0-0.66,0-0.99,0c-0.25,0-0.292,0.361-0.604,0.418
	c-0.288,0.051-0.537-0.081-0.701-0.311c-0.076-0.105-0.063-0.107-0.18-0.107c-0.419,0-0.839,0-1.258,0c-0.42,0-0.84,0-1.26,0
	c-0.372,0-0.503,0.419-0.901,0.371c-0.232-0.029-0.442-0.371-0.615-0.371c-0.393,0-0.786,0-1.18,0c-0.436,0-0.871,0-1.307,0
	c-0.096,0-0.192,0-0.288,0c-0.016,0-0.134,0.15-0.121,0.136c-0.116,0.138-0.323,0.234-0.504,0.234
	c-0.412,0.045-0.503-0.37-0.88-0.374c-0.466-0.005-0.932-0.011-1.396-0.016c-0.333-0.004-0.667-0.008-1-0.013
	c-0.077-0.001-0.127,0.123-0.159,0.176c-0.055,0.09-0.382,0.196-0.487,0.194c-0.149-0.002-0.354-0.124-0.496-0.174
	c-0.077-0.026-0.148-0.196-0.221-0.196c-0.34,0-0.68,0-1.019,0c-0.455,0-0.91,0-1.365,0c-0.362,0-0.349,0.051-0.662,0.198
	c-0.295,0.138-0.553,0.305-0.837,0.021c-0.258-0.258-0.617-0.148-0.973-0.141c-0.765,0.017-1.283-0.198-2.01-0.462
	c-0.375-0.137-0.978-0.022-1.369-0.023c-1.676-0.009-3.351-0.016-5.026-0.024c-0.513-0.003-0.956,0.498-1.063,0.957
	c-0.156,0.665-0.064,1.445-0.083,2.123c-0.018,0.622-0.01,1.245-0.01,1.867c0,0.339,0,0.678,0,1.015
	c0,0.265,0.292,0.657,0.405,0.896c0.048,0.104,0.294,0.646,0.369,0.646c0.168,0,0.336,0,0.504,0c0.851,0,1.702,0,2.554,0
	c0.951,0,1.902,0,2.853,0c0.407,0,0.874,0.08,1.257-0.077c0.319-0.131,0.676-0.346,1.016-0.417c0.346-0.071,0.778,0,1.131,0
	c0.343,0,0.437-0.063,0.738-0.154c0.226-0.07,0.427-0.087,0.602,0.123c0.121,0.079,0.074,0.154,0.221,0.154c0.847,0,1.692,0,2.539,0
	c0.411,0,0.297-0.068,0.627-0.288c0.482-0.322,0.621,0.288,1.002,0.288c0.842,0,1.685,0,2.526,0c0.35,0,0.451-0.446,0.898-0.318
	c0.106,0.03,0.312,0.318,0.377,0.318c0.124,0,0.248,0,0.371,0c0.813,0,1.626,0,2.438,0c0.064,0,0.224-0.223,0.285-0.257
	c0.282-0.162,0.67-0.082,0.894,0.142c0.199,0.198,0.516,0.115,0.787,0.115c0.474,0,0.946,0,1.419,0c0.155,0,0.708,0.092,0.813-0.04
	c0.29-0.364,0.697-0.314,1.079-0.144c0.277,0.121,0.275,0.154,0.616,0.154c0.921,0,1.843,0,2.764,0c0.257,0,0.514,0,0.771,0
	c0.043,0,0.019,0.414,0.019,0.462c0,0.933,0,1.865,0,2.798c0,0.362,0,0.724,0,1.085c0,0.307-0.005,0.256,0.32,0.256
	c0.09,0,0.915,0.023,0.915-0.021c0.003-0.298,0.005-0.596,0.008-0.894c0.007-0.886,0.015-1.772,0.021-2.657
	c0.002-0.24-0.034-0.228,0.182-0.228c0.268-0.001,0.535-0.001,0.803-0.003c1.079-0.001,2.158-0.003,3.237-0.005
	c3.564-0.006,7.13-0.011,10.694-0.019c6.643-0.011,13.283-0.022,19.924-0.034c1.755-0.002,3.519-0.142,5.263-0.343
	c2.595-0.3,5.132-0.848,7.493-1.999C86.378,22.103,87.671,21.058,89,19.84 M76.491,19.532c0.356,0.204,0.541,0.52,0.452,0.925
	c-0.025,0.116-0.085,0.742-0.31,0.742c-0.632,0-1.264,0-1.897,0c-0.289,0-0.563-0.61-0.563-0.833
	c-0.02-0.197,0.238-0.861,0.505-0.866c0.356-0.007,0.716-0.013,1.076-0.019C75.974,19.478,76.304,19.398,76.491,19.532"/>
<rect id="sliceCopy_x5F_18_1_" x="92.999" fill="none" width="93" height="40"/>
<rect id="sliceCopy_x5F_17_1_" fill="none" width="93" height="40"/>
</svg>
