<?xml version="1.0" encoding="utf-8"?>
<!-- Generator: Adobe Illustrator 15.1.0, SVG Export Plug-In  -->
<!DOCTYPE svg PUBLIC "-//W3C//DTD SVG 1.1//EN" "http://www.w3.org/Graphics/SVG/1.1/DTD/svg11.dtd" [
	<!ENTITY ns_flows "http://ns.adobe.com/Flows/1.0/">
]>
<svg version="1.1"
	 xmlns="http://www.w3.org/2000/svg" xmlns:xlink="http://www.w3.org/1999/xlink" xmlns:a="http://ns.adobe.com/AdobeSVGViewerExtensions/3.0/"
	 x="0px" y="0px" width="60px" height="40px" viewBox="0.452 0 60 40" enable-background="new 0.452 0 60 40" xml:space="preserve">
<defs>
</defs>
<path d="M56.153,9.869c0-0.543-0.922-0.353-1.25-0.353c-0.711,0-3.484,0.394-3.936-0.186c-0.164-0.048-0.305-0.173-0.463-0.231
	c0.164-0.419-0.186-0.813-0.186-1.25c0-0.327,0.18-0.748-0.416-0.741c0.223-0.618-0.23-1.426-0.693-1.667
	c-0.715-0.371-1.59,0.044-2.178-0.417c-0.566-0.446-0.688-0.982-1.482-1.019c-0.613-0.028-1.373,0.046-2.021,0.046
	c-7.535,0-15.068,0-22.604,0c-2.551,0-5.104,0-7.654,0c-0.975,0-1.512,0.461-1.893,1.296c-0.262-0.189-0.311,0.065-0.555,0.046
	c-0.32-0.024-0.354-0.038-0.65-0.185c-0.641-0.32-0.916-0.095-1.25,0.324C8.896,5.57,8.706,5.878,8.692,5.905
	c-0.07,0.128-0.221,0.257-0.301,0.416C8.241,6.62,8.2,6.997,8.46,7.294c-0.688,0-1.375,0-2.061,0c-0.479,0-0.35-0.24-0.717-0.278
	C5.392,6.987,4.575,7.24,4.409,7.572C4.2,7.989,4.058,8.053,4.015,8.452c-0.033,0.3,0,0.623,0,0.926c0,3.086,0,6.174,0,9.26
	c0,1.228-0.248,2.084,1.367,2.084c1.297,0,1.721-0.625,2.199-1.667c0.252-0.549,0.467-1.139,0.695-1.667
	c0.178-0.414,0.693-1.317,0.693-1.713c0-0.427,0.236-1.955,0.557-2.176c-0.023,0.305,0.287,0.928,0.508,1.041
	c0.359,0.184,0.939,0.069,1.32,0.069c0.957,0,1.912,0,2.869,0c0.414,0,1.598-0.19,2.016,0c0.189,0.086,0.23,0.425,0.416,0.509
	c0.25,0.113,0.65-0.099,0.957-0.108c0.836-0.025,1.674-0.05,2.512-0.075c0.285-0.009,0.539,0.147,0.791,0.021
	c0.191-0.097,0.148-0.523,0.371-0.301c0.127,0.127,0.021,0.474,0.139,0.533c0.34,0.169-0.232,1.877-0.232,2.153
	c0,0.648-0.551,1.4-0.602,2.083c-0.057,0.779-0.092,1.514-0.092,2.315c0,0.769,0.092,1.605,0.092,2.315
	c0,0.332-0.008,1.038,0.371,1.134c0.633,0.162,0.648,0.146,0.648,0.811c0,1.671,0.268,3.06,0.508,4.63
	c0.055,0.348,0.232,0.823,0.232,1.157c0,0.438,0.277,0.716,0.277,1.112c0,0.65,0.316,1.764,0.604,2.315
	c0.344,0.665,0.811,0.556,1.59,0.556c0.439,0,0.938,0.231,1.479,0.231c0.572,0,0.979-0.058,1.492-0.162
	c0.432-0.087,2.432,0.213,2.082-0.486c-0.166-0.332,0.076-0.819-0.092-1.157c-0.068-0.135-0.201-0.076-0.279-0.231
	c-0.047-0.098-0.016-0.185-0.068-0.278c-0.094-0.163-0.162-0.325-0.256-0.51c-0.158-0.313-0.268-0.729-0.346-1.111
	c-0.164-0.777-0.248-1.495-0.371-2.269c-0.197-1.247-0.807-3.198-0.463-4.445c0.402-1.462-0.186-2.989-0.186-4.584
	c0-0.801,0.092-1.532,0.092-2.315c0-0.35-0.145-1.064,0.348-1.064c1.186,0,2.434-0.085,3.637-0.139
	c1.357-0.061,2.871,0.103,2.871-1.575c0-0.493,0.787-0.741,0.787-1.065c0-0.379,0.217-0.767,0-1.157
	c0.176-0.051,0.371-0.046,0.576-0.046c1.873,0,3.746,0,5.619,0c0.838,0,1.166-0.198,1.166,0.648c0,0.771,0,1.544,0,2.315
	c0,1.564-0.023,3.106-0.139,4.63c-0.127,1.678-0.389,3.856,1.598,4.515c0.705,0.234,2.762,1.234,3.08,0.301
	c0.207-0.611,0-1.665,0-2.315c0-3.087,0-6.174,0-9.261c0-0.539,0.32-0.686,0.693-0.926c0.533-0.344,1.002-1.126,1.459-0.185
	c0.096,0.196,0.707,0.887,0.904,1.019c0.492,0.331,0.742-0.145,0.738-0.648c0-0.095-0.146-0.585-0.137-0.602
	c0.111-0.235,0.828-0.369,0.902-0.369c0.848,0,1.697,0,2.545,0c0.463,0,1.318,0.216,1.6-0.278
	C56.423,11.777,56.153,10.425,56.153,9.869z M4.616,11.555c0-0.479,0-0.958,0-1.437c-0.012-0.183,0-0.373,0-0.555
	C4.759,10.079,4.757,11.039,4.616,11.555z M28.649,15.212c-0.078-0.227-0.127-0.445-0.047-0.695c0.09,0.227,0.182,0.41,0.324,0.602
	c0.139,0.171,0.268,0.442,0.51,0.556C28.696,15.675,28.825,15.729,28.649,15.212z M33.466,14.517
	c-0.127,0.242-0.186,0.577-0.324,0.788c-0.271,0.413-0.787,0.37-1.318,0.37c-0.59,0-0.459-0.248-0.766-0.556
	c-0.184-0.182-1-1.372-0.975-1.528c0.07-0.422,1.885-0.184,2.324-0.184c0.412,0,1.533-0.278,1.336,0.369
	C33.833,14.125,33.601,14.256,33.466,14.517z"/>
<rect id="sliceCopy_x5F_36_1_" x="60.273" fill="none" width="78.561" height="40"/>
<rect id="sliceCopy_x5F_35_1_" fill="none" width="60.272" height="40"/>
</svg>
