<?xml version="1.0" encoding="utf-8"?>
<!-- Generator: Adobe Illustrator 15.1.0, SVG Export Plug-In  -->
<!DOCTYPE svg PUBLIC "-//W3C//DTD SVG 1.1//EN" "http://www.w3.org/Graphics/SVG/1.1/DTD/svg11.dtd" [
	<!ENTITY ns_flows "http://ns.adobe.com/Flows/1.0/">
]>
<svg version="1.1"
	 xmlns="http://www.w3.org/2000/svg" xmlns:xlink="http://www.w3.org/1999/xlink" xmlns:a="http://ns.adobe.com/AdobeSVGViewerExtensions/3.0/"
	 x="0px" y="0px" width="83px" height="40px" viewBox="0.769 0 83 40" enable-background="new 0.769 0 83 40" xml:space="preserve">
<defs>
</defs>
<path d="M72.746,17.599c-2.281-2.65-5.035-4.742-8.083-6.41c-2.328-1.275-4.773-2.445-7.396-2.961
	c-1.687-0.332-3.375-0.771-5.091-0.904c-1.203-0.093-2.407-0.187-3.611-0.279c-0.365-0.028-0.732-0.057-1.099-0.084
	c-0.06-0.005-0.278-0.634-0.393-0.779c-0.4-0.509-1.96,0.013-2.576,0.093c-0.283,0.036-0.696,0.582-0.906,0.768
	c-0.578,0.515-1.319,0.854-2.038,1.133c-1.966,0.765-4.344,0.954-6.443,0.77c-0.354-0.032-0.795-0.129-1.149-0.093
	c-0.177,0.018-0.379,0.172-0.554,0.159c-0.199-0.016-0.484-0.226-0.662-0.309c-0.361-0.168-0.463-0.261-0.832-0.172
	c-0.592,0.142-1.185,0.285-1.777,0.428c-3.575,0.86-6.974,2.02-10.221,3.767c-0.763,0.41-1.518,0.835-2.275,1.255
	c-0.13,0.072-0.116,0.104-0.162,0.262c-0.039,0.14-0.248,0.186-0.372,0.248c-0.293,0.147-0.611,0.279-0.794,0.554
	c-0.176,0.263-0.316,0.462-0.635,0.537c-0.603,0.142-0.979,0.059-1.1,0.782c-0.086,0.513-0.19,0.292-0.522,0.287
	c-0.397-0.006-1.061,0.078-0.989,0.633c-0.134,0.351-0.14,0.569-0.506,0.661c-0.246,0.062-0.496-0.265-0.771-0.265
	c-0.298,0-0.498,0.218-0.599,0.475c-0.17,0.437-0.093,0.775-0.597,0.826c-0.313,0.031-0.995-0.336-0.912,0.322
	c0.111,0.881-1.259,0.505-1.559,0.933c-0.298,0.425-0.438,0.896-0.58,1.385c-0.126,0.434,0.029,0.473,0.338,0.809
	c-0.292,0.152-0.782,0.268-0.878,0.599c-0.12,0.422-0.24,0.844-0.361,1.266c-0.265,0.919-0.534,1.838-0.788,2.759
	c-0.23,0.841-0.638,1.667-1.098,2.403c-0.186,0.298-0.724,0.863-0.754,1.206c-0.061,0.705,1.965,0.803,2.431,0.909
	c0.3,0.067,0.49,0.289,0.752,0.446c0.436,0.262,0.873,0.523,1.31,0.785c1.56,0.936,3.383,1.544,5.188,1.082
	c2.735-0.7,4.913-3.199,5.161-6.024c0.031-0.362,0.039-0.713,0.039-1.077c0.33,0.259,0.502-0.434,0.609-0.619
	c0.354-0.613,0.697-1.223,1.204-1.73c1.146-1.146,2.712-1.003,4.197-0.879c0.417,0.034,0.466-0.313,0.689-0.639
	c0.462-0.679,0.948-1.318,1.596-1.838c1.503-1.208,3.476-1.575,5.3-1.002c0.646,0.203,0.64,0.322,0.946-0.29
	c0.429-0.858,1.19-1.648,1.979-2.187c1.566-1.069,3.699-1.063,5.231,0.07c0.823,0.609,1.53,1.469,1.998,2.377
	c0.193,0.377,0.444,1.625,0.944,1.711c0.38,0.066,2.059-0.619,2.296-0.911c0.351-0.425-0.201-0.615,0.37-0.844
	c0.331-0.131,0.652-0.242,0.991-0.346c1.432-0.434,2.851-0.838,4.327-1.106c2.614-0.474,5.276-0.598,7.917-0.361
	c3.425,0.305,6.998,1.538,10.043,3.096c3.707,1.896,7.233,4.853,9.479,8.388c-0.236-2.076-1.183-4.143-2.131-5.981
	C75.743,21.503,74.333,19.473,72.746,17.599 M11.362,22.941c0.811-0.022,1.612-0.114,2.395,0.159
	c1.455,0.506,2.713,2.02,3.093,3.492c0.408,1.577,0.042,3.309-1.062,4.502c-0.86,0.929-1.741,1.289-2.942,1.398
	c-1.111,0.101-1.828,0.042-2.843-0.574c-1.111-0.678-1.639-1.491-2.055-2.669c-0.411-1.165-0.238-2.368,0.129-3.537
	C8.452,24.521,10.085,23.039,11.362,22.941"/>
<rect id="sliceCopy_x5F_20_1_" x="83" fill="none" width="84" height="40"/>
<rect id="sliceCopy_x5F_19_1_" fill="none" width="83.001" height="40"/>
</svg>
