<?xml version="1.0" encoding="utf-8"?>
<!-- Generator: Adobe Illustrator 15.1.0, SVG Export Plug-In  -->
<!DOCTYPE svg PUBLIC "-//W3C//DTD SVG 1.1//EN" "http://www.w3.org/Graphics/SVG/1.1/DTD/svg11.dtd" [
	<!ENTITY ns_flows "http://ns.adobe.com/Flows/1.0/">
]>
<svg version="1.1"
	 xmlns="http://www.w3.org/2000/svg" xmlns:xlink="http://www.w3.org/1999/xlink" xmlns:a="http://ns.adobe.com/AdobeSVGViewerExtensions/3.0/"
	 x="0px" y="0px" width="136px" height="40px" viewBox="0.353 0 136 40" enable-background="new 0.353 0 136 40"
	 xml:space="preserve">
<defs>
</defs>
<path d="M131.697,16.016l-0.18-0.45l-0.227-0.495V14.89H56.996v-1.036l2.162-0.044l1.26,0.226v-0.182l8.781,0.541h0.27l-0.09-5.133
	l-0.18-0.136l-1.486-0.18l-2.746,0.226l-2.928,0.314l-2.16,0.315H53.35V9.576c0.15,0,0.256-0.06,0.314-0.18l0.135-0.135L53.35,8
	h-0.045l-3.738,0.226v0.721l0.092,0.226v0.765l-1.262,0.09l-1.938,0.046h-2.16h-1.756l-1.801-0.136l-2.521,0.136l-2.162,0.135
	l-0.945,0.09h-0.225l-0.09,0.091c-0.09,0.089-0.137,0.254-0.137,0.495v1.216l0.137,1.937v0.135l0.09,0.225l2.205,0.135l2.521-0.226
	l2.162-0.269l1.125-0.182h1.396v1.126h-3.783c-0.148,0.06-0.238,0.136-0.27,0.225l-0.449,0.091l-1.441,0.271L36.6,15.88h-0.09v0.271
	l-0.227,1.125l-0.359,1.126H23.766l-1.215-1.216c-0.24-0.24-0.48-0.376-0.721-0.406H11.113l-0.359,0.271l-0.225,0.135l-0.137,0.09
	l-0.09,0.09h-1.17l-4.008,0.271c-0.6,0.27-0.9,0.524-0.9,0.766v2.972L4,25.382v3.467v1.711l0.09,0.765l0.135,0.136h0.314l1.08-0.225
	l1.441-0.315l1.396-0.225l0.9-0.136h1.172h1.801l1.531,0.314L14.4,30.56c0.15,0,0.24-0.12,0.271-0.36l0.449-2.881h5.898l0.855,0.63
	l1.352,1.215l1.26,1.351l1.711,0.586l3.063,0.496L32.412,32l2.115-0.226l0.631-0.9l0.541-1.711l0.314-1.801l0.045-1.395h0.361
	l0.18-0.091c0.99,0.601,1.875,0.93,2.656,0.991l2.07-0.182l1.352-0.719l0.721-0.586c0.119-0.15,0.449-0.226,0.99-0.226v3.242
	l10.311-1.08v-3.152c0.061-0.091,0.406-0.211,1.037-0.36l2.16-0.586l2.072-0.586l1.125-0.314l8.736,0.09
	c-0.57,0.241-1.066,0.36-1.486,0.36c-0.18-0.21-0.645-0.314-1.396-0.314h-0.135c-0.359,0-0.541,0.179-0.541,0.54
	c-0.24,0.45-0.209,1.02,0.092,1.711l0.584,1.351l0.225,0.226h1.803l0.225-0.676l-0.316-0.314l-0.225-0.136l0.225-0.45H79.42h5.404
	h2.115h0.406l0.225-0.54V24.03l0.09-0.135l0.09-0.36c0-0.511-0.135-0.871-0.404-1.08l-0.496-0.496v-3.062h-3.512v-0.811h47.818
	l0.135-0.225c0.361-0.541,0.541-0.961,0.541-1.261L131.697,16.016z M41.191,25.066H38.67c-0.689,0-1.035-0.376-1.035-1.126
	c0-0.631,0.346-0.945,1.035-0.945h2.521c0.691,0,1.037,0.314,1.037,0.945C42.229,24.69,41.883,25.066,41.191,25.066z"/>
<rect id="sliceCopy_x5F_52_1_" x="135.832" fill="none" width="125.222" height="40"/>
<rect id="sliceCopy_x5F_51_1_" fill="none" width="135.832" height="40"/>
</svg>
