<?xml version="1.0" encoding="utf-8"?>
<!-- Generator: Adobe Illustrator 15.1.0, SVG Export Plug-In  -->
<!DOCTYPE svg PUBLIC "-//W3C//DTD SVG 1.1//EN" "http://www.w3.org/Graphics/SVG/1.1/DTD/svg11.dtd" [
	<!ENTITY ns_flows "http://ns.adobe.com/Flows/1.0/">
]>
<svg version="1.1"
	 xmlns="http://www.w3.org/2000/svg" xmlns:xlink="http://www.w3.org/1999/xlink" xmlns:a="http://ns.adobe.com/AdobeSVGViewerExtensions/3.0/"
	 x="0px" y="0px" width="88px" height="40px" viewBox="0.771 0 88 40" enable-background="new 0.771 0 88 40" xml:space="preserve">
<defs>
</defs>
<path d="M79.674,17.957c-1.666-0.476-3.418-0.873-5.145-1.038c-2.676-0.256-5.332-0.59-8.021-0.59c-3.211,0-6.424,0-9.637,0
	c-0.186,0.782-0.553,0.829-0.709,0c-0.023,0-0.045,0-0.066,0c-0.117,0.833-0.561,0.792-0.711,0c-0.389-0.27-0.6,0.679-1.066,0.679
	c-0.461,0-0.689-0.952-1.066-0.679c-0.121,0.833-0.563,0.792-0.713,0c-0.021,0-0.043,0-0.064,0c-0.025,0.182-0.08,0.679-0.355,0.679
	c-0.232,0-0.322-0.533-0.357-0.679c-0.389-0.263-0.619,0.802-1.184,0.666c-0.301-0.072-0.834-1.16-0.986-0.458
	c-0.178,0.814-0.553,0.307-0.676-0.208c-0.221,0.18-0.389,1.096-0.646,0.377c-0.07-0.198-0.115-0.564-0.451-0.377
	c-0.113,0.263-0.291,0.591-0.594,0.666c-0.354,0.085-0.625-0.205-0.775-0.485c-0.084-0.153-0.334-0.324-0.455-0.094
	c-0.049,0.094-0.215,0.564-0.311,0.593c-0.254,0-0.324-0.515-0.355-0.679c-0.021,0-0.043,0-0.064,0
	c-0.053,0.357-0.373,1.056-0.615,0.377c-0.158-0.445-0.09-0.377-0.551-0.377c-0.686,0-1.373,0-2.061,0
	c-0.502,0-0.803,0.488-1.328,0.341c-0.285-0.08-0.545-0.156-0.814-0.276c-0.293-0.131-0.293-0.097-0.275-0.406
	c0.033-0.533-0.002-1.094,0.172-1.602c0.225-0.659,0.451-1.318,0.676-1.977c0.08-0.23,0.066-1.163-0.145-1.208
	c-0.563-0.123-1.125-0.246-1.688-0.369c-0.332,1.654-0.832,3.468-2.396,4.351c-0.854,0.481-1.865,0.841-2.854,0.808
	c-3.459-0.119-6.92-0.239-10.381-0.358c-2.635-0.091-5.316,0.196-7.949,0.308c-1.492,0.064-2.994,0.282-4.48,0.423
	c-0.629,0.06-1.02-0.482-1.596-0.695c-0.816-0.302-2.094-0.319-2.818,0.235c-0.56,0.428-1.089,0.945-1.327,1.62
	c-0.117,0.336-0.189,0.688-0.236,1.04c-0.035,0.25-0.008,0.737-0.143,0.871c-0.574,0-0.594,1.331-0.115,1.478
	c-0.064-0.02,0.18,0.022,0.176,0.015c0.012,0.234,0.029,0.468,0.053,0.701c0.045,0.424,0.109,0.846,0.203,1.262
	c0.316,1.405,0.982,2.65,2.536,2.854c1.205,0.158,2.207-1.046,3.029-1.778c0.498-0.401,1.018-0.178,1.557-0.042
	c0.861,0.215,1.779,0.256,2.662,0.313c3.48,0.222,6.984,0.222,10.471,0.208c1.1-0.005,2.203-0.008,3.301-0.077
	c0.773-0.048,1.504-0.28,2.273-0.354c0.846-0.082,1.697-0.068,2.543-0.013c0.465,0.031,0.93,0.076,1.393,0.13
	c0.402,0.048,0.736,0.315,1.035,0.58c1.145,1.011,1.219,2.72,0.342,3.945c0.6,0.169,1.199,0.339,1.797,0.508
	c0.283,0.081,0.324-0.478,0.404-0.709c0.457-1.321,0.916-2.643,1.373-3.964c0.045-0.127,0.082-0.218,0.082-0.351
	c0-0.419,0.051-0.342,0.467-0.388c0.426-0.047,0.816-0.455,1.252-0.363c0.297,0.063,0.463,0.221,0.766,0.221
	c0.719,0,1.439,0,2.158,0c0.477,0,0.252-0.086,0.475-0.509c0.283-0.542,0.543,0.294,0.574,0.509c0.021,0,0.043,0,0.064,0
	c0.117-0.815,0.596-0.815,0.711,0c0.275,0.199,0.383-0.2,0.465-0.333c0.158-0.259,0.443-0.395,0.744-0.333
	c0.322,0.066,0.486,0.375,0.57,0.665c0.309,0.196,0.371-0.209,0.439-0.377c0.301-0.744,0.541,0.137,0.66,0.377
	c0.025-0.183,0.08-0.679,0.355-0.679c0.256,0,0.348,0.51,0.389,0.679c0.314,0.213,0.596-0.679,1.035-0.679
	c0.326,0,0.559,0.208,0.682,0.499c0.113,0.271,0.355,0.271,0.422-0.028c0.174-0.791,0.594-0.349,0.676,0.208
	c0.021,0,0.043,0,0.064,0c0.117-0.815,0.594-0.815,0.711,0c0.33,0.241,0.625-0.679,1.066-0.679c0.316,0,0.535,0.234,0.666,0.499
	c0.133,0.263,0.371,0.277,0.439-0.028c0.172-0.791,0.594-0.349,0.674,0.208c0.021,0,0.043,0,0.064,0
	c0.051-0.349,0.398-1.073,0.629-0.377c0.07,0.208-0.021,0.377,0.199,0.377c0.357,0,0.715,0,1.072,0c1.453,0,2.906,0,4.359,0
	c2.76,0,5.506,0.047,8.258-0.142c1.59-0.108,3.225-0.113,4.801-0.346c2.922-0.433,6.234-1.128,8.524-3.134
	C82.792,18.943,81.182,18.389,79.674,17.957z"/>
<rect id="sliceCopy_x5F_14_1_" x="88.001" fill="none" width="88" height="40"/>
<rect id="sliceCopy_x5F_13_1_" fill="none" width="88.001" height="40"/>
</svg>
