<?xml version="1.0" encoding="utf-8"?>
<!-- Generator: Adobe Illustrator 15.1.0, SVG Export Plug-In  -->
<!DOCTYPE svg PUBLIC "-//W3C//DTD SVG 1.1//EN" "http://www.w3.org/Graphics/SVG/1.1/DTD/svg11.dtd" [
	<!ENTITY ns_flows "http://ns.adobe.com/Flows/1.0/">
]>
<svg version="1.1"
	 xmlns="http://www.w3.org/2000/svg" xmlns:xlink="http://www.w3.org/1999/xlink" xmlns:a="http://ns.adobe.com/AdobeSVGViewerExtensions/3.0/"
	 x="0px" y="0px" width="113px" height="40px" viewBox="0.565 0 113 40" enable-background="new 0.565 0 113 40"
	 xml:space="preserve">
<defs>
</defs>
<path d="M67.317,20.894c-0.037-0.009-0.064-0.017-0.084-0.022C67.263,20.878,67.286,20.885,67.317,20.894z M67.931,20.871
	c-0.027,0.007-0.051,0.015-0.084,0.022C67.886,20.885,67.911,20.877,67.931,20.871z M109.155,19.066
	c-0.352,0.696-2.316,0.325-3.229,0.325c-1,0-6.762-0.398-6.795,0.365c-0.434-0.27-0.572-0.287-1.137-0.244
	c-0.514,0.04-0.512,0.223-1.135,0.284c0.266-1.15-3.184-0.568-3.912-0.568c-1.879,0-4.188,0.335-5.988-0.081
	c-0.355,0.846-5.551,0.27-6.557,0.267c-2.807-0.008-5.611-0.015-8.418-0.022c-0.074,0.612,0.166,1.317-0.203,1.582
	c-0.01-0.036,0.004-0.063,0.041-0.082c-0.252,0.071-0.893,0.188-0.893-0.102c0-0.709-0.977,0.148-0.771,0.143
	c-0.445,0.011-0.371-0.208-0.893-0.324c0.332,0.074-0.672,0-0.563,0c-0.535,0-0.371,0.155-0.773,0.263
	c0.238-0.087-0.936-0.087-0.697,0c-0.4-0.109-0.236-0.263-0.771-0.263c0.113,0-0.861,0.078-0.523,0
	c-0.064,0.015-0.9,0.274-0.488,0.365c-0.547-0.12-0.178-0.365-0.816-0.365c-0.033,0-0.521,0.625-0.521,0.143
	c0-0.307-0.582-0.004-0.865,0.107c0.029-0.065-1.146-0.053-0.676,0.035c-0.559-0.104-0.396-0.18-1.014-0.285
	c0.025,0.005-1.301,0.288-1.301,0.143c0-0.039-2.84-0.021-2.84,0c0-0.498-1.947,0.7-1.947,0c0-0.271-0.721,0.174-0.975,0.263
	c-0.662,0.234-1.254,0.269-1.502,0.894c-0.102,0.253-0.057,1.14,0,1.462c0.045,0.254,0.359,0.624,0.365,0.729
	c0.029,0.572,0.018,0.975-0.486,0.975c-0.303,0-0.162,0.813-0.162,1.096c0,0.906,0,1.813,0,2.72c0,1.59-0.277,3.685,0.08,5.112
	c-2.381,0-4.76,0-7.141,0c-0.439,0-0.486-1.551-0.486-2.07c0-0.815,0.256-5.518-0.305-5.518c-0.379,0-0.574,0.322-0.809,0.325
	c-1.543,0.013-3.086,0.023-4.631,0.036c-0.652,0.005-1.154,0.373-1.318,0.977c-0.037,0.14-0.008,0.461-0.041,0.528
	c-0.023,0.05,0.178,0.446,0.082,0.608c-0.084,0.144-0.609,0.045-0.771,0.203c-0.25,0.246-0.357,0.591-0.527,0.892
	c-0.291,0.523-0.732,1.218-0.973,1.786c1.074,1.871-2.852,0.546-3.611,0.324c-0.963-0.28-1.592-0.173-1.338-1.136
	c0.1-0.381,0.477-0.651,0.689-0.975c1.068-1.62,1.861-2.974,2.881-4.504c0.516-0.774,1.299-1.503,0.648-2.435
	c-0.736-1.056-2.58-0.667-3.795-0.68c-1.098-0.012-1.834-0.471-3.014-0.451c-1.398,0.021-2.42-0.093-3.416,0.563
	c-0.324,0.214-0.604,0.554-0.893,0.852c-0.781,0.807-0.896,0.948-1.176,2.028c-0.395,1.516-2.227,0.854-3.852,0.854
	c-1.461,0-2.924,0-4.385,0c-1.113,0-3.482,0.407-4.506,0c-0.203-0.081-0.309-0.486-0.527-0.65c-0.277-0.204,0.35-0.323-0.363-0.323
	c-0.545,0-1.699-0.189-1.951,0.162c-0.197,0.273,0,1.432,0,1.784c0,1.307-0.238,1.063-1.543,1.015
	c0.092,0.529-0.104,0.896-0.729,0.731c0.027,0.026,0.053,0.054,0.08,0.081c-1.656,0.548-0.648-2.093-0.648-2.678
	c0-1.421,0-2.841,0-4.261c0-1.238-0.064-2.46-0.123-3.612c-0.02-0.417-0.121-1.001-0.121-1.278c0-0.345-0.422-0.831,0.029-0.831
	c0.463,0,1.83-0.151,1.393,0.405c0.973,0.115,1.391-0.186,1.662,0.568c0.146,0.403,0,1.128,0,1.563c0,0.473,0,0.946,0,1.419
	c0,0.003,2.557,0.573,2.557-0.263c0-1.594,3.76,0.5,3.977-0.975c0.117-0.796-0.188-0.649-0.928-0.649
	c-1.17,0-2.287,0.335-2.604-0.608c-0.287-0.863-0.234-4.003,0.285-4.382c0.342-0.25,1.041-0.163,1.537-0.163c1.73,0,3.459,0,5.189,0
	c2.037,0,4.264-0.164,6.236-0.07c1.129,0.054,3.521-0.488,3.148,0.923c-0.123,0.459-0.734,0.992-1.016,1.339
	c-0.484,0.597-1.035,1.464-1.664,1.988c-0.332,0.279-0.848,0.759-1.258,0.893c-1.045,0.344-4.592-0.728-4.748,0.569
	c-0.148,1.222,3.82,0.608,4.881,0.608c0.391,0,0.756-0.553,0.963-0.771c0.732-0.773,2.371-3.651,3.477-3.651
	c0.98,0,2.336,0.229,2.934-0.325c0.191-0.177,0.047-0.693,0.244-0.853c0.281-0.226,0.965-0.08,1.295-0.08
	c0.74,0,1.127-0.488,0.234-0.488c-0.096,0-1.18,0.12-1.285,0c-0.301-0.345-0.006-0.771,0.342-0.771c0.822,0,1.795-0.171,2.457-0.202
	c0.398-0.019,0.711,0.02,1.016,0.122c0.348,0.117-0.123,0.405,0.725,0.405c0.523,0,1.592-0.155,1.953,0.081
	c0.152,0.1-0.037,0.706,0.082,0.771c0.766,0.418,2.77,0.04,3.711,0.04c0,0,0.227-2.518,0.063-2.759
	c-0.555-0.826-1.162,0.246-1.82,0.243c-2.299-0.015-4.973,0.292-7.168-0.021c-0.428-0.06-0.225-1.861-0.225-2.332
	c0-0.198-0.125-1.082,0-1.217c0.268-0.288,2.867,0.053,3.213,0.056c1.813,0.011,3.613,0.077,5.188,0.309
	c0.311,0.046,0.811,0.575,0.811-0.243c0-0.734,2.023-0.365,2.635-0.365c0.799,0-0.215,0.771,0.705,0.771
	c0.506,0,1.205,0.132,1.693,0c0.26-0.069-0.217-0.691,0.648-0.487c-0.172-0.44-0.148-0.883,0.324-0.851
	C46.907,6.105,47.196,6,47.921,6c1.254,0,0.678,0.151,0.975,1.015c0.314,0.919,1.357,1.499,2.477,0.975
	c0.195-0.094-0.35-0.487,0.275-0.487c0.705,0,1.408,0,2.113,0c0.928,0,0.035,0.689,1.211,0.689c1.207,0,1.982-0.174,3.055-0.447
	c1.322-0.337,2.668-0.622,4.018-0.892c1.227-0.246,1.674-0.165,3.232-0.176c1.385-0.008,2.768-0.019,4.152-0.027
	c0.805-0.006,0.51,0.107,0.648,0.73c0.199,0.888,0,2.05,0,2.963c0,0.472,0,0.946,0,1.42c0,0.863-0.504,0.567-1.299,0.567
	c-2.088,0-4.455,0.311-6.492-0.122c-0.682-0.144-1.467-0.487-2.148-0.648c-0.758-0.179-1.561-0.43-2.232-0.568
	c-0.82-0.172-1.633-0.122-2.475-0.122c-1.258,0-0.973-0.181-1.178,0.69c-0.184,0.78-0.297,2.232,0.51,2.232c3.084,0,6.17,0,9.254,0
	c1.904,0,3.809,0,5.713,0c0.852,0,0.348-0.132,0.551-0.73c0.127-0.378-0.1-0.599,0.162-0.854c0.332-0.323,1.957-0.081,2.51-0.081
	c0.49,0,0.871,0.135,1.223,0.447c-0.078-1.018,1.133-0.33,1.381,0c0.533,0.703-0.141,1.218,1.271,1.218c1.906,0,3.77,0,5.686,0
	c1.242,0,2.486,0,3.732,0c0.424,0,1.295,0.5,0.387,0.689c0.455,0.444,0.287,0.986,0.287,1.847c0,1.374-0.02,1.277,1.469,1.277
	c2.689,0,5.379,0,8.07,0c0.68,0,0.121-0.406,0.727-0.406c0.154,0,0.988,0.91,1.055,0c0.1,0.099,0.395,0.198,0.527,0.366
	c0.025-0.121,0.002-0.281,0-0.406c1.238,0.646,3.615,0.406,5.461,0.406c0.463,0,0.818,0,1.742,0c0.709,0,3.016-0.354,3.186,0.284
	C109.155,18.142,109.284,18.811,109.155,19.066z M9.819,21.947c0-0.793,0.027-0.73-0.855-0.73c-0.566,0-1.41-0.125-1.701,0.163
	c0,0.748-0.125,1.616,0,2.353c0.129,0.761-0.254,0.853,0.732,0.853c0.74,0,1.432,0.075,1.824-0.244
	C9.71,23.648,9.819,22.729,9.819,21.947z M44.716,24.746c0.008-1.67-1.387-1.992-2.719-1.014c-0.859,0.63-0.803,1.414-0.527,2.354
	c-1.658,0.136-0.199-3.137-1.582-2.719c-0.314,0.737-0.502,2.344,0.445,2.8c0.756,0.364,3.41,0.377,4.018-0.121
	C44.743,25.725,44.714,25.354,44.716,24.746z M51.372,10.869c-0.531-0.528-2.666,0.39-2.68,0.568
	c-0.541-0.012-1.082-0.026-1.623-0.041c-0.063-0.349-2.51-1.034-3.002-0.527c-0.234,0.24-0.041,1.283-0.082,1.705
	c2.461,0.01,4.924,0.026,7.387,0.04C51.372,12.335,51.548,11.046,51.372,10.869z M74.175,13.548c-0.613,0-1.43-0.197-1.662,0.244
	c0.555,0,1.107,0,1.662,0C74.175,13.71,74.175,13.629,74.175,13.548z M63.247,20.858c-0.045,0.017-0.084,0.029-0.109,0.035
	C63.21,20.879,63.241,20.868,63.247,20.858z"/>
<rect id="sliceCopy_x5F_51_1_" x="113.213" fill="none" width="135.832" height="40"/>
<rect id="sliceCopy_x5F_50_1_" fill="none" width="113.213" height="40"/>
</svg>
