<?xml version="1.0" encoding="utf-8"?>
<!-- Generator: Adobe Illustrator 15.1.0, SVG Export Plug-In  -->
<!DOCTYPE svg PUBLIC "-//W3C//DTD SVG 1.1//EN" "http://www.w3.org/Graphics/SVG/1.1/DTD/svg11.dtd" [
	<!ENTITY ns_flows "http://ns.adobe.com/Flows/1.0/">
]>
<svg version="1.1"
	 xmlns="http://www.w3.org/2000/svg" xmlns:xlink="http://www.w3.org/1999/xlink" xmlns:a="http://ns.adobe.com/AdobeSVGViewerExtensions/3.0/"
	 x="0px" y="0px" width="100px" height="40px" viewBox="0.933 0 100 40" enable-background="new 0.933 0 100 40"
	 xml:space="preserve">
<defs>
</defs>
<path d="M46.189,5.703c0.15-0.328,0.387-0.546,0.637-0.796c0.247-0.283,0.619-0.389,1.115-0.318c0.336,0.08,0.688,0.133,1.008,0.265
	c0.184,0.305,0.537,0.292,0.637,0.69c0.099,0.687,0.272,1.313,0.467,1.98c0.132,0.452-0.198,1.417-0.236,1.916
	c-0.104,1.374-0.323,2.792-0.284,4.17h-3.185c-0.066,0.155-0.156,0.296-0.265,0.425c-0.538,0.23-1.387,0.128-1.959,0.148
	c-0.761,0.028-1.526,0.011-2.289,0.011c-1.374,0-2.746-0.106-4.118-0.106c-0.735,0-1.469-0.044-2.193,0.106
	c-1.238,0.233-1.932,0.951-2.809,1.759c-1.108,1.023-0.775,2.491-0.692,3.813l-0.374,0.372v0.105c-1.45,0.58-3.13,1.218-4.697,1.305
	c-0.993,0.056-1.805,0.014-2.791-0.121c-1.11-0.152-2.611-0.581-3.711-0.283l-0.9,0.479c-0.496,0.682-0.644,1.317-0.885,2.131
	c-0.435,1.466-0.87,2.931-1.305,4.395c-0.241,0.81-0.411,1.41-0.411,2.248c0,1.026,0.14,2.053,0.318,3.062
	c0,0.919-0.194,1.574-0.584,1.964c-1.231,0.737-3.044,0.373-4.431,0.373c-1.58,0-3.238,0.268-4.697-0.373l-0.478-0.584
	c-0.062-0.555-0.106-1.086-0.106-1.645c-1.027-0.114-1.805-0.152-2.707-0.638c-0.027-0.152-0.08-0.292-0.159-0.423
	c0.024-0.83-0.178-1.599-0.075-2.423c0.114-0.913,0.386-1.87,0.447-2.777c0.834-1.669,1.569-3.384,2.314-5.095
	c0.435-0.997,0.833-2.02,1.307-2.999c0.638-1.316,1.287-2.355,0.466-3.795c-0.529-1.055-2.408-1.025-3.45-1.22
	c-0.531-0.518-0.332-0.989-0.159-1.592c0.301-0.336,0.934-0.467,1.38-0.531c1.08-1.016,1.661-2.02,2.07-3.449
	C8.273,7.554,8.126,6.838,8.139,6.127C8.21,5.809,8.332,5.614,8.51,5.543c0.764-0.056,1.374,0.139,2.123,0.265
	c0.741-0.318,1.469-0.689,2.282-0.743V4.004c0.617-0.026,1.246,0.094,1.857,0.159c0.177,0.037,0.266,0.107,0.266,0.213l0.159,0.955
	c1.595,0,3.201-0.187,4.792-0.158c0.961,0.017,1.923,0.034,2.885,0.051c0.713,0.013,1.659-0.092,2.352,0.107l0.319,0.478h20.645
	V5.703 M54.576,7.506c-0.062-0.404-0.151-0.812-0.16-1.22c0.105-0.354,0.265-0.549,0.478-0.583c0.755-0.107,1.275,0.078,2.017,0.212
	c0.795-0.161,1.553-0.749,2.388-0.743V4.163c0.617-0.023,1.246,0.096,1.857,0.159c0.359,0.32,0.379,0.72,0.425,1.168
	c3.327,0,6.652-0.056,9.978,0l0.371,0.424h20.538V5.862l0.106-0.213c0.236-0.145,0.464-0.324,0.583-0.583
	c1.13-0.989,2.611,0.047,2.878,1.2c0.157,0.683,0.706,2.297,0.095,2.885c-0.109,1.536-0.256,3.132-0.213,4.67h-3.29l-0.159,0.373
	c-1.137,0.377-2.709,0.159-3.898,0.159c-1.421,0-2.84-0.047-4.259-0.097c-1.725-0.061-3.158,0.035-4.508,1.234
	c-0.623,0.554-1.383,1.108-1.469,2.008c-0.031,0.333-0.089,0.672-0.089,1.007c0,0.339,0.349,1.174,0.107,1.367l-0.373,0.424v0.159
	c-1.65,0.66-3.472,1.186-5.244,1.284c-2.039,0.113-5.019-1.234-6.802,0.042c-0.865,1.059-1.043,2.539-1.42,3.839
	c-0.393,1.352-0.645,2.893-1.233,4.174c-0.02,1.847,0.974,4.174-0.211,5.838c-1.096,0.549-2.428,0.319-3.628,0.319
	c-1.551,0-3.102,0-4.652,0l-0.054-0.106c-0.288-0.051-0.569-0.129-0.85-0.212c-0.425-0.247-0.637-0.778-0.637-1.592
	c0.075-0.224,0.129-0.456,0.158-0.689c-1.015-0.126-1.913-0.153-2.813-0.637v-0.212l-0.106-0.212
	c0.014-0.686-0.181-1.352-0.151-2.054c0.042-1.033,0.307-2,0.575-2.988h0.055c0.453-1.688,1.415-3.405,2.122-5.001
	c0.77-1.739,2.012-3.724,2.283-5.613l-0.478-1.433c-0.512-1.028-2.427-1.099-3.45-1.22c-0.472-0.337-0.509-1.239-0.105-1.645
	c0.275-0.229,0.956-0.521,1.326-0.531C53.956,10.59,54.923,9.364,54.576,7.506 M26.554,14.777c-0.902,0-1.8-0.002-2.701,0.031
	c-0.994,0.036-1.581,0.145-2.5,0.554c-0.354,0.247-0.583,0.531-0.689,0.849c-0.311,0.62-0.08,1.282,0.053,1.91
	c0.302,0.301,0.603,0.601,0.902,0.902c0.816,0.196,1.511,0.673,2.387,0.707c0.762,0.029,1.522,0.06,2.283,0.089
	c2.441-0.388,3.769-0.99,3.98-1.803c0.1-0.75,0.14-1.323-0.266-2.017c-0.247-0.46-0.708-0.866-1.38-1.221h-2.069 M71.08,14.99
	c-0.649,0-1.616-0.161-2.229,0.107h-0.159c-0.635,0.316-1.419,0.573-1.644,1.327c-0.118,0.667-0.284,1.333,0.052,1.963h0.106
	l0.796,0.796c0.806,0.297,1.507,0.726,2.396,0.76c0.775,0.029,1.552,0.06,2.327,0.089c2.441-0.319,3.733-0.938,3.875-1.858
	l0.157-0.743l-0.37-1.274c-0.246-0.46-0.707-0.85-1.379-1.168C73.698,14.99,72.389,14.99,71.08,14.99"/>
<rect id="sliceCopy_x5F_29_1_" x="100.411" fill="none" width="94.576" height="40"/>
<rect id="sliceCopy_x5F_28_1_" fill="none" width="100.411" height="40"/>
</svg>
