<?xml version="1.0" encoding="utf-8"?>
<!-- Generator: Adobe Illustrator 15.1.0, SVG Export Plug-In  -->
<!DOCTYPE svg PUBLIC "-//W3C//DTD SVG 1.1//EN" "http://www.w3.org/Graphics/SVG/1.1/DTD/svg11.dtd" [
	<!ENTITY ns_flows "http://ns.adobe.com/Flows/1.0/">
]>
<svg version="1.1"
	 xmlns="http://www.w3.org/2000/svg" xmlns:xlink="http://www.w3.org/1999/xlink" xmlns:a="http://ns.adobe.com/AdobeSVGViewerExtensions/3.0/"
	 x="0px" y="0px" width="88px" height="40px" viewBox="0.769 0 88 40" enable-background="new 0.769 0 88 40" xml:space="preserve">
<defs>
</defs>
<path d="M75.351,14.06c0.65,0.375,0.224,1.386-0.5,1.024c-0.275-0.138-0.425-0.41-0.566-0.669c-0.198-0.362-0.276-0.49-0.682-0.592
	c0.181,0.202,0.372,0.484,0.326,0.771c-0.07,0.433-0.588,0.6-0.917,0.326c-0.222-0.157-0.455-0.435-0.577-0.678
	c-0.217-0.436-0.248-0.553-0.728-0.655c0.228,0.312,0.327,0.935-0.029,1.185c-0.227,0.125-0.715,0.048-0.917-0.089
	c-0.237-0.16-0.361-0.479-0.499-0.714c-0.195-0.334-0.23-0.494-0.628-0.529c0.206,0.319,0.445,0.806,0.06,1.096
	c-0.281,0.19-0.626,0.003-0.872-0.145c-0.257-0.153-0.382-0.501-0.504-0.762c-0.176-0.375-0.219-0.426-0.639-0.456
	c0.185,0.141,0.395,0.605,0.282,0.83c-0.091,0.18-0.081,0.262-0.276,0.275c-0.236,0.015-0.472,0.031-0.707,0.046
	c-0.315,0.02-0.488-0.46-0.601-0.678c-0.177-0.338-0.268-0.553-0.652-0.592c0.084,0.167,0.335,0.687,0.188,0.851
	c-0.204,0.228-0.479,0.451-0.791,0.235c-0.305-0.212-0.379-0.427-0.581-0.73c-0.243-0.365-0.3-0.578-0.74-0.652
	c0.139,0.237,0.207,0.716,0.127,0.978c-0.12,0.394-0.763,0.343-1.031,0.178c-0.266-0.163-0.361-0.417-0.513-0.687
	c-0.077-0.138-0.16-0.275-0.23-0.417c-0.115-0.231-0.137-0.201-0.397-0.201c0.096,0.21,0.122,0.563-0.01,0.752
	c-0.184,0.266-0.561,0.504-0.861,0.202c-0.293-0.292-0.408-0.728-0.624-1.073c-0.186-0.296-0.652-0.185-0.945-0.136
	c-0.528,0.088-1.087,0.507-1.573,0.75c-1.035,0.518-2.029,0.896-3.195,1.04c-2.778,0.341-5.755,0.023-8.492-0.498
	c-0.989-0.188-1.979-0.376-2.969-0.564c-0.361-0.069-0.723-0.137-1.083-0.206c-0.133-0.025-0.386-0.021-0.497-0.105
	c-0.291-0.218-0.58-0.466-0.916-0.614c-0.22-0.097-0.542,0.007-0.785,0.007c-0.475,0-0.902-0.359-1.352-0.472
	c-0.519-0.128-0.948,0.185-1.377,0.43c-0.177,0.101-0.426-0.043-0.63,0.131c-0.167,0.144-0.347,0.256-0.546,0.349
	c-0.168,0.079-0.523,0.319-0.609,0.105c-0.081-0.205-0.281,0.252-0.4,0.258c0.013-0.075-0.036-0.161-0.029-0.237
	c-0.169-0.03-0.235,0.018-0.252,0.163c-0.013,0.116-0.162,0.239-0.208,0.08c-0.028-0.102-0.251-0.274-0.251-0.107
	c0,0.139,0.009,0.39-0.236,0.309c-0.18-0.06,0.099-0.26-0.213-0.215c-0.147,0.021,0.033,0.293-0.091,0.309
	c-0.322,0.04-0.086-0.151-0.23-0.183c-0.351-0.077-0.116,0.207-0.236,0.267c-0.261,0.13-0.504-0.377-0.504,0.082
	c0,0.069-0.29,0.109-0.304,0.013c-0.023-0.167-0.259-0.217-0.259-0.07c0,0.167-0.1,0.239-0.296,0.183
	c-0.196-0.055,0.086-0.244-0.26-0.157c-0.135,0.034,0.06,0.178-0.185,0.202c-0.239,0.024-0.143-0.178-0.369-0.141
	c-0.122,0.021-0.001,0.179-0.149,0.192c-0.188,0.016-0.375,0.031-0.563,0.047c-0.306,0.025-0.613,0.032-0.919,0.047
	c-0.656,0.032-1.298,0.042-1.954,0.032c-1.316-0.02-2.61-0.175-3.914-0.349c-3.037-0.405-6.049,0.425-8.828,1.597
	c-1.652,0.696-3.226,1.467-4.962,1.921c-0.55,0.144-1.137,0.245-1.703,0.297c-0.744,0.068-1.154,0.192-1.581,0.833
	c-0.346,0.519-0.655,1.044-1.071,1.509c-0.441,0.494-0.892,0.952-1.189,1.547c-0.322,0.645-0.009,1.094,0.405,1.616
	c0.316,0.397,0.657,0.78,0.927,1.212c0.848,1.357,1.696,2.714,2.544,4.071c0.334,0.534,0.901,0.245,1.379,0.059
	c0.533-0.207,0.898-0.988,1.237-1.435c0.533-0.7,1.079-1.453,1.872-1.875c0.581-0.263,1.2-0.3,1.795-0.479
	c0.34-0.102,0.717-0.17,1.032-0.333c0.379-0.197,0.691-0.527,1.011-0.805c0.363-0.316,0.776-0.559,1.243-0.673
	c0.291-0.07,0.678-0.248,0.979-0.223c0.726,0.058,1.377,0.096,2.07,0.313c0.26,0.081,0.556,0.263,0.816,0.306
	c0.399,0.064,0.649-0.17,0.955-0.378c0.575-0.392,1.146-0.925,1.799-1.178c1.277-0.494,3.122,0.346,3.787,1.495
	c0.342,0.59,0.682,1.163,1.064,1.727c0.62,0.914,1.08-0.472,1.248-0.897c0.454-1.149,1.086-2.177,2.347-2.565
	c1.254-0.386,2.302,0.1,3.321,0.757c0.469,0.302,0.843,0.913,1.206,1.336c0.135,0.157,0.171-0.133,0.189,0.21
	c0.007,0.131,0.018,0.262,0.018,0.393c0,0.32,0.054,0.626-0.093,0.913c-0.31,0.601-0.607,1.147-1.06,1.659
	c-0.263,0.299-0.713,0.693-0.713,1.121c0.067,0.284,0.401,0.33,0.63,0.346c0.631,0.047,1.317,0.159,1.946,0.068
	c0.615-0.088,0.914-0.252,1.056-0.86c0.327-1.403,0.646-2.805,0.942-4.215c0.145-0.686,1.368-0.43,1.855-0.427
	c1.615,0.009,3.231,0.018,4.847,0.026c3.274,0.017,6.55,0.035,9.825,0.052c0.222,0.001,0.445-0.011,0.665,0.019
	c0.582,0.077,1.143,0.256,1.603,0.636c0.291,0.214,0.555,0.47,0.747,0.776c0.074,0.118,0.135,0.489,0.23,0.557
	c0.143,0.101,0.706,0.003,0.889,0c0.322-0.006,0.644-0.025,0.965-0.038c0.515-0.02,1.031-0.026,1.545-0.071
	c1.647-0.149,3.292-0.296,4.938-0.445c2.246-0.202,4.508-0.801,6.657-1.461c0.713-0.22,1.426-0.439,2.139-0.659
	c0.364-0.112,0.803-0.15,1.072-0.43c1.074-1.122,2.149-2.244,3.224-3.366c0.904-0.943,1.809-1.887,2.712-2.831
	C81.117,14.79,78.233,14.425,75.351,14.06L75.351,14.06z M38.178,27.241c-0.795,0.693-1.822-0.559-0.955-1.128
	c0.385-0.252,0.943-0.087,1.111,0.343C38.446,26.747,38.288,26.973,38.178,27.241C38.02,27.378,38.178,27.241,38.178,27.241z"/>
<rect id="sliceCopy_x5F_22_1_" x="87.999" fill="none" width="88" height="40"/>
<rect id="sliceCopy_x5F_21_1_" fill="none" width="88" height="40"/>
</svg>
