<?xml version="1.0" encoding="utf-8"?>
<!-- Generator: Adobe Illustrator 15.1.0, SVG Export Plug-In  -->
<!DOCTYPE svg PUBLIC "-//W3C//DTD SVG 1.1//EN" "http://www.w3.org/Graphics/SVG/1.1/DTD/svg11.dtd" [
	<!ENTITY ns_flows "http://ns.adobe.com/Flows/1.0/">
]>
<svg version="1.1"
	 xmlns="http://www.w3.org/2000/svg" xmlns:xlink="http://www.w3.org/1999/xlink" xmlns:a="http://ns.adobe.com/AdobeSVGViewerExtensions/3.0/"
	 x="0px" y="0px" width="103px" height="40px" viewBox="0.707 0 103 40" enable-background="new 0.707 0 103 40"
	 xml:space="preserve">
<defs>
</defs>
<path d="M99.27,14.756c0-1.109,0-2.708,0-3.66c-10.268-0.007-21.047-0.038-31.318-0.044c-5.971-0.003-11.938-0.009-17.908-0.012
	c-1.703-0.001-3.408-0.002-5.113-0.003c-0.492,0-1.629-0.226-1.93-0.112c-0.395-1.529-5.18-0.701-6.264-0.701
	c-3.242,0-6.867-0.436-10.057,0.037c-1.035,0.467-2.201,0.701-3.064,1.145c-0.754,0.389-1.588,0.71-2.326,1.071
	c-0.738,0.361-1.414,0.801-2.104,1.144c-0.594,0.296-1.215,1.017-1.939,1.163c-0.58,0.118-1.229,0.765-1.754,1.053
	c-0.756,0.415-1.73,0.726-2.584,1.034c-1.051,0.379-2.262,0.814-3.436,0.959c-1.441,0.18-2.221-0.393-3.285-0.921
	c-0.322-0.161-0.178-0.37-0.66-0.37c-0.197,0-1.48-0.087-1.48,0.074c0,0.332-0.012,0.666,0,0.997
	c0.035,1.262,0.074,2.524,0.074,3.84c0,1.77-0.52,4.049,0.59,5.315c0.885,1.014,2.09,2.494,3.285,2.955
	c1.658,0.639,1.99,0.131,2.4-0.96c0.209-0.551,0.707-1.315,1.072-1.846c1.686-2.455,4.154-4.688,6.867-5.945
	c0,0.111,0.004,0.222,0,0.333c0.035-0.013,0.072-0.025,0.109-0.037c2.016-0.775,2.471,0.929,3.322,2.178
	c0.502,0.731,0.979,1.319,1.699,1.699c2.334,1.225,5.334,0.611,7.533-0.923c1.539-1.074,3.309-1.975,5.242-2.512
	c0.744-0.206,1.564-0.401,2.398-0.461c0.299-0.021,1.205-0.879,1.775-1.163c0.518-0.258,1.189-0.148,1.762-0.148
	c1.518,0,3.033,0,4.549,0c0.938,0,2.145-0.207,3.066,0c0.102,0.023-0.145,0.402,0.172,0.41c0.559,0.012,1.115,0.022,1.676,0.034
	c-0.053-0.254-0.051-0.443,0.199-0.443c0.85,0,0.305-0.278,0.574-0.369c0.09-0.029,2.77-0.44,2.77-0.111
	c0,1.404,3.613,0.813,4.387,0.812c2.619,0,5.74-0.484,8.316,0c0.494,0.093,0.998,0.475,1.531,0.628c0.258,0.074,0,0.404,0.232,0.409
	c0.582,0.011,1.162,0.022,1.744,0.034c0.131-0.697,6.092-0.268,6.914-0.268c4.262-0.006,8.525-0.014,12.787-0.02
	c1.631-0.003,3.844,0.328,4.963-0.449c0.287-0.2,0.5-0.789,0.813-1.071c0.684-0.617,1.266-0.468,2.398-0.442
	c0-0.789,0-1.575,0-2.363c0-0.376,0-0.99,0-1.366c-1.119-0.05-1.939-0.014-2.391-0.014c-0.445,0-0.234-0.137-0.008-0.615
	C97.633,14.729,98.404,14.756,99.27,14.756z M30.113,23.368c-0.547,0.712-1.691,1.172-2.436,1.403
	c-1.072,0.332-2.473,0.114-3.396-0.479c-0.895-0.571-1.406-2.039-0.223-2.843c0,0.998-0.23,2.658,0.889,2.658
	c-0.195,0,0.664-2.645,0.811-2.99c0.607-0.166,1.406-0.075,2.07-0.075c1.121,0,2.059-0.143,2.471,0.924
	C30.496,22.479,30.422,22.966,30.113,23.368z"/>
<rect id="sliceCopy_x5F_55_1_" x="103.27" fill="none" width="108.338" height="40"/>
<rect id="sliceCopy_x5F_54_1_" fill="none" width="103.27" height="40"/>
</svg>
