<?xml version="1.0" encoding="utf-8"?>
<!-- Generator: Adobe Illustrator 15.1.0, SVG Export Plug-In  -->
<!DOCTYPE svg PUBLIC "-//W3C//DTD SVG 1.1//EN" "http://www.w3.org/Graphics/SVG/1.1/DTD/svg11.dtd" [
	<!ENTITY ns_flows "http://ns.adobe.com/Flows/1.0/">
]>
<svg version="1.1"
	 xmlns="http://www.w3.org/2000/svg" xmlns:xlink="http://www.w3.org/1999/xlink" xmlns:a="http://ns.adobe.com/AdobeSVGViewerExtensions/3.0/"
	 x="0px" y="0px" width="82px" height="40px" viewBox="0.866 0 82 40" enable-background="new 0.866 0 82 40" xml:space="preserve">
<defs>
</defs>
<path d="M53.8,23.734c-0.438,0.659-0.258,1.709-0.24,2.46c0.002,0.06-0.016,0.598,0.037,0.598c0.381,0,0.762,0,1.145,0
	c0.082,0,0.633-0.046,0.633,0.038c0,0.187-0.104,0.832,0.082,0.884c0.975,0.28,1.463,1.165,2.625,0.72
	c1.367-0.522,1.93-1.767,1.219-3.074c-0.455-0.833-1.355-1.137-1.902-1.898c-0.355-0.498-0.434-0.672-1.131-0.57
	C55.407,23.02,54.421,23.026,53.8,23.734 M43.317,25.128c0-0.72-0.283-2.204-1.158-2.204c-1.131,0-2.262,0-3.395,0
	c-0.555,0-1.109,0-1.664,0c-0.188,0-0.535-0.071-0.711,0c-0.33,0.131-0.711,0.674-0.965,0.916c-0.309,0.293-0.725,0.586-0.969,0.943
	c-0.285,0.412-0.082,1.101-0.047,1.56c0,0.99,0.299,1.815,1.111,2.404c1.275,0.923,2.176,0.38,3.469-0.101
	C40.382,28.128,43.317,26.892,43.317,25.128 M64.821,13.927c0.303-0.454-0.605-0.54-0.811-0.54c-0.654,0-1.305,0-1.959,0
	c-1.375,0-2.754,0-4.129,0c-2.045,0-4.107-0.2-6.148-0.316c0,0.158-0.033,1.35,0.029,1.35c0.342,0,0.684,0,1.025,0
	c1.555,0,3.111,0,4.666,0c1.713,0,3.424,0,5.137,0c0.545,0,1.092,0,1.637,0C64.745,14.422,64.599,14.373,64.821,13.927
	 M66.396,13.206c-0.537,0-0.721-0.147-0.721,0.428c0,0.266-0.094,0.415,0.182,0.45c0.256,0.032,0.652,0.225,0.521,0.561
	c-0.135,0.353-0.441,0.669-0.412,1.019c0.049,0.601,0.098,1.203,0.146,1.804c0.02,0.246,0.553,0.244,0.553,0.053
	c0-0.546,0-1.092,0-1.638C66.665,15.349,66.979,13.565,66.396,13.206 M78.091,17.93c0.695,0.585,1.059,3.123-0.105,3.396
	c-0.693,0.164-1.555,0.023-2.256,0.023c-1.107,0-2.215,0-3.322,0c-0.27,0-0.541,0-0.811,0c-0.111,0-0.16-0.269-0.252-0.271
	c-0.113-0.002-0.373,0.245-0.449,0.315c0.391,0.449,0.873,0.908,1.045,1.495c0.131,0.443-0.057,1.046-0.113,1.486
	c-0.123,0.988-0.234,1.968-0.316,2.959c-0.037,0.433,0.018,1.023-0.121,1.438c-0.16,0.476-0.535,0.451-0.975,0.451
	c-0.914,0-2.436,0.438-2.654-0.709c-0.182-0.958-0.119-1.906-0.348-2.861c-0.137-0.581-2.313-0.329-2.744-0.301
	c-0.322,0.021-0.775,0.856-0.799,1.098c-0.059,0.629-0.117,1.258-0.174,1.887c-0.166,1.789-1,3.62-2.43,4.752
	c-1.322,1.048-3.074,1.568-4.74,1.666c-0.682,0.04-1.361,0.081-2.043,0.12c-0.355,0.021-0.809,0.13-1.156,0.029
	c-0.521-0.152-1.014-0.08-0.967-0.687c0.029-0.398,0.201-0.83,0.293-1.217c0.158-0.655,0.318-1.31,0.475-1.965
	c0.078-0.325,0.285-0.748,0.158-1.07c-0.344-0.865-2.014-0.559-2.836-0.586c-0.604-0.021-0.738,0.061-1.076,0.567
	c-0.24,0.358-0.766,0.679-1.107,0.942c-2.471,1.897-5.5,3.983-8.701,4.092c-1.91,0.064-3.938-0.012-5.84-0.191
	c-0.621-0.058-1.244-0.117-1.867-0.175c-0.596-0.057-0.385-0.464-0.402-1.03c-0.012-0.409,0.07-0.459-0.281-0.591
	c-0.52-0.194-1.037-0.389-1.557-0.581c-1.268-0.474-2.533-0.948-3.801-1.421c-0.195-0.073-0.451-0.228-0.662-0.238
	c-0.139-0.005-1.367-0.158-1.426-0.054c-0.283,0.495-0.701,1.181-1.34,1.181c-0.768,0-1.533,0-2.301,0c-4.895,0-9.787,0-14.682,0
	c-1.689,0-1.227-3.19-1.227-4.275c0-1.95,0.018-3.898-0.016-5.848c-0.039-2.168-0.078-4.334-0.162-6.502
	c-0.037-0.893,0.348-0.92,0.975-0.92c0.797,0,1.594,0,2.391,0c5.424,0,10.848,0,16.271,0c1.195,0,2.529,0.17,3.713-0.042
	c1.516-0.271,2.908-0.363,4.441-0.363c4.695,0,9.391,0,14.088,0c0.266,0,0.037-1.702,0.168-2.009c0.418-0.99,0.82-1.98,1.201-2.984
	c0.215-0.566,0.367-0.948,0.982-1.203c0.602-0.251,0.424-1.083,0.584-1.686c0.199-0.738,1.281-1.597,1.744-0.576
	c0.205,0.435,0.178,0.976,0.178,1.439c0,0.2,0.053,0.483,0,0.675c-0.023,0.09-0.225,0.178-0.225,0.394
	c0,0.177-0.113,0.957,0.082,0.957c0.789,0,1.58,0,2.367,0c2.768,0,5.531,0,8.299,0c0.672,0,1.344,0,2.016,0
	c0.299,0,0.867-0.497,1.121-0.646c0.533-0.31,0.961-0.291,0.961-0.974c0-0.543-0.172-0.135-0.27-0.36c-0.074-0.172,0-0.542,0-0.729
	c0-0.406,0.262-0.896,0.756-0.938c0.314-0.028,1.131-0.295,1.186,0.201c0.059,0.528,0.037,1.059,0.037,1.59
	c0,0.507,0.035,0.863,0.168,1.354c0.16,0.607,0.281,0.726,0.852,0.726c0.455,0,0.619-0.077,0.912,0.24
	c0.459,0.496,0.918,0.991,1.377,1.486c0.648,0.697,1.551,1.362,1.551,2.387c0,1.266,0,2.532,0,3.798
	c0,0.182-0.125,0.861,0.104,0.861c0.645,0,1.287,0,1.932,0C75.339,17.93,76.716,17.93,78.091,17.93"/>
<rect id="sliceCopy_x5F_41_1_" x="82.738" fill="none" width="136.197" height="40"/>
<rect id="sliceCopy_x5F_40_1_" fill="none" width="82.738" height="40"/>
</svg>
