<?xml version="1.0" encoding="utf-8"?>
<!-- Generator: Adobe Illustrator 15.1.0, SVG Export Plug-In  -->
<!DOCTYPE svg PUBLIC "-//W3C//DTD SVG 1.1//EN" "http://www.w3.org/Graphics/SVG/1.1/DTD/svg11.dtd" [
	<!ENTITY ns_flows "http://ns.adobe.com/Flows/1.0/">
]>
<svg version="1.1"
	 xmlns="http://www.w3.org/2000/svg" xmlns:xlink="http://www.w3.org/1999/xlink" xmlns:a="http://ns.adobe.com/AdobeSVGViewerExtensions/3.0/"
	 x="0px" y="0px" width="20px" height="40px" viewBox="0.914 0 20 40" enable-background="new 0.914 0 20 40" xml:space="preserve">
<defs>
</defs>
<path d="M13.512,6.782c0.186,0.529,0.41,1.06,0.617,1.605c0.073,0.193,0.21,0.581,0.391,0.761c0.186,0.185,0.102,0.724,0.29,0.905
	c0.381,0.375,0.235,1.183,0.616,1.563c0.171,0.17,0.219,0.605,0.348,0.844c0.038,0.068,0.29,0.304,0.29,0.425
	c0,0.313,0.005,0.486,0.122,0.726c0.173,0.356,0.389,0.523,0.494,0.988c0.144,0.635,0.084,1.48,0.084,2.198c0,1.427,0,2.853,0,4.279
	c0,2.839,0,5.678,0,8.518c0,0.563,0.059,0.987-0.33,1.255c-0.104,0.071-0.105,0.082-0.328,0.082c-0.334,0-0.29,0.009-0.29-0.33
	c0-0.365,0.248-0.426,0.248-0.636c0-1.425,0-2.851,0-4.275c0-2.866,0-5.733,0-8.599c0-0.611,0.212-1.678,0-2.245
	c-0.059-0.155-0.401-0.516-0.494-0.658c-0.171-0.266-0.294-0.587-0.494-0.823c-0.196-0.232-0.348-0.588-0.618-0.781
	c0,3.782,0,7.563,0,11.344c0,2.31,0,4.619,0,6.93c0,0.554,0,1.108,0,1.663c0,0.214-0.067,0.107-0.246,0.242
	c-0.588,0.444-1.477,0.698-2.2,0.849c-2.19,0.457-4.218,0.645-6.371-0.197c-0.329-0.13-1.548-0.519-1.548-0.928
	c0-0.578,0-1.155,0-1.734c0-4.896,0-9.793,0-14.69c0-1.172,0.022-2.349,0-3.52c-0.537-1.074,1.422-0.988,1.931-1.077
	c0.25-0.044,1.072-0.058,1.072-0.308c0-0.429,0.246-0.656,0.246-1.051c0-0.513,0-1.025,0-1.538c0-0.075-0.942-0.06-1.026-0.06
	c-0.175,0,0.183-1.571,0.656-1.728c0.229-0.075,0.612,0,0.854,0c0.658,0,1.317,0,1.978,0c0.273,0,2.297-0.207,2.229,0.247
	C12.205,6.684,12.514,6.114,12.814,6c0.047,0.027,0.364-0.005,0.41,0.041c0.076,0.076-0.05,0.356,0,0.454
	C13.313,6.669,13.542,6.495,13.512,6.782 M8.124,15.092c-1.668,1.459-2.443,3.85-2.383,6.018c0.057,2.044,0.773,4.496,3.207,4.637
	c-1.777-1.101-1.617-3.839-0.043-5.019c-0.322,0.908,0.155,1.776,0.777,2.425c0.312,0.326,1.866,1.955,1.155,2.428
	c1.1,0.425,2.086-1.626,2.223-2.385c0.198-1.295-0.136-2.542-0.866-3.605c-1.201-1.746-3.429-4.28-1.727-6.391
	C9.687,13.831,8.905,14.461,8.124,15.092 M14.047,27.064c0-0.041,0-0.083,0-0.123c-0.802,0.085-1.604,0.17-2.406,0.255
	c-0.697,0.074-1.547,0.309-2.249,0.236c-1.615-0.164-3.232-0.328-4.847-0.492c0,0.342,0,0.684,0,1.028
	c0,0.304-0.101,0.48,0.229,0.522c1.532,0.19,3.067,0.382,4.601,0.575c0.412,0.051,0.883-0.086,1.289-0.136
	c0.909-0.115,1.819-0.23,2.729-0.344c0.644-0.081,0.654,0.002,0.654-0.659C14.047,27.64,14.047,27.353,14.047,27.064"/>
<rect id="sliceCopy_x5F_10_1_" x="20.777" fill="none" width="28.367" height="40"/>
<rect id="sliceCopy_x5F_9_1_" fill="none" width="20.776" height="40"/>
</svg>
