<?xml version="1.0" encoding="utf-8"?>
<!-- Generator: Adobe Illustrator 15.1.0, SVG Export Plug-In  -->
<!DOCTYPE svg PUBLIC "-//W3C//DTD SVG 1.1//EN" "http://www.w3.org/Graphics/SVG/1.1/DTD/svg11.dtd" [
	<!ENTITY ns_flows "http://ns.adobe.com/Flows/1.0/">
]>
<svg version="1.1"
	 xmlns="http://www.w3.org/2000/svg" xmlns:xlink="http://www.w3.org/1999/xlink" xmlns:a="http://ns.adobe.com/AdobeSVGViewerExtensions/3.0/"
	 x="0px" y="0px" width="88px" height="40px" viewBox="0.77 0 88 40" enable-background="new 0.77 0 88 40" xml:space="preserve">
<defs>
</defs>
<path d="M81.523,17.321c0.83-0.059,1.65-0.207,2.477-0.31c-1.496,1.853-2.959,3.775-4.885,5.212
	c-1.383,1.032-3.055,1.711-4.693,2.218c-1.012,0.313-2.045,0.607-3.104,0.696c-2.861,0.241-5.773,0.68-8.646,0.68
	c-3.883,0-7.768,0-11.65,0c-0.732,0-1.461,0-2.191,0c-0.168,0-0.828,0.087-0.98-0.034c-0.123-0.101-0.271-0.788-0.344-0.964
	c-0.285-0.683-0.67-1.262-1.326-1.648c-1.615-0.956-3.736-0.243-4.92,1.059c-0.563,0.619-1.559,2.116-1.021,2.991
	c0.201,0.327,0.693,0.345,1.014,0.52c0.256,0.139,0.373,0.508,0.275,0.788c-0.139,0.403-0.604,0.458-0.969,0.419
	c-1.482-0.191-2.406-1.377-2.406-2.807c0-0.807,0.066-1.643-0.029-2.444c-0.1-0.846-0.881-0.528-1.5-0.438
	c-1.002,0.146-2.006,0.293-3.008,0.439c-1.176,0.172-2.385,0.188-3.57,0.267c-2.967,0.197-5.889,0.482-8.857,0.338
	c-3.246-0.157-6.498-0.26-9.734-0.566c-0.955-0.09-1.912-0.181-2.867-0.271c-1.076-0.103-1.572,0.72-2.07,1.517
	c-0.277,0.442-0.719,0.957-1.24,0.45c-0.326-0.316-0.32-0.86-0.357-1.282c-0.072-0.842-0.086-1.688-0.094-2.529
	c-0.17-0.426-0.605-0.644-0.74-1.118c-0.217-0.77-0.01-1.694,0.596-2.239c0.281-0.254,0.164-0.924,0.182-1.308
	c0.018-0.416,0.041-0.832,0.08-1.247c0.037-0.389,0.043-0.849,0.332-1.146c0.578-0.594,1.047,0.154,1.334,0.598
	c0.527,0.817,1.059,1.47,2.109,1.37c1-0.095,2-0.189,3-0.284c3.223-0.304,6.463-0.41,9.697-0.579
	c2.971-0.154,5.916,0.162,8.887,0.358c1.16,0.077,2.332,0.106,3.484,0.275c1.021,0.149,2.043,0.298,3.063,0.448
	c0.279,0.04,0.557,0.081,0.834,0.121c0.414,0.061,0.436-0.521,0.465-0.758c0.098-0.777,0.004-1.619,0.004-2.402
	c0-1.396,1.297-2.85,2.797-2.649c0.75,0.1,0.738,0.908,0.191,1.257c-0.391,0.248-0.877,0.162-1.004,0.723
	c-0.158,0.701,0.137,1.686,0.561,2.25c0.1,0.125,0.316,0.234,0.379,0.379c0.072,0.166,0,0.519,0,0.7c0,0.38,0.791,0.194,1.107,0.194
	c0.996,0,1.992,0,2.988,0c1.746,0,3.492,0,5.236,0c2.977,0,5.986,0.34,8.949,0.588c3.016,0.253,6.037,0.347,9.059,0.48
	c1.711,0.075,3.42,0.151,5.131,0.227c1.16,0.052,2.359-0.137,3.516-0.219C78.548,17.534,80.037,17.426,81.523,17.321z"/>
<rect id="sliceCopy_x5F_12_1_" x="88" fill="none" width="88" height="40"/>
<rect id="sliceCopy_x5F_11_1_" fill="none" width="88" height="40"/>
</svg>
