<?xml version="1.0" encoding="utf-8"?>
<!-- Generator: Adobe Illustrator 15.1.0, SVG Export Plug-In  -->
<!DOCTYPE svg PUBLIC "-//W3C//DTD SVG 1.1//EN" "http://www.w3.org/Graphics/SVG/1.1/DTD/svg11.dtd" [
	<!ENTITY ns_flows "http://ns.adobe.com/Flows/1.0/">
]>
<svg version="1.1"
	 xmlns="http://www.w3.org/2000/svg" xmlns:xlink="http://www.w3.org/1999/xlink" xmlns:a="http://ns.adobe.com/AdobeSVGViewerExtensions/3.0/"
	 x="0px" y="0px" width="50px" height="40px" viewBox="0.104 0 50 40" enable-background="new 0.104 0 50 40" xml:space="preserve">
<defs>
</defs>
<path d="M45.953,6.063c0.016-0.2,0.158-0.843-0.018-1c-0.262-0.234-0.563,0.109-0.469-0.422c0.162-0.781-1.193-0.643-1.623-0.612
	c-1.141,0.083-2.285,0.043-3.43,0.039c-3.064-0.012-6.131-0.023-9.197-0.036c0,0.324,0.164,1.146-0.027,1.427
	c-0.143,0.209-0.961,0.072-1.156,0.072c-1.229,0-2.457,0-3.688,0c-0.498,0-1.051,0.238-1.041-0.371
	c0.002-0.196,0.072-0.58-0.229-0.573c-0.15,0.004-0.604,0.148-0.58-0.145c0.039-0.52-0.215-0.365-0.701-0.366
	C18.689,4.061,13.584,4.047,8.48,4.032c0,0.281,0,0.563,0,0.844C8.043,4.859,7.605,4.844,7.168,4.829
	c0,0.665-0.705,0.998-0.984,1.594c-0.236,0.501-0.641,1.074-0.939,1.6C4.992,8.466,4.836,9.134,4.885,9.64
	c0.051,0.549-0.02,0.54-0.416,0.807c-0.244,0.165-0.164,1.037-0.227,1.334c-0.076,0.364-0.102,0.865-0.041,1.231
	c0.055,0.329,0.201,0.207,0.42,0.333c0.107,0.062,0.074,0.206,0.184,0.277c0.361,0.232,0.906,0.27,1.297,0.46
	c0.926,0.453,1.893,1.212,2.52,2.043c0.328,0.432-0.031,0.683,0.004,1.173c0.029,0.368-0.332,0.676-0.332,0.937
	c0,0.291-0.387,1.043-0.529,1.292c-0.096,0.176-0.459,0.709-0.447,0.865c0.01,0.169-0.391,1.01-0.5,1.166
	c-0.217,0.306-0.363,0.817-0.492,1.175c-0.242,0.67-0.611,1.379-0.984,2.062c-0.148,0.27-0.24,0.723-0.35,1.026
	c-0.137,0.385-0.148,0.786-0.283,1.174c-0.293,0.845-0.443,1.887-0.477,2.774c-0.01,0.244-0.217,0.275-0.221,0.522
	c-0.004,0.224,0.018,0.452,0.018,0.674C4.027,31.557,4,32.151,4,32.743c0,1.296,2.09,0.281,2.781,0.661
	c0.264,0.145-0.055,0.626,0.434,0.788c0.342,0.113,0.734,0.099,1.057,0.272c0.623,0.337,1.686,0.557,2.398,0.624
	c1.34,0.123,2.707,0.257,4.018,0.587C15.201,35.803,15.473,36,16.014,36c0.525,0,1.041-0.094,1.561-0.094
	c0.324,0,0.938,0.286,0.938-0.27c0-0.201-0.861-0.411-1.004-0.582c-0.537-0.646-0.799-2.336-0.449-3.098
	c0.197-0.43,0.273-1.12,0.365-1.593c0.088-0.458,0.359-0.827,0.461-1.273c0.18-0.788,0.51-1.419,0.744-2.209
	c0.197-0.665,0.529-1.3,0.633-1.99c0.08-0.537,0.354-1.216,0.322-1.746c-0.025-0.437,0.146-1.09,0.23-1.526
	c0.068-0.351,0.221-0.428,0.564-0.432c2.957-0.026,5.916,0,8.871,0c1.266,0,2.529-0.019,3.793,0.037
	c0.135,0.005,0.797,0.074,0.797-0.177c0-0.419,0.285-0.999-0.139-1.237c-0.227-0.127-0.047-1.873-0.047-2.165
	c0-0.459-0.055-0.917-0.059-1.377c-0.01-0.85,0.273-1.136,0.857-1.692c0.313-0.299,1.496-0.091,1.934-0.091c0.734,0,1.471,0,2.205,0
	c1.441,0,2.885,0,4.326,0c0.461,0,2.92,0.335,3.004-0.256c0.189-1.305,0.014-2.761,0.014-4.081
	C45.936,8.797,45.844,7.41,45.953,6.063z M11.762,35.064c0.135-0.009,0.268,0.063,0.328,0.094
	C11.975,35.133,11.867,35.118,11.762,35.064z M32.818,19.558c-0.066,0.439-0.432,0.248-0.805,0.225c0,0.728-0.125,0.61-0.854,0.61
	c-0.941,0-1.883,0-2.824,0c-1.672,0-3.357-0.068-5.025,0.047c-0.82,0.057-0.574-0.582-0.617-1.176
	c-0.041-0.575-0.428-1.044-0.469-1.63c-0.041-0.582,0.459-1.025,0.459-1.579c0-0.498,0.645-0.76,0.846-1.148
	c0.205-0.221,0.918-0.57,1.213-0.469c0.547,0.188,0.188,1.837,0.146,2.25c-0.08,0.791,0.535,1.082,0.924,1.655
	c0.402,0.587,0.854,0.821,1.479,1.14c0.457,0.233,1.064,0.192,1.564,0.165c0.314-0.017,0.455-0.67,0.23-0.792
	c-0.086-0.046-0.637,0.076-0.637-0.059c0-0.017-0.447-0.202-0.475-0.216c-0.504-0.245-0.992-0.568-1.342-1.013
	c-0.504-0.639-0.338-1.551-0.338-2.31c0-0.299,0.209-0.761,0.512-0.822c1.102-0.227,2.328,0.067,3.451,0.017
	c0.723-0.032,1.342-0.013,1.844,0.541c0.188,0.206,0.762,0.412,0.76,0.604c-0.008,0.913-0.01,1.827,0.006,2.74
	C32.875,18.744,32.879,19.155,32.818,19.558z"/>
<rect id="sliceCopy_x5F_26_1_" x="50.022" fill="none" width="59.346" height="40"/>
<rect id="sliceCopy_x5F_25_1_" fill="none" width="50.022" height="40"/>
</svg>
