<?xml version="1.0" encoding="utf-8"?>
<!-- Generator: Adobe Illustrator 15.1.0, SVG Export Plug-In  -->
<!DOCTYPE svg PUBLIC "-//W3C//DTD SVG 1.1//EN" "http://www.w3.org/Graphics/SVG/1.1/DTD/svg11.dtd" [
	<!ENTITY ns_flows "http://ns.adobe.com/Flows/1.0/">
]>
<svg version="1.1"
	 xmlns="http://www.w3.org/2000/svg" xmlns:xlink="http://www.w3.org/1999/xlink" xmlns:a="http://ns.adobe.com/AdobeSVGViewerExtensions/3.0/"
	 x="0px" y="0px" width="53px" height="40px" viewBox="0.058 0 53 40" enable-background="new 0.058 0 53 40" xml:space="preserve">
<defs>
</defs>
<path d="M23.898,15.073h-3.27c-0.43,0-0.645,0.215-0.645,0.645v1.843c0,0.46,0.215,0.69,0.645,0.69c1.09,0,2.424,0.211,3.316-0.553
	C24.322,17.351,25.113,15.073,23.898,15.073 M48.03,7.89l0.324,0.138c-0.164,2.292-0.609,4.586-0.922,6.861
	c-0.271,1.161-2.057,1.371-3.016,1.636c-0.76,0.208-1.773,0.653-2.572,0.668c-0.666,0.012-5.881-0.247-5.881,0.46
	c0,0.589,0.346,2.973-0.643,2.903c-1.518-0.271-3.095-0.141-4.634-0.141c-1.547,0-3.016-0.062-4.531,0.23
	c-0.254-0.186-0.396-0.472-0.369-0.783c-0.461,0.736-0.92,1.105-1.381,1.105h-4.561c-0.873,0-1.07,1.418-1.387,2.077
	c-0.707,1.474-1.063,3.009-1.445,4.591c-0.668,2.753-0.988,5.048-0.621,7.886c0,0.821-1.033,0.312-1.527,0.38
	c-0.422,0.058-0.791,0.149-1.207,0.063c-1.195-0.25-2.393-0.501-3.588-0.751c-0.945-0.198-1.881-0.476-2.816-0.714
	c-1.094-0.279-2.764-0.429-3.111-1.742c-0.459-1.458,0.307-3.41,0.654-4.86c0.35-1.449,0.693-2.901,1.051-4.35
	c0.637-2.582,1.498-5.112,2.072-7.691c0.094-1.422-1.553-1.975-2.229-2.945c-0.543-0.777-0.26-2.394-0.26-3.271
	c0-1.045-0.191-2.389,0.15-3.398C5.889,5.33,6.969,4.643,7.689,4.066c0.609,0.089,2.219,0.011,2.625,0.553
	c0.723,0.289,1.596,0.428,2.395,0.507c1.746,0.174,3.457,0.118,5.203,0.369l0.23,0.552c1.785-0.453,3.654-0.276,5.506-0.276
	c1.738,0,3.445-0.145,5.133,0.276c-0.063-0.123-0.078-0.276-0.047-0.46c0.031-0.215,0.291-0.369,0.781-0.461l0.785,0.139
	c0.229-0.229,0.627-1.176,0.828-1.244c1.221-0.076,1.754,0.055,2.901,0.461c0.406,0.144,1,0.458,1.428,0.461
	c0.426,0.002,0.828-0.262,1.289-0.23c1.107,0.072,2.271,0.465,3.359,0.688c0.611,0.125,1.088,0.389,1.615,0.739
	c0.438,0.136,1.107,0.066,1.566,0.093c0.168,0.11,0.26,0.265,0.275,0.46c1.051,0.287,1.914,0.546,2.855,1.06
	C47.091,7.553,47.362,7.655,48.03,7.89"/>
<rect id="sliceCopy_x5F_34_1_" x="52.354" fill="none" width="83.251" height="40"/>
<rect id="sliceCopy_x5F_33_1_" fill="none" width="52.354" height="40"/>
</svg>
