<?xml version="1.0" encoding="utf-8"?>
<!-- Generator: Adobe Illustrator 15.1.0, SVG Export Plug-In  -->
<!DOCTYPE svg PUBLIC "-//W3C//DTD SVG 1.1//EN" "http://www.w3.org/Graphics/SVG/1.1/DTD/svg11.dtd" [
	<!ENTITY ns_flows "http://ns.adobe.com/Flows/1.0/">
]>
<svg version="1.1"
	 xmlns="http://www.w3.org/2000/svg" xmlns:xlink="http://www.w3.org/1999/xlink" xmlns:a="http://ns.adobe.com/AdobeSVGViewerExtensions/3.0/"
	 x="0px" y="0px" width="50px" height="40px" viewBox="0.566 0 50 40" enable-background="new 0.566 0 50 40" xml:space="preserve">
<defs>
</defs>
<path d="M46.436,8.843c-0.043-0.794-0.086-1.587-0.131-2.381c-0.029-0.54,0.066-1.193-0.457-1.521
	c-0.615-0.342-1.129-0.253-1.838-0.25c-1.301,0.005-2.602,0.01-3.902,0.014c-2.701,0.01-5.402,0.02-8.104,0.03
	c-0.203,0.001-0.406,0.001-0.608,0.002c-0.02,0,0.014,0.46-0.014,0.46c-0.129,0-0.258,0-0.386,0c-1.371,0-2.74,0-4.109,0
	c-0.5,0-0.999,0-1.498,0c-0.24,0,0.078-0.46-0.139-0.46c-0.762,0-1.524,0-2.286,0c-3.116,0-6.233,0-9.351,0
	c-0.778,0-1.556,0-2.333,0c-0.102,0-0.137-0.495-0.221-0.562c-0.123-0.099-0.613-0.061-0.766-0.077
	c-0.166-0.016-0.612-0.146-0.767-0.077c-0.213,0.097-0.255,0.55-0.46,0.665c-0.479,0.269-1.21-0.124-1.712,0.127
	c-0.5,0.25-0.987,0.906-1.302,1.354C5.498,6.957,4.588,8.147,4.435,9.12c-0.182,1.155-0.402,3.243,0.547,4.096
	c0.854,0.769,2.12,0.867,3.068,1.467c1.068,0.673,1.262,1.242,0.983,2.445c-0.16,0.685-0.389,1.33-0.65,1.979
	c-0.542,1.346-1.113,2.659-1.709,3.981c-0.743,1.648-1.292,3.315-1.8,5.041c-0.441,1.497-0.979,3.061-0.856,4.646
	c0.062,0.807,0.8,0.721,1.454,0.852c1.389,0.276,2.777,0.556,4.166,0.832c2.536,0.508,5.071,1.015,7.605,1.522
	c0.473,0.094,2.6-0.147,1.449-0.867c-0.281-0.176-1.184-0.527-1.205-0.867c-0.042-0.65-0.085-1.299-0.127-1.95
	c-0.059-0.902-0.209-1.717,0.061-2.581c0.525-1.688,1.155-3.345,1.767-5c0.151-0.413,1.155-3.689,1.403-3.683
	c0.402,0.012,0.806,0.024,1.209,0.036c1.541,0.045,3.081,0.091,4.622,0.136c2.031,0.059,4.083-0.154,6.086-0.487
	c0.434-0.073,1.516-0.053,1.414-0.687c-0.08-0.502-0.168-1.003-0.225-1.509c-0.086-0.786-0.211-1.582-0.203-2.376
	c0.008-1.026,0.576-1.373,1.504-1.585c0.76-0.175,1.701-0.04,2.475-0.051c1.627-0.024,3.256-0.048,4.885-0.072
	c1.027-0.015,2.057-0.031,3.086-0.046c1.01-0.014,0.969-1.587,0.979-2.25C46.436,11.045,46.496,9.939,46.436,8.843z M32.582,18.252
	c-0.031,0.516,0.094,1.227-0.477,1.504c-0.39,0.191-1.087,0.086-1.509,0.058c-1.131-0.077-2.219-0.12-3.347,0.008
	c-1.347,0.153-4.798,0.486-4.798-1.492c0-0.892-0.104-1.819,0.51-2.559c0.66-0.711,1.421-0.664,2.298-0.616
	c0.146,0.007,0.228,1.491,0.253,1.71c0.08,0.681,1.198,1.454,1.75,1.777c0.549,0.319,1.051,0.699,1.728,0.472
	c0.709-0.239-0.407-0.511-0.527-0.55c-0.348-0.111-0.625-0.292-0.837-0.58c-0.42-0.565-1.074-1.205-1.166-1.934
	c-0.122-0.97,0.112-0.893,0.864-0.885c1.254,0.015,2.506,0.028,3.76,0.042c0.121-0.328,0.992,0.432,1.123,0.615
	C32.629,16.542,32.635,17.445,32.582,18.252z"/>
<rect id="sliceCopy_x5F_25_1_" x="50.462" fill="none" width="50.022" height="40"/>
<rect id="sliceCopy_x5F_24_1_" fill="none" width="50.463" height="40"/>
</svg>
