<?xml version="1.0" encoding="utf-8"?>
<!-- Generator: Adobe Illustrator 15.1.0, SVG Export Plug-In  -->
<!DOCTYPE svg PUBLIC "-//W3C//DTD SVG 1.1//EN" "http://www.w3.org/Graphics/SVG/1.1/DTD/svg11.dtd" [
	<!ENTITY ns_flows "http://ns.adobe.com/Flows/1.0/">
]>
<svg version="1.1"
	 xmlns="http://www.w3.org/2000/svg" xmlns:xlink="http://www.w3.org/1999/xlink" xmlns:a="http://ns.adobe.com/AdobeSVGViewerExtensions/3.0/"
	 x="0px" y="0px" width="84px" height="40px" viewBox="0.769 0 84 40" enable-background="new 0.769 0 84 40" xml:space="preserve">
<defs>
</defs>
<path d="M78.014,17.543c-3.205-1.368-6.578-2.345-9.939-3.251c-0.588-0.158-1.015-0.275-1.5,0.163
	c-0.313,0.279,0.337,0.461,0.496,0.516c0.294,0.102,0.597,0.189,0.881,0.319c0.643,0.296,1.276,0.533,1.82,0.984
	c0.288,0.237,0.464,0.314,0.531,0.673c0.065,0.372,0.097,1.068-0.436,1.146c-0.377,0.055-0.752,0.11-1.128,0.166
	c-0.208,0.03-0.542-0.135-0.749-0.204c-0.666-0.224-1.333-0.448-1.999-0.672c-2.114-0.71-4.229-1.432-6.388-2.001
	c-1.448-0.382-2.934-0.622-4.401-0.914c-0.594-0.117-1.192-0.211-1.789-0.316c-0.225-0.04-0.494,0.339-0.702,0.294
	c-0.395-0.085-0.29-0.567-0.746-0.392c-0.438,0.168-0.481,0.261-0.849-0.015c-0.389-0.292-0.479-0.157-0.94,0.02
	c-0.267,0.103-0.478-0.261-0.67-0.442c-0.141-0.133-0.517,0.408-0.771,0.169c-0.382-0.357-0.351-0.338-0.825-0.111
	c-0.293,0.14-0.577-0.174-0.84-0.333c-0.154-0.094-0.456,0.369-0.657,0.25c-0.416-0.247-0.492-0.408-0.908-0.17
	c-0.413,0.236-0.42,0.091-0.787-0.22c-0.24-0.204-0.577,0.112-0.836,0.242c-0.112,0.056-0.512-0.537-0.607-0.458
	c-0.36,0.298-0.391,0.469-0.792,0.225c-0.417-0.255-0.401-0.235-0.841-0.005c-0.445,0.232-0.36-0.188-0.756-0.355
	c-0.098-0.041-0.3,0-0.402,0c-0.376,0-0.751,0-1.127,0c-2.545,0-5.054,0.024-7.594,0.167c-3.048,0.173-6.156,0.18-9.187,0.551
	c-3.136,0.384-6.266,0.875-9.344,1.585c-0.657,0.151-1.306,0.297-1.971,0.41c-0.279,0.047-0.698,0.034-0.935,0.201
	c-0.449,0.317-0.479,0.29-1.003,0.125c0.188,0.782-1.118,0.447-1.488,0.557c-0.582,0.174-1.017,1.312-1.264,1.758
	c-0.725,1.307-1.437,2.627-2.081,3.975c-0.294,0.616-0.459,1.185-0.488,1.867c-0.042,0.948,0.391,1.801,1.257,2.19
	c0.533,0.239,0.961,0.403,1.567,0.244c0.33-0.086,0.654-0.218,0.979-0.326c1.213-0.406,2.396-1.061,3.565-1.587
	c0.597-0.269,1.055-0.451,1.691-0.567c0.578-0.106,1.154-0.222,1.734-0.305c1.212-0.173,2.419-0.368,3.637-0.475
	c2.923-0.256,5.837-0.508,8.765-0.677c0.528-0.031,1.058-0.042,1.585-0.048c0.261-0.003,0.8-0.097,1.031,0.065
	c0.695,0.486,1.181,1.059,2.098,0.83c0.289-0.072,0.609-0.391,0.856-0.555c0.558-0.371,1.05-0.805,1.672-1.075
	c1.072-0.465,2.07-0.532,3.196-0.394c0.388,0.046,0.775,0.093,1.162,0.141c0.602,0.073,1.26,0.501,1.772,0.802
	c1.065,0.626,1.605,1.659,1.845,2.85c0.071,0.356,0.143,0.713,0.214,1.069c0.01,0.048,0.324,0.101,0.372,0.114
	c0.223,0.063,0.209-0.002,0.354-0.189c0.135-0.176,0.525-0.258,0.683-0.055c0.301,0.387,0.368,0.472,0.368,0.956
	c0,0.193,1.121,0.089,1.305,0.089c0.956,0,1.913,0,2.867,0c0.927,0,1.851,0.006,2.776-0.021c3.039-0.087,6.126-0.018,9.155-0.29
	c4.409-0.396,8.899-1.431,12.867-3.445c2.53-1.283,4.563-3.103,6.623-5C79.338,18.104,78.676,17.824,78.014,17.543 M6.646,23.41
	c0.367,0.521,0.544,0.862,0.287,1.474c-0.129,0.306-0.843,0.85-1.215,0.713c-0.633-0.233-0.896-0.47-1.052-1.136
	C4.409,23.366,5.906,22.854,6.646,23.41"/>
<rect id="sliceCopy_x5F_21_1_" x="84" fill="none" width="88" height="40"/>
<rect id="sliceCopy_x5F_20_1_" fill="none" width="84" height="40"/>
</svg>
