<?xml version="1.0" encoding="utf-8"?>
<!-- Generator: Adobe Illustrator 15.1.0, SVG Export Plug-In  -->
<!DOCTYPE svg PUBLIC "-//W3C//DTD SVG 1.1//EN" "http://www.w3.org/Graphics/SVG/1.1/DTD/svg11.dtd" [
	<!ENTITY ns_flows "http://ns.adobe.com/Flows/1.0/">
]>
<svg version="1.1"
	 xmlns="http://www.w3.org/2000/svg" xmlns:xlink="http://www.w3.org/1999/xlink" xmlns:a="http://ns.adobe.com/AdobeSVGViewerExtensions/3.0/"
	 x="0px" y="0px" width="93px" height="40px" viewBox="0.77 0 93 40" enable-background="new 0.77 0 93 40" xml:space="preserve">
<defs>
</defs>
<path d="M86.75,22.427c0.75-0.46,1.5-0.92,2.25-1.379c-2.124-0.492-4.242-1.06-6.39-1.444c-3.32-0.595-6.639-1.189-9.958-1.785
	c-1.713-0.307-3.426-0.614-5.138-0.921c-1-0.179-1.914-0.158-2.942-0.142c0.322,0.328,0.433,1.081-0.209,1.081
	c-0.371-0.014-0.479-0.493-0.618-0.765c-0.157-0.302-0.388-0.2-0.724-0.206c-0.403-0.007-0.806-0.013-1.21-0.02
	c0.397,0.262,0.685,1.142-0.052,1.161c-0.435,0.011-0.565-0.448-0.74-0.762c-0.241-0.431-0.205-0.457-0.686-0.474
	c-0.406-0.015-0.814-0.03-1.222-0.045c0.241,0.311,0.7,1.019,0.122,1.234c-0.447,0.167-0.785-0.118-0.937-0.481
	c-0.147-0.36-0.139-0.729-0.545-0.714c-0.447,0.017-0.895,0.034-1.342,0.051c0.315,0.301,0.58,1.286-0.161,1.207
	c-0.47-0.049-0.585-0.486-0.76-0.847c-0.228-0.467-0.257-0.39-0.778-0.39c-0.425,0-0.848,0-1.271,0
	c0.293,0.369,0.671,1.208-0.151,1.249c-0.473,0.023-0.587-0.515-0.75-0.849c-0.207-0.425-0.207-0.37-0.681-0.37
	c-0.434,0-0.866,0-1.3,0c0.251,0.373,0.568,1.382-0.271,1.229c-0.383-0.059-0.499-0.554-0.659-0.858
	c-0.221-0.418-0.289-0.352-0.77-0.398c-0.423-0.042-0.848-0.083-1.271-0.124c0.171,0.218,0.347,0.522,0.389,0.795
	c0.075,0.48-0.408,0.638-0.765,0.435c-0.397-0.227-0.555-0.822-0.759-1.218c-0.066-0.129-1.249-0.064-1.402-0.07
	c-0.505-0.021-1.009-0.042-1.515-0.063c0.229,0.264,0.516,0.645,0.504,1.005c-0.009,0.229-0.678,0.708-0.81,0.423
	c-0.161-0.349-0.323-0.698-0.484-1.046c-0.135-0.291-0.403-0.478-0.635-0.697c-0.067-0.064-0.347-0.016-0.433-0.016
	c-0.416,0-0.832,0-1.248,0c-0.902,0-1.804,0-2.706,0c-0.479,0-0.489,0.087-0.494-0.378c-0.009-0.748-0.018-1.497-0.026-2.245
	c-0.02-1.634-0.039-3.269-0.058-4.902c-0.006-0.512-1.412-0.568-1.412-0.104c0,1.02,0,2.041,0,3.061c0,1.316,0,2.631,0,3.947
	c0,0.315,0,0.63,0,0.945c0,0.118-0.266-0.004-0.271,0.086c-0.02,0.273-0.039,0.547-0.059,0.821
	c-0.087-0.226-0.061-0.393-0.304-0.386c-0.369,0.011-0.736,0.021-1.105,0.033c-0.852,0.025-1.704,0.051-2.556,0.076
	c-0.287,0.009-0.253,0.114-0.373,0.395c-0.032,0.076-0.323,0.009-0.402,0.004c-0.119-0.009-0.095-0.329-0.182-0.393
	c-0.11-0.082-0.548-0.021-0.681-0.026c-0.49-0.019-0.981-0.037-1.473-0.056c-0.315-0.013-0.631-0.024-0.947-0.036
	c-0.09-0.004-0.102,0.088-0.145,0.163c-0.13,0.226-0.113,0.253-0.37,0.27c-0.242,0.017-0.222,0.023-0.331-0.195
	c-0.038-0.075-0.057-0.21-0.151-0.209c-0.335,0.003-0.669,0.006-1.003,0.009c-0.764,0.007-1.527,0.013-2.29,0.02
	c-0.064,0-0.141,0.224-0.167,0.273c-0.109,0.206-0.111,0.176-0.348,0.152c-0.224-0.022-0.177-0.425-0.461-0.425
	c-0.847,0-1.693,0-2.541,0c-0.323,0-0.331-0.018-0.545,0.236c-0.372,0.439-0.39-0.1-0.671-0.236
	c-0.144-0.069-0.522,0.02-0.677,0.025c-0.497,0.019-0.992,0.037-1.488,0.055c-0.34,0.012-0.68,0.024-1.019,0.037
	c-0.249,0.01-0.234,0.414-0.489,0.429c-0.37,0.022-0.425-0.052-0.738-0.184c-0.251-0.105-0.542-0.298-0.818-0.305
	c-0.824-0.017-1.647-0.034-2.472-0.051c-1.176-0.025-2.437-0.197-3.601-0.057c-0.689,0.083-1.324,0.141-2.021,0.141
	c-0.158,0-0.636-0.077-0.705,0.132c-0.102,0.301-0.077,0.589-0.077,0.908c0,1.293-0.347,2.541-0.232,3.848
	c0.06,0.681,0.235,1.277,0.249,1.967c0.005,0.259-0.063,0.607,0.098,0.83c0.217,0.304,0.625,0.133,0.979,0.101
	c0.161-0.014,0.323-0.028,0.485-0.042c0.033-0.003,0.205,0.214,0.253,0.239c0.226,0.115,0.622,0.091,0.877,0.102
	c0.606,0.024,1.206,0.048,1.813,0.031c1.481-0.042,2.956-0.096,4.435-0.182c0.27-0.017,0.459-0.142,0.701-0.264
	c0.342-0.17,0.439-0.287,0.843-0.287c0.188,0,0.193,0.444,0.419,0.452c0.37,0.014,0.74,0.027,1.11,0.04
	c0.459,0.017,0.917,0.033,1.375,0.049c0.159,0.006,0.618,0.109,0.761,0.028c0.158-0.088,0.27-0.767,0.581-0.318
	c0.224,0.324,0.226,0.287,0.606,0.28c0.851-0.017,1.702-0.032,2.553-0.048c0.33-0.006,0.173-0.269,0.431-0.395
	c0.409-0.199,0.313,0.451,0.533,0.451c0.633,0,1.265,0,1.897,0c0.431,0,1.335,0.212,1.546-0.21c0.074-0.149,0.437-0.397,0.57-0.151
	c0.133,0.247,0.117,0.364,0.383,0.354c0.761-0.028,1.521-0.057,2.282-0.084c0.24-0.01,0.48-0.018,0.721-0.027
	c0.217-0.007,0.032-0.464,0.337-0.44c0.16,0.013,0.235-0.027,0.292,0.121c0.019,0.047,0.075,0.287,0.129,0.289
	c0.212,0.004,0.422,0.009,0.633,0.014c0.811,0.019,1.621,0.037,2.433,0.055c0.276,0.006,0.553,0.011,0.83,0.019
	c0.191,0.004,0.207-0.196,0.288-0.357c0.01,0.133-0.013,0.794,0.103,0.819c0.279,0.062,0.228,0.069,0.23,0.339
	c0.009,0.794,0.016,1.59,0.024,2.385c0.008,0.883,0.018,1.767,0.027,2.65c0.001,0.195,0.004,0.393,0.005,0.589
	c0.002,0.092,0.619,0.238,0.69,0.238c0.063,0,0.69-0.129,0.69-0.243c0.001-0.186,0.002-0.37,0.003-0.555
	c0.005-0.878,0.01-1.757,0.014-2.635c0.004-0.785,0.009-1.571,0.013-2.355c0-0.052-0.034-0.243,0.03-0.243
	c0.231-0.001,0.463-0.002,0.694-0.004c1.631-0.008,3.264-0.016,4.895-0.026c0.511-0.003,1.021,0.186,1.44,0.456
	c0.248,0.159,0.164,0.204,0.448,0.202c2.325-0.011,4.65-0.023,6.976-0.035c7.025-0.035,14.053-0.071,21.078-0.104
	c0.827-0.004,1.648,0.006,2.473-0.053C79.374,25.844,83.249,24.503,86.75,22.427 M70.573,19.667c0.691,0,1.381,0,2.071,0
	c0.323,0,0.536,0.26,0.628,0.56c0.182,0.594-0.06,1.095-0.551,1.421c-0.179,0.117-0.616,0.029-0.821,0.029c-0.387,0-0.774,0-1.161,0
	c-0.296,0-0.689-0.349-0.793-0.599C69.693,20.467,70.131,20,70.573,19.667"/>
<rect id="sliceCopy_x5F_19_1_" x="93.001" fill="none" width="83.001" height="40"/>
<rect id="sliceCopy_x5F_18_1_" fill="none" width="93" height="40"/>
</svg>
