<?xml version="1.0" encoding="utf-8"?>
<!-- Generator: Adobe Illustrator 15.1.0, SVG Export Plug-In  -->
<!DOCTYPE svg PUBLIC "-//W3C//DTD SVG 1.1//EN" "http://www.w3.org/Graphics/SVG/1.1/DTD/svg11.dtd" [
	<!ENTITY ns_flows "http://ns.adobe.com/Flows/1.0/">
]>
<svg version="1.1"
	 xmlns="http://www.w3.org/2000/svg" xmlns:xlink="http://www.w3.org/1999/xlink" xmlns:a="http://ns.adobe.com/AdobeSVGViewerExtensions/3.0/"
	 x="0px" y="0px" width="88px" height="40px" viewBox="0.769 0 88 40" enable-background="new 0.769 0 88 40" xml:space="preserve">
<defs>
</defs>
<path d="M80.262,15.992c1.247-0.126,2.493-0.253,3.738-0.379c-0.065,0.26-0.317,0.445-0.493,0.629
	c-0.285,0.297-0.569,0.595-0.854,0.893c-0.708,0.741-1.518,1.509-2.417,2.019c-1.701,0.967-3.377,2.025-5.253,2.626
	c-2.75,0.881-5.685,1.103-8.541,1.364c-1.182,0.108-2.38,0.089-3.566,0.121c-0.574,0.015-1.153-0.023-1.729-0.04
	c-0.548-0.017-1.135,0.028-1.676-0.062c-1.508-0.247-3.014-0.493-4.521-0.74c-1.211-0.198-2.41-0.547-3.606-0.827
	c-1.241-0.289-2.674-0.117-3.949-0.134c-0.198-0.003-0.397-0.005-0.598-0.008c-0.051,0-0.206-0.283-0.237-0.328
	c-0.125-0.173-0.479,0.18-0.648,0.242c-0.701,0.259-1.402,0.518-2.104,0.777c-0.771,0.284-1.747,0.824-2.583,0.771
	c-0.366-0.024-0.621-1.002-0.733-1.29c-0.699-1.799-1.615-4.556-4.006-4.348c-0.939,0.082-1.809,0.159-2.358,1.049
	c-0.171,0.277-0.371,0.551-0.518,0.842c-0.183,0.367-0.215,0.564-0.66,0.59c-0.637,0.037-1.362-0.192-1.979-0.304
	c-0.532-0.095-1.042-0.175-1.579-0.223c-1.254-0.112-2.673-0.374-3.934-0.167c-0.637,0.104-1.271,0.201-1.901,0.34
	c-0.565,0.124-1.288,0.388-1.868,0.344c-0.581-0.044-1.226-0.385-1.78-0.569c-0.766-0.255-1.859,0.628-2.296,1.192
	c-0.464,0.602-0.597,1.37-0.971,2.018c-0.146,0.254-0.239,0.611-0.536,0.679c-0.391,0.088-0.824,0.244-1.139-0.094
	c-0.557-0.599-1.068-1.376-1.926-1.472c-1.132-0.125-1.966,0.558-2.729,1.318c-1.136,1.132-2.124,2.396-3.175,3.603
	c-0.427,0.491-0.829,1.087-1.322,1.51c-0.292,0.251-0.585,0.502-0.877,0.752c-0.271,0.233-0.439,0.408-0.652-0.02
	c-0.396-0.795-0.267-1.731-0.251-2.585c0.028-1.478,0.573-3.022,1.19-4.346c1.441-3.097,4.168-5.237,7.049-6.943
	c2.252-1.333,4.88-1.98,7.435-2.442c1.156-0.209,2.31-0.466,3.478-0.591c1.698-0.181,3.396-0.363,5.095-0.544
	c0.366-0.039,0.882-0.194,1.249-0.125c0.205,0.038,0.489,0.195,0.673,0.201c0.376,0.012,0.751,0.024,1.127,0.036
	c1.365,0.044,2.729,0.102,4.094,0.162c0.159,0.007,0.224-0.171,0.364-0.171c0.281,0,0.563,0,0.845,0c0.367,0,0.739-0.02,1.105,0.008
	c1.068,0.083,2.136,0.165,3.204,0.247c1.497,0.116,2.993,0.23,4.49,0.346c0.476,0.037,0.953,0.073,1.429,0.11
	c0.082,0.006,0.164,0.013,0.247,0.019c0.379,0.029,0.457,0.457,0.605,0.679c0.033,0.05,0.059-0.202,0.056-0.216
	c-0.023-0.125-0.047-0.25-0.07-0.375c0.874,0.008,1.746,0.016,2.619,0.024c0.412,0.003,0.564-0.127,0.564,0.306
	c0,0.239-0.006,0.196-0.241,0.196c-0.23,0-0.462,0-0.693,0c0.173,0.369,0.357,0.834,0.789,0.963
	c0.191,0.049,0.473-0.011,0.669-0.016c0.875-0.021,1.749-0.041,2.624-0.062c1.225-0.029,2.448-0.136,3.67-0.212
	c0.459-0.028,1.025-0.276,1.467-0.134c0.775,0.25,1.552,0.5,2.327,0.75c1.84,0.594,3.796,1.196,5.725,1.374
	c2.528,0.233,5.057,0.466,7.585,0.699C76.636,16.194,78.419,16.074,80.262,15.992L80.262,15.992z"/>
<rect id="sliceCopy_x5F_17_1_" x="88" fill="none" width="93" height="40"/>
<rect id="sliceCopy_x5F_16_1_" fill="none" width="88" height="40"/>
</svg>
