<?xml version="1.0" encoding="utf-8"?>
<!-- Generator: Adobe Illustrator 15.1.0, SVG Export Plug-In  -->
<!DOCTYPE svg PUBLIC "-//W3C//DTD SVG 1.1//EN" "http://www.w3.org/Graphics/SVG/1.1/DTD/svg11.dtd" [
	<!ENTITY ns_flows "http://ns.adobe.com/Flows/1.0/">
]>
<svg version="1.1"
	 xmlns="http://www.w3.org/2000/svg" xmlns:xlink="http://www.w3.org/1999/xlink" xmlns:a="http://ns.adobe.com/AdobeSVGViewerExtensions/3.0/"
	 x="0px" y="0px" width="53px" height="40px" viewBox="0.736 0 53 40" enable-background="new 0.736 0 53 40" xml:space="preserve">
<defs>
</defs>
<path d="M48.592,5.617c-0.147-0.471-0.414-1.474-1.019-1.576c-0.269-0.091-0.546,0-0.812,0c-0.187,0-0.502,1.345-0.861,1.345
	c-1.086,0-2.173,0-3.258,0c-2.65,0-5.303,0-7.952,0c-0.148,0-0.449,0.064-0.563-0.048c-0.141-0.142-0.255-0.23-0.449-0.23
	c-0.609,0-1.218,0-1.826,0c-5.491,0-10.98,0-16.471,0c-0.961,0-1.922,0-2.884,0c-0.418,0-0.825,0.086-1.171-0.139
	c-1.252-0.816-2.454-0.791-3.896-0.916C6.822,4,7.325,4.709,7.007,4.952C6.489,5.346,5.918,5.691,5.602,6.278
	C5.003,7.387,4.859,8.839,4.58,10.053c-0.209,0.902-0.521,1.729-0.575,2.658c-0.127,2.15,2.342,2.761,3.844,3.474
	c0.913,0.434,0.695,0.963,0.695,1.831c0,0.443-0.295,0.961-0.44,1.375c-0.205,0.588-0.409,1.175-0.613,1.762
	c-0.322,0.929-0.584,1.881-0.872,2.821c-0.574,1.872-1.018,3.781-1.414,5.699c-0.237,1.24-0.417,2.5-0.417,3.764
	c0,0.842,0.369,1.449,0.997,2.077c0.771,0.771,2.134,0.406,3.111,0.361c2.019-0.095,4.037-0.217,6.057-0.286
	c0.877-0.029,2.564-0.275,2.141-1.539c-0.067-0.199-0.288-0.378-0.438-0.527c-0.114-0.114,0.098-0.509,0.142-0.649
	c0.141-0.444,0.231-0.899,0.336-1.352c0.213-0.921,0.436-1.844,0.688-2.755c0.139-0.505,0.312-1.008,0.397-1.524
	c0.07-0.421,0.433-0.794,0.479-1.214c0.117-1.046-0.124-2.82,0.726-3.473c0.653-0.502,1.039-0.57,1.892-0.502
	c0.603,0.048,1.152,0.046,1.757,0.022c1.952-0.078,3.908,0.368,5.867,0.089c1.052-0.192,2.107-0.729,2.469-1.8
	c0.197-0.585,0.197-1.238,0.256-1.849c0.04-0.416,0.043-0.869-0.002-1.285c-0.055-0.51-0.32-1.072,0.151-1.347
	c0.75-0.437,1.729-1.123,2.596-1.275c0.681-0.12,1.488,0,2.176,0c2.619,0,5.236,0,7.855,0c0.763,0,0.872-1.043,1.061-1.691
	c0.092-0.313,2.236-0.171,2.63,0.023c0.161-0.307,0.142-0.627,0.169-0.963c0.025-0.303,0.37-0.347,0.39-0.64
	c0.039-0.606,0.085-1.213,0.1-1.82C48.814,8.186,48.843,6.928,48.592,5.617z M29.818,17.649c0,0.542,0,1.084,0,1.627
	c0,0.963-1.563,0.664-2.198,0.664c-1.446,0-2.893,0-4.339,0c-0.627,0-2.065,0.279-2.639-0.104c-0.395-0.264-0.232-1.251-0.232-1.644
	c0-0.588,0-1.177,0-1.764c0-1.017,1.256-0.753,1.957-0.753c2.283,0,4.566,0,6.85,0c0.202,0,0.399,0.066,0.505,0.251
	C29.967,16.351,29.818,17.19,29.818,17.649z"/>
<rect id="sliceCopy_x5F_28_1_" x="52.804" fill="none" width="100.411" height="40"/>
<rect id="sliceCopy_x5F_27_1_" fill="none" width="52.805" height="40"/>
</svg>
