<?xml version="1.0" encoding="utf-8"?>
<!-- Generator: Adobe Illustrator 15.1.0, SVG Export Plug-In  -->
<!DOCTYPE svg PUBLIC "-//W3C//DTD SVG 1.1//EN" "http://www.w3.org/Graphics/SVG/1.1/DTD/svg11.dtd" [
	<!ENTITY ns_flows "http://ns.adobe.com/Flows/1.0/">
]>
<svg version="1.1"
	 xmlns="http://www.w3.org/2000/svg" xmlns:xlink="http://www.w3.org/1999/xlink" xmlns:a="http://ns.adobe.com/AdobeSVGViewerExtensions/3.0/"
	 x="0px" y="0px" width="65px" height="40px" viewBox="0.276 0 65 40" enable-background="new 0.276 0 65 40" xml:space="preserve">
<defs>
</defs>
<path d="M61.042,8.221c-0.064-0.532-0.178-1.074-0.156-1.611c0.023-0.569,0.234-0.968-0.439-0.947
	c-0.207-0.091-0.965-0.178-1.018-0.396c-0.127-0.507-0.268-0.962-0.852-0.803c-0.602,0.165-1.047,0.501-1.57,0.815
	c-0.426,0.254-0.639,0.239-1.131,0.239c-0.406,0-1.428-0.199-1.783,0c-0.197,0.111-0.162,0.453-0.287,0.525
	c-0.059,0.036-0.619,0.042-0.668,0c-0.209-0.178,0.137-0.619-0.275-0.622c-0.346-0.003-0.691-0.005-1.035-0.007
	c-2.875-0.022-5.75-0.043-8.625-0.065c-0.893-0.007-1.785-0.014-2.678-0.021c-0.287-0.002-0.279,0.477-0.445,0.477
	c-0.361,0-0.654-0.187-0.957-0.191c-2.439-0.042-4.877-0.084-7.316-0.125c-1.15-0.02-2.299-0.04-3.449-0.059
	c-0.588-0.01-0.729-0.581-1.223-0.579c-2.596,0.015-5.189,0.029-7.785,0.043c-0.777,0.005-1.305,0.385-2.098,0.403
	c-0.426,0.009-1.154,0.202-1.473-0.117c-0.197-0.196-0.855-1.095-1.121-1.095c-0.32,0-1.52-0.196-1.742,0
	c-0.254,0.224,0.186,1.204-0.1,1.367c-0.791,0.453-1.691,1.005-2.162,1.828c-0.342,0.6-0.6,0.435-1.311,0.435
	c-0.186,0-0.449,0.057-0.609-0.05C8.636,7.603,8.36,7.362,8.243,7.394C8.056,7.443,7.499,7.483,7.374,7.623
	c-0.084,0.094,0,0.633,0,0.765c0,0.439,0.422,0.958,0.619,1.34c0.223,0.427,0.553,0.693,0.67,1.191
	c0.121,0.506-0.072,1.003-0.186,1.492c-0.209,0.909-0.855,0.898-1.67,1.15c-0.873,0.269-1.945,0.63-2.506,1.401
	c-0.551,0.756-0.322,0.972,0.477,0.972c0.498,0,1,0.024,1.5,0.038c0.926,0.027,1.898,0.022,2.816,0.153
	c1.33,0.241,1.992,0.92,2.281,2.231c0.156,0.714,0.012,1.318,0.012,2.018c0,0.339-0.279,0.75-0.408,1.053
	c-0.279,0.657-0.559,1.313-0.838,1.97c-0.826,1.94-1.506,3.908-2.164,5.912c-0.488,1.488-0.797,3.063-0.74,4.637
	c0.021,0.597,0.137,1.757,0.939,1.871c0.367,0.053,0.734,0.061,1.104,0.081c2.383,0.126,4.629,0.142,7.012,0.012
	c1.912-0.105,3.84-0.588,5.748-0.581c-0.201-0.564-0.875-1.679-0.74-2.256c0.178-0.762,0.34-1.512,0.471-2.284
	c0.273-1.602,0.633-3.193,0.893-4.797c0.234-1.44,0.279-2.63,1.541-3.542c0.68-0.491,1.967,0.309,2.775,0.265
	c1.055-0.057,2.113-0.079,3.16-0.221c0.547-0.074,1.115-0.108,1.65-0.242c0.639-0.16,0.902-0.022,0.902-0.671
	c0-1.135,0.088-2.317,0.525-3.377c0.33-0.797,0.816-2,1.547-2.52c0.65-0.461,1.334-1.181,2.186-1.181c1.736,0,3.473,0,5.207,0
	c5.367,0,10.73,0,16.096,0c0.518,0,0.877,0.079,1.1-0.523c0.365-0.992,0.695-2,0.975-3.019C60.546,10.155,61.142,9.045,61.042,8.221
	z M31.165,20.209c-0.426,0.904-1.453,0.693-2.316,0.693c-0.697,0-1.795,0.218-2.459-0.017c-0.59-0.207-0.734-0.18-0.939-0.762
	c-0.113-0.317-0.113-0.526-0.113-0.865c0-0.964,0-1.928,0-2.892c0-1.327,1.307-1.149,2.232-1.149c0.863,0,1.727,0,2.59,0
	c1.479,0,1.195,1.681,1.195,2.656C31.354,18.657,31.501,19.494,31.165,20.209z"/>
<rect id="sliceCopy_x5F_32_1_" x="65.053" fill="none" width="56.167" height="40"/>
<rect id="sliceCopy_x5F_31_1_" fill="none" width="65.054" height="40"/>
</svg>
