<?xml version="1.0" encoding="utf-8"?>
<!-- Generator: Adobe Illustrator 15.1.0, SVG Export Plug-In  -->
<!DOCTYPE svg PUBLIC "-//W3C//DTD SVG 1.1//EN" "http://www.w3.org/Graphics/SVG/1.1/DTD/svg11.dtd" [
	<!ENTITY ns_flows "http://ns.adobe.com/Flows/1.0/">
]>
<svg version="1.1"
	 xmlns="http://www.w3.org/2000/svg" xmlns:xlink="http://www.w3.org/1999/xlink" xmlns:a="http://ns.adobe.com/AdobeSVGViewerExtensions/3.0/"
	 x="0px" y="0px" width="73px" height="40px" viewBox="0.77 0 73 40" enable-background="new 0.77 0 73 40" xml:space="preserve">
<defs>
</defs>
<path d="M67.963,5.501c0,1.125,1.094,1.697,1.189,2.859c0.041,0.508-0.045,0.981,0.025,1.49c0.1,0.688-0.117,1.155-0.34,1.818
	c-0.113,0.344,0.082,1.061,0.045,1.466c-0.021,0.208-0.143,1.268-0.451,1.268c-0.514,0-1.023,0-1.535,0c-6.262,0-12.52,0-18.779,0
	c-2.416,0-4.832,0-7.25,0c-0.832,0-0.725-0.034-1.104,0.82c-0.383,0.856-0.645,1.706-0.744,2.64
	c-0.043,0.402,0.035,1.521-0.189,1.857c-0.41,0.618-2.184,0.163-2.994,0.422c-0.682,0.218-3.314,0.631-3.314,1.38
	c0,1.442,0.021,3.16-1.184,4.155c-0.994,0.82-2.537,0.919-3.764,0.919c-1.018,0-2.311,0.199-3.172-0.507
	c-0.945-0.775-1.633-1.451-2.035-2.658c-0.055-0.165-0.404-1.703-0.742-1.151c-0.15,0.245,0.217,1.47,0.268,1.743
	c0.131,0.724-0.195,0.669-0.74,0.443c-0.453-0.189-1.047-0.396-1.531-0.292c-0.619,0.132-1.203,0.262-1.834,0.305
	c-0.457,0.03-0.105,1.008-0.158,1.39c-0.088,0.61-0.176,1.222-0.264,1.833c-0.061,0.422-0.65,0.978-0.9,1.344
	c-0.451,0.66-0.627,0.797-0.52,1.572c0.092,0.665,0.123,1.272,0.123,1.945c0,0.666-0.373,0.646-0.848,1.083
	c-0.586,0.543-0.66,0.721-0.879,1.475c-0.098,1.091-2.1,0.874-2.979,0.84c-1.289-0.049-2.57-0.111-3.857-0.201
	c-1.121-0.078-2.223,0.146-2.932-0.855c-0.855-1.212-0.547-2.532-0.381-3.908c0.408-3.355,1.795-6.53,3.404-9.458
	c0.518-0.939,1.049-1.873,1.545-2.825c0.576-1.105,1.404-2.266,1.799-3.447c0.18-0.542,0.148-1.096,0.391-1.625
	c0.193-0.426,0.445-0.292,0.795-0.478c0.283-0.151,0.459-0.586,0.742-0.77c0.543-0.352,1.395-0.378,2.012-0.498
	c0.717-0.139,0.717-0.285,1.232-0.771c0.434-0.409,0.713-0.786,1.291-0.918c0.316-0.073,0.633-0.146,0.949-0.219
	c0.262-0.06,0.658,0.105,0.895-0.007c1.135-0.54,0.027-1.776-0.809-1.833c-0.539-0.036-1.338,0.563-1.727-0.001
	c0.561-0.248,1.117-0.524,1.73-0.421c0.689,0.115,1.279,0.314,1.982,0.314c0.594,0,0.32-0.013,0.656-0.379
	c0.205-0.221,0.424-0.433,0.654-0.626c0.646-0.539,1.201-0.399,2.045-0.399c-0.332-0.197-1.287-0.536-1.457-0.863
	c-0.08-0.151-0.055-1.625,0.053-1.726c0.105-0.099,0.76,0,0.912,0c0.33,0,0.027,0.323,0.244,0.323c0.43,0,0.41-0.044,0.41,0.384
	c0,0.329,0.199,0.208,0.506,0.208c0.477,0,1.494-0.206,1.922,0c0.145,0.069,0.291,0.485,0.449,0.485c0.295,0,0.59,0,0.885,0
	c0.971,0,1.955,0.108,2.895,0.108c2.93,0,5.861,0,8.791,0c0.551,0,0.725,0.216,1.203,0.216c0.896,0,1.791,0,2.686,0
	c5.338,0,10.676,0,16.014,0c1.518,0,3.035,0,4.555,0c0.648,0,1.418-0.447,2.02-0.655C66.25,4.983,66.617,4.8,67.023,4.8
	c0.348,0,0.434-0.092,0.512,0.247C67.604,5.341,67.578,5.614,67.963,5.501 M46.654,7.065c0.23-0.784-1.373-0.431-1.838-0.431
	c-0.623,0-1.244,0-1.865,0c-0.148,0-0.936-0.109-1.045,0c-0.592,0.6,1.709,0.431,1.838,0.431
	C44.715,7.065,45.684,7.065,46.654,7.065 M56.58,7.012c0.23-0.702-1.727-0.377-2.139-0.377c-0.922,0-1.846,0-2.77,0
	c-0.039,0.71,1.645,0.379,2.088,0.379C54.699,7.012,55.641,7.012,56.58,7.012 M61.436,7.065c0.924,0,1.846,0,2.77,0
	c0.543,0,1.086,0,1.629,0c0.109,0,0.859,0.066,0.512-0.323c-0.072-0.081-0.703,0-0.809,0c-0.652,0-1.307,0-1.961,0
	C63.186,6.742,61.262,6.45,61.436,7.065 M29.066,20.769c-0.441,0.284-0.764,0.488-1.268,0.621c-0.672,0.177-0.963,0.022-1.117,0.748
	c-0.189,0.878,0.111,1.413,0.523,2.144c0.094,0.167,0.438,0.408,0.268,0.549c-0.33,0.275-0.346,0.111-0.666-0.16
	c-0.885-0.75-1.174-1.676-1.445-2.756c-0.021-0.092-1.188-0.406-1.311-0.38c-0.594,0.132-1.15,0.281-1.727,0.473
	c0.234,0.626,0.467,1.25,0.73,1.863c0.395,0.922,0.676,1.139,1.504,1.731c1.148,0.819,3.412,0.771,4.766,0.449
	c1.09-0.259,1.732-0.712,2.289-1.673c0.32-0.554,0.244-1.424,0.301-2.057c0.092-1.012,0.076-0.956-0.861-1.301
	C30.516,20.823,29.367,20.022,29.066,20.769"/>
<rect id="sliceCopy_x5F_24_1_" x="73.203" fill="none" width="50.463" height="40"/>
<rect id="sliceCopy_x5F_23_1_" fill="none" width="73.203" height="40"/>
</svg>
