<?xml version="1.0" encoding="utf-8"?>
<!-- Generator: Adobe Illustrator 15.1.0, SVG Export Plug-In  -->
<!DOCTYPE svg PUBLIC "-//W3C//DTD SVG 1.1//EN" "http://www.w3.org/Graphics/SVG/1.1/DTD/svg11.dtd" [
	<!ENTITY ns_flows "http://ns.adobe.com/Flows/1.0/">
]>
<svg version="1.1"
	 xmlns="http://www.w3.org/2000/svg" xmlns:xlink="http://www.w3.org/1999/xlink" xmlns:a="http://ns.adobe.com/AdobeSVGViewerExtensions/3.0/"
	 x="0px" y="0px" width="105px" height="40px" viewBox="0.572 0 105 40" enable-background="new 0.572 0 105 40"
	 xml:space="preserve">
<defs>
</defs>
<path d="M32.818,4.705c0.49-0.443,0.162-0.798,0.393-1.326c0.115-0.262,0.879-0.505,1.102-0.306c0.436,0.388-0.383,1.851,0.332,1.96
	c0.34,0.052,0.961,0.224,0.912-0.235c-0.027-0.265,0.59-0.088,0.689,0.074c0.217,0.345,0.455,0.306,0.426-0.132
	c-0.035-0.532,0.225-0.46,0.717-0.438c0.168,0.008,0.949-0.102,0.977,0.023c0.029,0.125-0.09,0.708,0.059,0.756
	c0.508,0.167,1.307,0.016,1.842,0.016c0.822,0,1.646,0,2.469,0c0.096,0,0.658,0.08,0.697-0.062c0.035-0.122-0.119-0.324-0.014-0.429
	c0.188-0.188,0.82-0.042,1.051-0.021c0.523,0.048,1.055,0.021,1.576,0.021c0.785,0,0.639,0.02,0.711-0.625
	c0.016-0.129,0.643-0.148,0.678,0.078c0.049,0.324-0.104,0.786,0.385,0.651c0.305-0.083,0.145,0.933,0.086,1.089
	c-0.197,0.533-0.557,1.094-0.816,1.606c-0.15,0.298-1.309,2.499-0.801,2.472c0.178-0.01,1.363-0.097,1.365,0.049
	c0.004,0.665,0.908,0.372,1.467,0.372c1.238,0,2.521,0.097,3.754-0.019c0.396-0.036,0.807-0.1,1.205-0.054
	c0.572,0.064-0.084,0.515,0.662,0.515c3.105,0,6.213,0,9.318,0c5.125,0,10.248,0,15.373,0c1.064,0,2.131-0.098,3.193-0.003
	c0.164,0.014,0.844,0.344,0.844,0.171c0-0.332,0.344-0.089,0.344-0.315c0-0.675,0-1.35,0-2.025c0-0.334-0.217-2.933,0.039-3.051
	C84,5.45,85.018,5.406,85.037,5.656c0.035,0.48,0.338,0.072,0.445,0.365c0.084,0.23-0.014,0.537-0.018,0.775
	c-0.004,0.322,0.154,0.172,0.311,0.368c0.221,0.277,0.186,0.769,0.182,1.099c-0.008,0.549-0.209,1.354-0.027,1.879
	c0.104,0.302,0.498,0.081,0.721,0.195c0.236,0.124,0.158,0.625,0.162,0.833c0.018,0.975,2.082-0.174,2.307,0.532
	c0.02,0.063,0.135,0.709,0.002,0.709c-0.301,0-0.598,0-0.898,0c-0.023,0-0.111,0.348-0.141,0.393c0.164,0,0.9-0.108,0.988,0.08
	c0.117,0.257,0.004,0.578-0.27,0.631c-0.248,0.047-1.998-0.117-2.004,0.05c-0.004,0.087,8.428,0.072,9.238,0.072
	c0.209,0,0.229-0.127,0.25-0.289c0.018-0.122,0.629-0.054,0.711-0.054c0.414,0,0.826,0.002,1.24-0.002
	c0.766-0.01,1.533-0.023,2.299-0.007c0.193,0.003,0.453-0.025,0.637,0.045c0.117,0.046,0.016,1.641,0.016,1.833
	c0,0.12,0.199,1.069,0.033,1.097c-0.566,0.095-1.146,0.028-1.717,0.028c-1.463,0-2.945-0.066-4.404,0.036
	c-0.721,0.051-0.266-0.478-0.631-0.478c-0.906,0-1.811,0-2.717,0c-1.553,0-3.105,0-4.658,0c-0.227,0-0.553-0.055-0.787-0.018
	c-0.201,0.033-0.109,0.309-0.162,0.437c-0.164,0.404-0.432,0.202-0.615,0.464c-0.26,0.372,0.303,2.34-0.162,2.361
	c-0.348,0.017-0.691-0.061-1.035-0.086c-0.59-0.045-0.52-0.297-0.52-0.809c0-0.454,0.162-0.902,0.135-1.364
	c-0.014-0.219-0.113-0.186-0.287-0.162c-0.24,0.034-0.146-0.159-0.26-0.299c-0.529-0.662-0.367,1.66-0.619,1.64
	c-0.424-0.034-0.639,0.086-0.734,0.534c-0.131,0.581,0.168,0.718-0.525,0.924c-0.365,0.108-0.063,0.302-0.67,0.302
	c-0.666,0-1.346-0.051-2.016-0.052c-3.197-0.008-6.393-0.016-9.59-0.023c-1.51-0.004-3.02-0.008-4.529-0.012
	c-0.754-0.001-1.504-0.002-2.256-0.005c-0.48-0.001-2.068-0.205-2.275,0.129c-0.129,0.207-0.666,0.088-0.814-0.038
	c-0.08-0.064-0.076-0.392-0.205-0.392c-0.357-0.002-0.719-0.004-1.078-0.007c-1.438-0.01-2.863-0.071-4.299-0.116
	c-1.23-0.038-2.24,0.152-3.281,0.818c-0.48,0.308-0.674,0.595-0.637,1.18c0.012,0.158-0.051,0.583,0.025,0.727
	c0.113,0.217,0.191-0.011,0.328,0.043c0.275,0.109,0.008,0.667-0.264,0.667c-0.465-0.003-0.463,0.145-0.455,0.614
	c0.021,1.098,0.146,2.224,0.254,3.317c0.041,0.406,0.242,0.618,0.363,0.978c0.135,0.398,0.166,0.823,0.291,1.224
	c0.346,1.125,0.783,2.214,1.148,3.317c0.166,0.5,0.303,1.073,0.59,1.522c0.209,0.332,0.447,0.579,0.248,1.02
	c-0.16,0.354-1.023,0.452-1.352,0.568c-0.758,0.269-1.521,0.513-2.283,0.767C47.58,36.413,46.332,37,45.07,37
	c-0.723,0-0.766-2.128-1.006-2.625c-0.486-1.001-0.744-2.358-0.977-3.458C42.9,30.02,42.533,29.22,42.367,28.3
	c-0.207-1.161-0.381-2.392-0.668-3.527c-0.221-0.868,0.004-0.969-0.869-1.016c-1.563-0.085-3.135-0.045-4.699-0.025
	c-0.463,0.005-0.928,0.018-1.391,0.018c-0.504,0-0.744-0.125-0.988,0.317c-0.174,0.313-0.594,0.934-0.594,1.278
	c0,0.285-0.412,0.792-0.533,1.071c-0.205,0.465-0.58,0.914-0.857,1.337c-0.652,0.996-0.855,1.867-1.029,3.007
	c-0.125,0.814-2.238-0.365-2.666-0.552c-1.178-0.515-2.475-0.928-3.605-1.528c-1.711-0.907,2.068-4.806,2.746-5.494
	c0.639-0.65,1.299-1.645,0.99-2.61c-0.299-0.938-1.889-1.245-2.748-1.245c-0.037-0.01-0.074-0.02-0.111-0.03
	c-0.025-0.247-0.236-0.125-0.236-0.363c0-0.466,0-0.933,0-1.399c0-0.486-0.111-0.514-0.543-0.348
	c-0.508,0.196-0.348,0.517-0.334,1.037c0.027,0.979,0.326,1.527-0.775,1.573c-0.598,0.024-1.199-0.01-1.795-0.032
	c-0.262-0.01-0.568-0.054-0.824,0.014c-0.1,0.026-0.145,0.9-0.145,1.047c0,0.332-1.701,0.266-1.996,0.266
	c-0.141,0-0.197,0.443-0.213,0.541c-0.064,0.401-0.057,0.479-0.49,0.54c-0.277,0.04-0.563,0.054-0.842,0.055
	c-0.494,0-0.385-0.163-0.385-0.593c-0.553,0.504-1.283,0.693-1.826,1.215c-0.479,0.461-1.02,0.673-1.42,1.234
	c-0.201,0.278-0.988,0.303-1.299,0.18c-0.379-0.147-0.168-1.516-0.168-1.795c-0.777-0.006-1.686,1.171-2.148,1.669
	c-0.896,0.957-1.939,1.926-2.42,3.17c-0.176,0.451-0.082,0.736-0.635,0.76c-0.42,0.019-0.98,0.121-1.373-0.079
	c-0.303-0.153-0.129-0.747-0.205-1.01c-0.111-0.39-0.248-0.72-0.279-1.146c-0.133-1.823-0.471-3.679-0.674-5.506
	c-0.127-1.151-0.209-2.306-0.291-3.463c-0.094-1.285,0.074-2.553,0.156-3.832c0.014-0.223-0.133-0.933,0.121-1.044
	c0.406-0.18,0.938,0.01,1.357,0.024c0.357,0.012,0.199,0.48,0.223,0.698c0.049,0.437,1.018,0.237,1.305,0.237
	c1.625,0,3.252,0,4.877,0c3.236,0,6.477,0,9.715,0c1.338,0,2.893,0.224,4.203-0.057c1.023-0.218,1.527-1.44,2.416-1.882
	c0.318-0.159,0.365-0.204,0.443-0.54c0.076-0.316,0.57-0.249,0.811-0.242c1.172,0.034,2.334,0.069,3.508,0.069
	c1.029,0,2.061,0.033,3.088,0.022c0.592-0.007,0.445-0.086,0.396-0.611c-0.018-0.189,0.063-0.398,0.016-0.583
	c-0.031-0.122-0.305-0.25-0.363-0.097c-0.15,0.377,0.221,0.484-0.389,0.484c-0.236,0-0.533-0.108-0.453-0.445
	c0.037-0.162-1.188-0.095-1.346-0.095c-0.854,0-0.213,0.298-0.717,0.511c-0.93,0.395-0.699-0.824-0.678-1.363
	C32.762,6.993,32.539,5.817,32.818,4.705 M40.277,20.361c-0.525-0.533-1.898-0.099-2.555-0.099c-1.301,0-0.797,1.615-0.775,2.507
	c0.016,0.52,1.084,0.291,1.416,0.291c0.352,0,0.703,0,1.057,0c0.695,0,0.104-0.04,0.367-0.294c0.379-0.366,1.293-0.642,1.342-1.244
	C41.17,21.033,40.668,20.571,40.277,20.361 M35.027,20.999c-0.414-0.658-0.447,0.586-0.447,0.77
	c-0.004,0.906,0.623,1.292,1.477,1.292c0-0.244-0.418-0.59-0.504-0.872C35.426,21.767,35.148,21.414,35.027,20.999"/>
<rect id="sliceCopy_x5F_48_1_" x="105.287" fill="none" width="99.902" height="40"/>
<rect id="sliceCopy_x5F_47_1_" fill="none" width="105.287" height="40"/>
</svg>
