<?xml version="1.0" encoding="utf-8"?>
<!-- Generator: Adobe Illustrator 15.1.0, SVG Export Plug-In  -->
<!DOCTYPE svg PUBLIC "-//W3C//DTD SVG 1.1//EN" "http://www.w3.org/Graphics/SVG/1.1/DTD/svg11.dtd" [
	<!ENTITY ns_flows "http://ns.adobe.com/Flows/1.0/">
]>
<svg version="1.1"
	 xmlns="http://www.w3.org/2000/svg" xmlns:xlink="http://www.w3.org/1999/xlink" xmlns:a="http://ns.adobe.com/AdobeSVGViewerExtensions/3.0/"
	 x="0px" y="0px" width="88px" height="40px" viewBox="0.77 0 88 40" enable-background="new 0.77 0 88 40" xml:space="preserve">
<defs>
</defs>
<path d="M79.889,13.682c-2.439,0.664-4.924,1.355-7.436,1.676c-1.604,0.205-3.207,0.41-4.813,0.614
	c-2.414,0.309-4.881,0.404-7.314,0.508c-5.094,0.217-10.201-0.132-15.18-1.259c-0.203-0.046-0.66-0.257-0.838-0.217
	c-0.152,0.035-0.359,0.266-0.486,0.36c-0.127,0.093-0.301,0.034-0.453,0.022c0.016,0.085-0.018,0.179,0,0.264
	c-0.117-0.039-0.234-0.078-0.352-0.117c0,0.117,0,0.234,0,0.352c-0.107-0.049-0.215-0.098-0.324-0.146
	c-0.002,0.088-0.055,0.176-0.059,0.264c-0.324-0.108-0.33-0.169-0.471,0.146c-0.063-0.042-0.239-0.21-0.287-0.144
	c-0.154,0.216-0.158,0.155-0.389,0.026c-0.013,0.081-0.076,0.154-0.088,0.235c-0.188-0.127-0.361,0.073-0.412,0.037
	c-0.275-0.191-0.247-0.203-0.469,0.05c-0.078-0.078-0.156-0.156-0.235-0.234c-0.3,0.374-0.313,0.251-0.728,0.026
	c-0.57-0.309-1.209-0.451-1.852-0.504c-0.58-0.048-1.17-0.024-1.753-0.022c-1.602,0.008-3.203,0.015-4.806,0.022
	c-2.246,0.01-4.503,0.002-6.746,0.14c-1.594,0.097-3.188,0.195-4.781,0.292c-1.25,0.076-2.506,0.373-3.741,0.569
	c-1.171,0.186-2.333,0.608-3.452,0.987c-1.543,0.524-3.029,1.034-4.334,2.036c-1.242,0.954-2.328,2.092-3.205,3.392
	c-0.393,0.584-0.834,1.046-0.885,1.756c-0.045,0.637,0.92,0.946,1.334,1.153c0.23,0.116,0.225,0.584,0.277,0.82
	c0.059,0.263,0.43,0.33,0.664,0.422c0.462,0.18,1.135,0.35,1.615,0.184c0.389-0.134,0.775-0.267,1.163-0.401
	c0.492-0.169,0.829-0.514,1.243-0.831c1.248-0.958,2.518-1.868,4.072-2.238c0.803-0.19,1.683-0.264,2.506-0.279
	c1.771-0.033,3.544,0.28,5.233,0.798c0.526,0.162,0.968,0.425,1.515,0.347c0.264-0.037,0.631-0.422,0.849-0.574
	c0.913-0.636,2.13-1.015,3.239-1.033c0.711-0.011,1.415,0.133,2.083,0.369c0.413,0.144,0.896,0.545,1.321,0.515
	c0.318-0.023,0.504-0.266,0.773-0.434c0.58-0.362,1.239-0.597,1.916-0.691c1.133-0.16,1.952,0.127,2.752,0.884
	c0.406,0.385,0.692,0.688,0.99,1.158c0.346,0.542,0.444,0.841,1.119,0.919c0.538,0.063,0.727-0.021,1.084-0.377
	c0.423-0.423,0.845-0.845,1.267-1.267c0.083,0.33,0.165,0.661,0.249,0.992c0.067,0.27,0.186,0.184,0.462,0.184
	c0.81,0,1.62,0,2.431,0c0.246,0,0.525-0.371,0.748-0.482c0.396-0.199,0.766,0.016,1.16,0.139c0.242,0.075,0.428,0.316,0.658,0.173
	c0.471-0.296,0.799-0.441,1.328-0.271c0.098,0.031,0.725,0.32,0.752,0.299c0.227-0.182,0.58-0.451,0.879-0.475
	c0.191-0.016,0.656,0.092,0.822,0.193c0.07,0.043,0.313,0.248,0.379,0.198c0.205-0.154,0.4-0.311,0.637-0.414
	c0.369-0.161,0.705-0.031,1.08,0.047c0.113,0.024,0.234,0.211,0.344,0.21c0.123-0.002,0.434-0.298,0.555-0.362
	c0.498-0.264,0.783-0.195,1.305-0.094c0.127,0.024,0.229,0.103,0.342,0.167c0.16,0.094,0.283-0.099,0.42-0.206
	c0.494-0.388,1.08-0.643,1.633-0.191c0.367,0.301,0.498,0.212,0.975,0.136c0.678-0.109,1.355-0.21,2.033-0.314
	c2.795-0.43,5.625-1.018,8.289-1.986c2.977-1.082,5.939-2.522,8.543-4.333c1.752-1.219,3.424-2.55,5.1-3.869
	c0.621-0.488,1.24-0.976,1.859-1.463C82.631,12.918,81.26,13.3,79.889,13.682 M33.88,18.735c0-0.088-0.033-0.617,0.028-0.617
	c0.25,0,0.501,0,0.752,0c0.563,0,1.125,0,1.688,0c-0.023,0.235-0.01,0.361,0.059,0.588C35.564,18.716,34.722,18.726,33.88,18.735"/>
<rect id="sliceCopy_x5F_23_1_" x="88" fill="none" width="73.203" height="40"/>
<rect id="sliceCopy_x5F_22_1_" fill="none" width="88" height="40"/>
</svg>
