<?xml version="1.0" encoding="utf-8"?>
<!-- Generator: Adobe Illustrator 15.1.0, SVG Export Plug-In  -->
<!DOCTYPE svg PUBLIC "-//W3C//DTD SVG 1.1//EN" "http://www.w3.org/Graphics/SVG/1.1/DTD/svg11.dtd" [
	<!ENTITY ns_flows "http://ns.adobe.com/Flows/1.0/">
]>
<svg version="1.1"
	 xmlns="http://www.w3.org/2000/svg" xmlns:xlink="http://www.w3.org/1999/xlink" xmlns:a="http://ns.adobe.com/AdobeSVGViewerExtensions/3.0/"
	 x="0px" y="0px" width="60px" height="40px" viewBox="0.082 0 60 40" enable-background="new 0.082 0 60 40" xml:space="preserve">
<defs>
</defs>
<path d="M55.345,9.983c0,1.248,0.063,3.897-1.65,4.051c-1.051,0.094-2.088,0.184-3.143,0.215c-2.047,0.061-4.096,0.18-6.143,0.214
	c-1.113,0.02-2.221,0.032-3.332,0.111c-0.637,0.046-2.537-0.023-2.674,0.85c-0.156,1.013-0.068,2.066,0.105,3.074
	c0.076,0.441,0.285,0.908,0.285,1.355c0,0.152-0.674,0.976-0.76,0.984c-2.078,0.231-4.205,0.34-6.295,0.276
	c-1.01-0.031-2.102,0.059-3.098-0.099c-0.566-0.09-1.131-0.18-1.697-0.268c-0.555-0.088-0.781-0.369-1.357-0.261
	c-0.865,0.162-1.521,1.495-1.969,2.18c-1.055,1.617-1.732,3.398-2.422,5.202c-0.43,1.056-0.828,2.123-1.211,3.196
	c-0.404,1.132-1.125,2.513-1.227,3.675C18.696,35.472,18.288,36,17.591,36c-0.326,0-0.648,0-0.973,0c-3.215,0-6.428,0-9.641,0
	c0.035-0.41,0.137-0.79,0.236-1.188c-1.082,0-2.174-0.051-2.854-1.048c-0.76-1.188-0.133-2.715,0.189-3.946c0,0.032,0,0.063,0,0.097
	c1.271-1.662,2.359-3.474,3.512-5.219c0.582-0.88,1.223-1.725,1.832-2.585c0.59-0.831,0.92-1.993,1.344-2.921
	c0.877-1.928,1.02-4.739-1.082-5.893c-0.537-0.294-1.121-0.523-1.646-0.816c-0.52-0.29-0.615-1.042-0.629-1.593
	c-0.023-1.041,0-2.104,0-3.163c0-0.424,0-0.848,0-1.272c0-0.396-0.34-0.639-0.143-0.987C7.95,5.039,8.909,5.093,9.278,5.05
	c0.711-0.082,0.832-0.004,1.17-0.583c0.324-0.555,0.477-0.471,1.115-0.449c0.666,0.023,0.76,0.186,0.869,0.851
	c0.029,0.159,0.547,0.074,0.684,0.074c4.385,0,8.771,0,13.158,0c6.021,0,12.043,0,18.063,0c1.975,0,3.951,0,5.926,0
	c0.441,0,0.883,0,1.322,0c0.127,0,0.133,0.027,0.193-0.095c0.115-0.229,0.416-0.262,0.643-0.333
	c0.451-0.143,0.303-0.081,0.641,0.048C53.38,4.682,53.249,4.8,53.64,4.8c0.389,0,0.779,0,1.17,0c0.395,0,0.25,0.74,0.27,1.072
	C55.169,7.242,55.257,8.613,55.345,9.983 M35.464,14.883c-2.047,0-4.096,0-6.143,0c-0.9,0-1.18,0.381-1.18,1.334
	c0,0.453-0.301,2.803,0.578,2.803c2.08,0,4.162,0,6.244,0c0.713,0,1.119-0.316,1.119-1.12
	C36.083,17.427,36.401,14.883,35.464,14.883"/>
<rect id="sliceCopy_x5F_27_1_" x="59.346" fill="none" width="52.805" height="40"/>
<rect id="sliceCopy_x5F_26_1_" fill="none" width="59.346" height="40"/>
</svg>
