<?xml version="1.0" encoding="utf-8"?>
<!-- Generator: Adobe Illustrator 15.1.0, SVG Export Plug-In  -->
<!DOCTYPE svg PUBLIC "-//W3C//DTD SVG 1.1//EN" "http://www.w3.org/Graphics/SVG/1.1/DTD/svg11.dtd" [
	<!ENTITY ns_flows "http://ns.adobe.com/Flows/1.0/">
]>
<svg version="1.1"
	 xmlns="http://www.w3.org/2000/svg" xmlns:xlink="http://www.w3.org/1999/xlink" xmlns:a="http://ns.adobe.com/AdobeSVGViewerExtensions/3.0/"
	 x="0px" y="0px" width="114px" height="40px" viewBox="0.383 0 114 40" enable-background="new 0.383 0 114 40"
	 xml:space="preserve">
<defs>
</defs>
<path d="M109.303,18.864c-1.885,0.245-3.764,0.179-5.65,0.008c-0.254-0.023-0.436-0.182-0.695-0.182c-0.521,0-1.039,0-1.561,0
	c-1.27,0-2.537,0-3.807,0c-0.41,0-0.383,0.017-0.723,0.216c-0.373,0.219-0.748,0.425-1.188,0.206
	c-1.104-0.551-1.303,0.506-1.686,1.228c-0.219,0.412-0.797-0.372-0.797,0.366c0,0.562,0.219,1.117-0.389,1.31
	c-0.775,0.246-1.631-0.172-2.418-0.172c-0.639,0-1.277,0-1.916,0c-0.326,0-1.236-0.197-1.236,0.198c0,0.433,0.025,0.308-0.346,0.362
	c-0.236,0.035-0.531-0.032-0.77-0.047c-0.207-0.014-0.469,0.015-0.666-0.059c-0.324-0.121-0.248-0.171-0.377-0.454
	c0.34-0.283-0.787-0.172-0.996-0.172c-1.109,0-2.217,0-3.326,0c-2.67,0-5.338,0-8.006,0c-1.461,0-2.848,0.125-4.303,0.251
	c-0.414,0.035-0.828,0.074-1.244,0.114c-0.467,0.048-1.289,0.332-1.707,0.248c-0.238-0.048-0.428-0.25-0.611-0.396
	c-0.09-0.073-0.018-0.39-0.082-0.39c-0.402,0-0.803,0-1.205,0c-1.49,0-2.979,0-4.469,0c0.156,1.975,0.318,3.948,0.496,5.919
	c0.057,0.641,0.807,5.033,0.215,5.181c-1.924,0.482-3.852,0.851-5.818,1.125c-0.521,0.073-2.01,0.644-2.135-0.114
	c-0.154-0.937-0.217-1.902-0.32-2.844c-0.154-1.449-0.262-2.901-0.379-4.354c-0.057-0.723-0.115-1.446-0.174-2.168
	c-0.002-0.042-0.707-0.076-0.754,0.004c-0.18,0.306-0.311,0.844-0.758,0.703c0.113-0.245,0.23-0.489,0.346-0.735
	c-0.256,0-0.512,0-0.766,0c-0.229,0-0.104,0.103-0.162,0.278c-0.197,0.565-0.396,1.131-0.592,1.697
	c-0.156,0.45-0.529,1.303-1.047,1.404c-0.598,0.118-1.197,0.234-1.797,0.352c-0.355,0.069-0.613,0.034-0.98-0.012
	c-0.383-0.048-1.145,0.01-1.469-0.201c-0.391-0.251-0.762-0.455-1.184-0.652c-0.113-0.054-0.402-0.298-0.51-0.276
	c-0.197,0.041-0.355,0.495-0.426,0.635c-0.836,1.669-1.529,3.395-2.428,5.033c-0.193,0.353-0.436,0.649-0.807,0.788
	c-0.447,0.167-1.539-0.638-1.859-0.869c-0.854-0.616-1.707-1.233-2.563-1.849c-0.121-0.087-0.254-0.162-0.379-0.241
	c0.551-0.685,0.859-1.654,1.291-2.427c0.598-1.066,1.619-1.721,2.279-2.731c0.568-0.875,0.463-2.745-0.896-2.745
	c-1.17,0-2.338,0-3.508,0c-0.969,0-1.934,0-2.9,0c-0.764,0-1.584,0.378-2.297,0.622c-1.639,0.56-3.277,1.136-4.895,1.757
	c-3.723,1.429-7.469,2.788-11.227,4.127c-1.652,0.589-3.396,1-5.176,0.964C4.129,29.845,4,28.991,4,27.762
	c0-0.603,0.211-1.1,0.305-1.688c0.064-0.409-0.078-0.921,0.057-1.297c0.332-0.934,0.219-1.852,0.182-2.832
	c-0.016-0.365-0.035-0.714-0.082-1.076c-0.035-0.279-0.068-0.557-0.104-0.837c-0.016-0.113-0.164-0.161-0.227-0.361
	C3.988,19.214,4,18.803,4,18.328c0-0.543,0.605-0.543,1.023-0.648c0.924-0.232,1.91-0.198,2.857-0.198
	c0.438,0,0.875-0.021,1.311-0.039c0.344-0.015,0.434-0.999,0.686-1.258c0.584-0.601,2.129-0.414,2.895-0.43
	c1.836-0.038,3.672-0.077,5.506-0.114c1.002-0.02,2.004-0.042,3.006-0.06c0.502-0.008,1.004-0.018,1.508-0.024
	c0.166-0.003,1.145-0.144,1.264,0.013c0.514,0.667,0.762,1.764,1.801,1.419c0.84-0.279,1.646-0.702,2.398-1.167
	c0.914-0.564,2.01-1.449,3.119-1.449c0.906-0.037,1.814,0.002,2.723-0.039c0.484-0.022,0.906,0.086,1.219-0.287
	c0.389-0.469,0.531-0.67,1.086-0.987c0.76-0.434,1.494-0.036,2.299,0.165c0.359,0.09,1.301,0.933,0.617,1.149
	c0.477,0.087,0.389-0.119,0.389-0.511c0-0.287-0.342-0.432-0.492-0.694c-0.279-0.491-0.617-1.15-0.588-1.731
	c-0.967,0.148-1.934,0.297-2.898,0.451c-0.797,0.125-1.609,0.022-2.416,0.022c-1.027,0-2.055-0.001-3.082-0.021
	c-0.895-0.017-1.822-0.135-2.691-0.011c-1.002,0.144-2.025-0.019-3.031-0.088c-0.256-0.019-0.348-1.993-0.375-2.348
	c-0.039-0.509-0.035-0.953,0.01-1.462c0.035-0.419,0.27-0.762,0.334-1.145c0.105-0.631,1.943-0.32,2.443-0.32
	c1.824,0,3.668,0.118,5.492,0.18c1.881,0.065,3.859-0.056,5.727,0.169c0.857,0.103,1.811,0.395,2.672,0.34
	c1.025-0.067,2.047-0.114,3.072-0.154C44.748,7.018,45.615,7,46.482,6.991c0.461-0.006,0.902,0.014,1.357-0.058
	c0.123-0.018,0.449-0.006,0.543-0.072c0.344-0.247,0.266-0.544,0.775-0.691c0.775-0.366,1.57-0.043,2.361,0.078
	c0.176,0.027,0.268,0.294,0.404,0.398c0.146,0.185,0.621,0.306,0.863,0.346c0.826,0.133,1.762,0.155,2.602,0.113
	c2.016-0.102,4.008-0.314,6.016-0.494c0.939-0.083,1.883-0.074,2.824-0.091c0.746-0.013,2.271-0.081,2.746,0.594
	c0.482,0.683,0.418,2.113,0.191,2.865c-0.156,0.516-0.531,0.982-0.811,1.439c-0.207,0.341-2.541,0.15-2.865,0.15
	c-1.02,0-2.072-0.005-3.08-0.133c-1.088-0.135-2.23-0.423-3.313-0.22c-0.439,0.083-1.205-0.199-1.59,0.006
	c-0.16,0.086-0.332,0.542-0.424,0.694c-0.195,0.319-0.186,0.183-0.455,0.331c-0.992,0.542-2.326,0.987-2.705,2.127
	c7.971,0,15.943,0,23.918,0c1.15,0,2.297-0.295,3.445-0.347c0.361-0.016,0.738,0,1.096-0.067c0.516-0.097,0.559-0.221,0.967-0.493
	c0.32-0.214,0.715-0.128,1.094-0.128c0.537,0,0.678-0.089,0.996,0.345c0.467,0.64,0.439,0.604,1.195,0.604c1.008,0,2.016,0,3.021,0
	c1.662,0,3.322,0,4.98,0c-0.127-0.457-0.643-1.774-0.238-2.181c0.303-0.301,0.656-0.737,1.078-0.86
	c0.234-0.069,0.973,0.069,1.053,0.295c0.301,0.86,0.451,1.688,0.609,2.587c0.064,0.353,0.047,0.703,0.047,1.061
	c0,0.309-0.057,0.262,0.172,0.405c0.244,0.151,0.24,0.487,0.043,0.679c0.221,0.002,0.479-0.172,0.6-0.172c0.193,0,0.387,0,0.582,0
	c0.24,0,0.24,0.093,0.416,0.129c0.344,0.071,0.695,0.042,1.047,0.042c1.795,0,3.59,0,5.385,0c1.77,0,3.535,0,5.305,0
	c0.313,0,0.709-0.109,0.914,0.173c0.15,0.208,0.104,0.847,0.133,1.102C109.84,18.02,109.9,18.726,109.303,18.864 M41.992,24.304
	c-0.826,0.814,1.682,1.338,2.16,1.338c1.012,0,2.285,0.259,2.668-0.932c0.158-0.494,0.646-1.276-0.17-1.127
	c-0.576,0.104-0.932,0.291-1.543,0.291C44.043,23.873,43.021,24.03,41.992,24.304"/>
<rect id="sliceCopy_x5F_50_1_" x="113.817" fill="none" width="113.213" height="40"/>
<rect id="sliceCopy_x5F_49_1_" fill="none" width="113.816" height="40"/>
</svg>
