<?xml version="1.0" encoding="utf-8"?>
<!-- Generator: Adobe Illustrator 15.1.0, SVG Export Plug-In  -->
<!DOCTYPE svg PUBLIC "-//W3C//DTD SVG 1.1//EN" "http://www.w3.org/Graphics/SVG/1.1/DTD/svg11.dtd" [
	<!ENTITY ns_flows "http://ns.adobe.com/Flows/1.0/">
]>
<svg version="1.1"
	 xmlns="http://www.w3.org/2000/svg" xmlns:xlink="http://www.w3.org/1999/xlink" xmlns:a="http://ns.adobe.com/AdobeSVGViewerExtensions/3.0/"
	 x="0px" y="0px" width="106px" height="40px" viewBox="0.931 0 106 40" enable-background="new 0.931 0 106 40"
	 xml:space="preserve">
<defs>
</defs>
<path d="M53.07,21.232c0-1.862-2.195-1.415-3.436-1.415c-0.672,0,0.037,2.086,0.113,2.441c-0.354,0.234-0.986-0.743-1.123-0.929
	c-0.346-0.412-0.348-1.005-0.391-1.512c-0.93,0.618-1.42,1.331-0.826,2.447c0.494,0.929,1.34,0.824,2.229,0.824
	c0.732,0,1.516,0.081,2.246-0.017C52.906,22.933,52.906,22.042,53.07,21.232 M90.232,8.877c0.016,0.174,0.092,1.221,0.363,1.221
	c0.666,0,1.33,0,1.996,0c0.371,0,0.223-0.853,0.238-1.16c0.031-0.573,0.059-1.147,0.088-1.721c-0.426,0-1.502-0.213-1.855,0
	C90.732,7.416,90.404,8.504,90.232,8.877 M95.652,13.907c-0.074-0.038-0.33-0.293-0.371-0.293c-0.305,0-0.609,0-0.914,0
	c-0.713,0-0.744,0.228-1.182,0.802c-0.367,0.48-0.975-0.322-1.197-0.411c-0.418-0.17-1.254,0-1.701,0
	c-0.152,0-1.324-0.067-1.324,0.058c0,0.941-0.184,1.223-1.057,1.584c-0.359,0.147-0.816,0.067-1.199,0.067
	c-5.574,0-11.148,0-16.723,0c-1.539,0-3.078,0-4.615,0c-0.967,0-1.447,0.143-1.898-0.879c-0.15,0.247-0.303,0.494-0.453,0.741
	c-0.055,0.09-0.426,0.232-0.426,0.146c0,0.445,0,0.89,0,1.335c0,1.356,0,2.713,0,4.07c0,0.362,0.518,0.562,0.254,0.827
	c-0.521,0.52-0.418,1.035-0.367,1.732c0.08,1.062,0.043,2.209,0.211,3.257c0.328,2.061,1.148,4.17,1.758,6.154
	c0.068,0.217,0.42,0.119,0.098,0.488c-0.027,0.033-0.156,0.051-0.195,0.062c-0.494,0.158-0.99,0.314-1.484,0.47
	c-1.451,0.459-2.9,0.919-4.354,1.377c-0.426,0.136-1.775,0.861-2.121,0.288c-0.115-0.192-0.139-1.016-0.195-1.253
	c-0.168-0.678-0.354-1.344-0.541-2.016c-0.643-2.331-1.1-4.759-1.168-7.181c0-0.265,0.199-1.125,0.051-1.32
	c-0.074-0.097-0.469-0.143-0.59-0.181c-0.109-0.035-0.047-0.437-0.047-0.552c-0.262,0.26-0.463,0.635-0.842,0.635
	c-0.637,0-1.268,0-1.902,0c-0.748,0-1.492,0-2.24,0c-0.32,0-0.916-0.12-1.219,0c-0.523,0.208-0.555,0.866-1.035,0.063
	c-0.402-0.672-1.09,0.396-1.283,0.693c-0.375,0.587-0.691,0.73-0.391,1.454c0.115,0.273,0.334,0.468,0.041,0.615
	c-0.373,0.185-0.924,0.326-1.184,0.655c-0.639,0.813-1.061,1.94-1.502,2.878c-0.307,0.647-0.537,0.816-0.205,1.438
	c0.408,0.759,0.23,0.895-0.471,0.918c-1.16,0.039-7.844,0.565-6.377-1.964c1.744-3.008,3.488-6.018,5.234-9.026
	c0.242-0.417,0.484-0.834,0.725-1.25c0.404-0.695,0.18-2.125-0.541-2.567c-0.639-0.39-1.574,0.313-2.105-0.414
	c-0.402-0.547-0.264-2.337-0.135-2.917c-0.266,0.021-0.471-0.087-0.715-0.181c-0.127-0.051-0.213-0.308-0.189-0.308
	c-0.408,0-0.814,0-1.225,0c-1.516,0-3.031,0-4.547,0c-0.5,0-1,0-1.5,0c-0.42,0-0.34,0.677-0.58,1.021
	c-0.693,0.999-1.902,1.44-2.494,2.525c-0.236,0.437-0.346,1.044-0.873,1.044c-0.898,0-0.861-0.011-1.303,0.763
	c-0.301,0.528-0.248,0.605-0.832,0.605c-0.721,0-1.443,0-2.164,0c-0.523,0,0.002-0.732-0.326-0.732c-0.33,0-1.369-0.186-1.623,0.005
	c-0.99,0.747-1.98,1.492-2.973,2.24c-0.387,0.291-0.773,0.583-1.162,0.875c-0.648,0.489-0.912,0.237-0.984-0.482
	c-2.023,1.302-4.047,2.605-6.07,3.908c-0.615,0.396-1.652,0.76-1.838,1.501c-0.285,1.137-1.695,0.994-2.426,0.336
	c-0.66-0.59-0.604-1.174-0.604-1.987c0-1.213,0-2.427,0-3.641c0-2.955,0-5.91,0-8.866c0-0.618-0.145-1.511,0.107-2.104
	c0.406-0.945,1.396-0.964,2.266-0.964c2.186,0,4.375,0,6.563,0c5.473,0,10.943,0,16.416,0c0.463,0,0.932-0.144,1.084,0.451
	c0.104,0.427,0.158,0.33,0.584,0.33c0.656,0,1.314,0,1.973,0c1.383,0,2.77,0,4.154,0c0.578,0,0.145-0.193,0.449-0.311
	c0.6-0.23,1.033-0.226,1.684-0.226c0.35,0-0.037-0.912,0.189-1.138c0.336-0.336,1.033-0.385,1.5-0.425c0.512-0.044,1.047,0,1.561,0
	c0.277,0,1.252,0.165,1.424-0.081c0.256-0.364,0.883-0.953,0.971-1.384c0.131-0.651-0.957-0.842-1.176-1.415
	c-0.432-1.131,0.768-2.193,1.859-1.748c0.861,0.354,0.877,1.13,0.877,1.907c0,0.682,0,1.363,0,2.046
	c0,0.235-0.043,0.235,0.207,0.235c0.5,0,0.381-0.088,0.381-0.578c0-0.411,1.094-0.203,1.449-0.203c0.234,0,0.357-0.086,0.357,0.16
	c0,0.071-0.004,0.865-0.004,0.865c2.172,0,4.336,0,6.5,0c2.395,0,4.789,0,7.186,0c0.461,0,0.66,0.344,0.891,0.687
	c0.182,0.275,0.49-0.09,0.662-0.247c0.236-0.086,0.666,0,0.916,0c0.203,0,0.531,0.101,0.576-0.122
	c0.047-0.238,0.176-0.367,0.434-0.367c0.18,0,0.357,0,0.535,0c4.154,0,8.307,0,12.463,0c2.148,0,4.297,0,6.447,0
	c0.945,0,2.424-0.335,3.047,0.537c0.643-0.885,1.291-1.755,1.967-2.615c0.201-0.257,0.502-0.808,0.848-0.876
	c0.588-0.118,1.107-0.219,1.703-0.219c0.518,0,0.609-0.135,0.609,0.359c0,0.665,0,1.328,0,1.992c0,1.276,0,2.553,0,3.83
	c0,0.158,1.059,0.069,1.236,0.069c0.375,0,0.486-0.439,0.891-0.439c1.303,0,2.605,0,3.908,0c1.154,0,2.904-0.352,2.904,1.347
	c0,1.39-0.838,1.438-1.953,1.438C99.008,13.907,97.33,13.907,95.652,13.907"/>
<rect id="sliceCopy_x5F_43_1_" x="106.639" fill="none" width="120.306" height="40"/>
<rect id="sliceCopy_x5F_42_1_" fill="none" width="106.639" height="40"/>
</svg>
