<?xml version="1.0" encoding="utf-8"?>
<!-- Generator: Adobe Illustrator 15.1.0, SVG Export Plug-In  -->
<!DOCTYPE svg PUBLIC "-//W3C//DTD SVG 1.1//EN" "http://www.w3.org/Graphics/SVG/1.1/DTD/svg11.dtd" [
	<!ENTITY ns_flows "http://ns.adobe.com/Flows/1.0/">
]>
<svg version="1.1"
	 xmlns="http://www.w3.org/2000/svg" xmlns:xlink="http://www.w3.org/1999/xlink" xmlns:a="http://ns.adobe.com/AdobeSVGViewerExtensions/3.0/"
	 x="0px" y="0px" width="137px" height="40px" viewBox="0.128 0 137 40" enable-background="new 0.128 0 137 40"
	 xml:space="preserve">
<defs>
</defs>
<path d="M132.043,15.743l-23.484-0.052l-0.053-0.923l0.461-0.051l0.051-0.359l-7.537-0.103v-0.205l-3.129,0.052l-0.615,0.204
	l-5.434-0.051l1.078,0.205v0.923l-0.258,0.308l-1.18-0.051v0.41h-0.871v-1.539h0.203v-0.205l-3.332-0.102l-0.104,0.307l-0.102,0.77
	l-0.102,0.154l-0.256,0.103l-0.258-0.154l-0.205-0.103l0.053-0.718l-0.104-0.308h-0.668l-0.051,1.128l-0.205,0.205l-0.203,0.154
	h-0.359l-0.309,0.667L66.15,16.563l-0.359-0.205l-0.461-0.103l-0.975,0.358l-0.102-1.282l-0.924,0.052l0.051,0.82l-0.051,0.103
	l-0.152,0.257l-0.309,0.103l-0.154,0.051l-0.154-0.051c-0.137,0-0.238,0.067-0.307,0.205l-0.205,0.308l-0.104,0.205v4.358
	l0.309,0.104l0.051,0.36l-0.666,0.257v1.588c0.066,1.232,0.221,2.377,0.461,3.437l1.127,3.999l0.668,2.104l0.205,0.257L56.355,36
	H56.15v-0.207l-0.82-2.718l-1.18-4.563l-0.41-3.078l-0.102-1.332l-0.564,0.103l-0.719-0.103h-4.818l-1.59,0.153h-0.258
	c-0.238,0-0.428,0.051-0.563,0.153l-0.309,0.308l-1.127,2.153l0.563,0.667l-0.152,0.103c-0.205,0.068-0.445,0.172-0.719,0.309
	l-0.359,0.307l-0.102,0.153l-2.205,4.309l-0.053,0.41l0.258,0.409l0.205,0.154l-0.205,0.462l-7.23-1.691l6.512-11.281l0.154-0.463
	l0.102-0.923l-0.357-0.922l-0.564-0.615l-0.615-0.308l-1.641-0.052v0.205l-0.463,0.051l-0.051-2.82l-1.281-0.051l-0.053-0.462
	h-5.178l-1.23,0.924l-4.873,0.103v0.461l-4.256,0.052l0.051,2.666h-2.973v1.077h-1.436v-1.025l-4.82,3.025v-2.461l-6.104,2.769
	l-0.051,1.025l-0.051,0.154l-0.256,0.204l-0.205-0.204L4,23.435l0.104-13.64h5.436L9.744,10l0.154,0.718l13.998,0.153l0.154,0.103
	l0.102,0.257l11.334,0.052l-0.053-0.462h1.334v-0.359l0.461-0.051l0.053,0.359l1.332-0.052v-0.615h1.334l0.102,0.103l3.436-5.486
	l0.154-0.206l0.41-0.307L44.563,4h0.307l17.076,1.846l0.514,0.104l0.871,0.513l0.514,0.871l0.203,0.462l-0.102,3.333l0.359-0.052
	l0.051-1.486l1.076,0.205V9.436l0.359-0.051V9.282l0.104-0.154l0.256-0.103l18.973,0.308l0.205,0.41v0.513l0.514,0.052l0.102,0.052
	l0.154,0.204l0.102,1.231h0.666l0.053-2l3.129-4.41l0.307-0.256c0.205-0.172,0.41-0.239,0.615-0.206
	c0.514,0.069,0.889,0.257,1.129,0.564l0.152,0.358L92.199,6l0.051,5.795h5.436l0.719,0.256l3.076-0.052v-0.204h7.539V10.41h22.973
	l0.205,0.205v4.872L132.043,15.743 M91.123,8.77l-0.256-0.258l-0.205-0.666l-0.051-0.513L89.43,7.23l-1.846,2.872l0.258,0.205h3.486
	L91.584,10V8.77H91.123 M87.893,11.795h3.281l0.154-0.513h-3.436V11.795 M62.201,6.77l-0.152-0.103H47.689h-0.357l-0.564,0.256
	l-0.463,0.462L46.1,7.641l-0.82,2l0.309,0.308l16.357-0.102l0.205-0.052l0.41-0.205c0.41-0.274,0.617-0.719,0.617-1.334
	c0-0.513-0.189-0.923-0.566-1.229L62.201,6.77 M8.924,16.307l-0.205-0.051H4.924l-0.205,0.051l-0.154,0.308l0.205,0.257l0.154,0.102
	H8.77l0.154-0.152l0.154-0.257L8.924,16.307 M4.564,10.256v0.564h4.871l-0.051-0.359L9.23,10.256l-0.205-0.051L4.564,10.256
	 M51.689,20.051l-0.41-0.154h-1.947l-0.463,0.462c-0.273,0.443-0.428,0.854-0.461,1.23c-0.033,0.375,0.084,0.751,0.359,1.129
	l0.461,0.409l-0.205,0.152l-0.666-0.513c-0.445-0.409-0.686-0.853-0.719-1.332c-0.033-0.308,0.035-0.666,0.205-1.076l0.205-0.462
	l-0.871,0.308c-0.615,0.41-0.891,1.01-0.82,1.795c0.035,0.445,0.256,0.855,0.666,1.231l0.615,0.461h4.615v-0.615l0.41-0.615
	c0.172-0.479,0.137-1.01-0.102-1.591L51.689,20.051"/>
<rect id="sliceCopy_x5F_42_1_" x="136.197" fill="none" width="106.639" height="40"/>
<rect id="sliceCopy_x5F_41_1_" fill="none" width="136.197" height="40"/>
</svg>
