<?xml version="1.0" encoding="utf-8"?>
<!-- Generator: Adobe Illustrator 15.1.0, SVG Export Plug-In  -->
<!DOCTYPE svg PUBLIC "-//W3C//DTD SVG 1.1//EN" "http://www.w3.org/Graphics/SVG/1.1/DTD/svg11.dtd" [
	<!ENTITY ns_flows "http://ns.adobe.com/Flows/1.0/">
]>
<svg version="1.1"
	 xmlns="http://www.w3.org/2000/svg" xmlns:xlink="http://www.w3.org/1999/xlink" xmlns:a="http://ns.adobe.com/AdobeSVGViewerExtensions/3.0/"
	 x="0px" y="0px" width="63px" height="40px" viewBox="0.945 0 63 40" enable-background="new 0.945 0 63 40" xml:space="preserve">
<defs>
</defs>
<path d="M29.965,4.83c0.885-0.461,1.518-1.202,2.396-0.611c0.273,0.184,0.648,0.38,0.891,0.611c0.252,0.238,0.234,0.259,0.234,0.656
	c0,0.06-0.018,0.752,0.021,0.752c4.695,0,9.391,0,14.086,0c1.967,0,3.936,0,5.902,0c0.256,0,0.068-0.004,0.18-0.141
	c0.047-0.056-0.031-0.215,0-0.281c0.059-0.118,0.094-0.068,0.188-0.188c0.09-0.117,0.518-0.657,0.684-0.657
	c0.469,0,0.998-0.097,1.336,0.141c0.068,0.049,0.328,0.353,0.328,0.423c0,0.105,0.283,0.16,0.283,0.375
	c0,0.091-0.039,0.262,0.047,0.305c0.014,0.007,0.328,0.271,0.328,0.234c0,0.4,0.387,0.232,0.518,0.446
	c0.098,0.161-0.137,0.73,0.049,0.822c0.078,0.041,0.186,0.416,0.186,0.54c0,0.079-0.023,0.207,0,0.282
	c-0.061-0.185,0.449,0.234,0.26,0.234c0.451,0,1.041-0.109,1.479,0c-0.08-0.02,0.281,0.27,0.281,0.188c0,0.104-0.02,0.226,0,0.33
	c0.063,0.365,0,0.802,0,1.174c0,0.188,0,0.375,0,0.563c0,0.416-0.254,0.278-0.646,0.268c-0.348-0.009-1.117-0.159-1.373,0.014
	c-0.049,0.032-0.141,0.579-0.141,0.656c0,0.139-0.238,0.563-0.33,0.587c-0.125,0.032-0.143,0.353-0.258,0.47
	c-0.068,0.07-0.305,0.38-0.305,0.376c0,0.447-0.494,0.223-0.75,0.211c-1.969-0.095-3.957-0.027-5.926-0.041
	c-2.447-0.017-4.893-0.033-7.338-0.05c-0.191-0.001-0.268,0.045-0.418,0.045c-0.555-0.001-0.639-0.106-0.639,0.422
	c0,0.392,0,0.782,0,1.174s0,0.782,0,1.174c0,0.47-1.705,0.328-2.137,0.328c-0.656,0-0.959,1.067-1.408,1.526
	c-0.236,0.241-0.682,0.558-0.682,0.963c0,0.494,0,0.988,0,1.482c0,0.32,0,0.64,0,0.959c0,0.141,0,0.282,0,0.423
	c0,0.084,0.447,0,0.539,0.188c0.199,0.401,0.092,1.139,0.023,1.502c-0.098,0.515-0.102,0.709-0.563,0.939
	c-0.336,0.168-0.496,0.381-0.564,0.798c-0.123,0.736,0,1.6,0,2.348c0,2.442,0,4.883,0,7.326c0,0.162,0.096,0.742,0,0.844
	c-0.086,0.091-0.766,0-0.885,0c-1.422,0-2.84,0-4.262,0c-0.588,0-1.176,0-1.764,0c-0.422,0-0.51,0.085-0.65-0.188
	c-0.178-0.351,0-1.357,0-1.784c0-2.989,0-5.977,0-8.967c-0.275,0.204-0.277,0.656-0.723,0.656c-0.215,0-1.67-0.039-1.67-0.329
	c0-0.411-0.094-1.175-0.094-1.737c0-0.097,0.004-0.987-0.01-0.987c-0.768,0-1.535,0-2.303,0c-0.986,0-1.973,0-2.961,0
	c-0.473,0.001-0.268,0.625-0.268,1.034c-1.059-0.016-2.119-0.031-3.178-0.047c-0.238-0.004-0.455,1.21-0.555,1.243
	c-0.068,0.022-0.305,0.423-0.305,0.54c0,0.307-0.148,0.38-0.281,0.657c-0.186,0.384-0.322,0.802-0.471,1.174
	c-0.1,0.251-0.068,0.375-0.186,0.611c-0.098,0.194-0.254,0.493-0.33,0.656c-0.182,0.389-0.26,0.712-0.375,1.127
	c-0.033,0.12-0.236,0.375-0.283,0.516c-0.074,0.232-0.168,0.5-0.234,0.752c-0.121,0.461-0.041,0.284,0.141,0.609
	c0.068,0.118,0.236,0.531,0.236,0.657c0,0.49,0.088,1.288-0.377,1.502c-0.291,0.135-0.92-0.137-1.063-0.141
	c-0.43-0.017-0.971-0.08-1.326-0.098c-1.066-0.055-2.074-0.142-3.137-0.168c-0.869-0.019-1.633-0.202-2.615-0.202
	c-0.299,0-0.566-0.127-0.855-0.151c-0.365-0.028-1.146,0.118-1.146-0.341c0,0.011-0.602-0.209-0.703-0.399
	c-0.119-0.219-0.094-0.437-0.094-0.705c0-0.919,0.236-1.536,0.422-2.394c0.08-0.372,0.258-0.729,0.375-1.127
	c0.033-0.109,0.07-0.209,0.096-0.281c0.055-0.161,0.123-0.151,0.188-0.282c0.084-0.174-0.008-0.464,0.141-0.611
	c0.574-0.571,1.012-1.564,1.361-2.348c0.385-0.864,1.059-1.597,1.408-2.3c0.105-0.213,0.262-0.364,0.377-0.517
	c0.059-0.083,0.375-0.546,0.375-0.61c0-0.463,0.609-0.737,0.609-1.244c0-0.03,0.191-0.57,0.236-0.681
	c0.117-0.307,0.354-0.371,0.281-0.751c-0.033-0.169-0.27-0.503-0.377-0.657c-0.125-0.181-0.25-0.484-0.445-0.681
	c-0.256-0.253-0.305-0.437-0.305-0.845c0-0.422-0.893-0.211-1.242-0.211c-0.441,0-0.881-0.059-1.176-0.118
	c-0.303-0.06-0.439-0.441-0.68-0.563c-0.117-0.058-0.379-0.401-0.471-0.493c-0.121-0.122-0.375-0.386-0.375-0.61
	c0-0.271-0.094-0.932-0.094-1.362c0-0.782,0-1.565,0-2.348c0-0.501,0.094-1.092,0.094-1.455c0-0.251-0.043-0.517,0.168-0.587
	C5.168,8.307,5.188,8.22,5.316,8.117C5.389,8.06,5.521,8.032,5.598,7.976c0.021-0.017,0.045-0.188,0.094-0.235
	c0.025-0.023,0.383-0.238,0.438-0.259c0.18-0.071,0.189-0.171,0.314-0.257C6.719,7.034,7.07,6.819,7.381,6.66
	c0.348-0.177,1.332-0.609,1.223-1.079c0.113,0.044,0.262,0,0.375,0.047C8.906,5.067,9.248,4.83,9.754,4.854
	c0.262,0.013,0.867-0.02,0.867,0.281c0,0.113,0.088,0.66,0.141,0.728c0.162,0.203,0.848,0.096,1.168,0.097
	c1.104,0.003,2.205,0.006,3.307,0.008c4.875,0.012,9.748,0.023,14.623,0.036c0.02,0,0.039,0,0.061,0
	C29.92,5.657,29.844,5.092,29.965,4.83 M27.242,18.54c-0.188-0.375-0.229-1.035-0.656-1.22c-0.316-0.137-0.971-0.047-1.316-0.047
	c-0.625,0-1.25,0-1.877,0c0.1,0.592,0.721,1.187,1.127,1.548c0.164,0.146,0.809,0.385,0.846,0.61
	c0.072,0.438-0.479,0.715-0.869,0.587c-0.773-0.256-1.184-0.41-1.76-1.01c-0.139-0.143-0.658-0.496-0.658-0.657
	c0-0.129-0.318-0.731-0.398-0.893c-0.035-0.067-0.01-0.117-0.023-0.188c-0.676,0.124-0.529,1.042-0.893,1.409
	c-0.145,0.145-0.375,0.751-0.375,0.915c0,0.283-0.375,0.625-0.375,0.893c0,0.157,6.176,0.154,6.902,0.164
	c-0.049-0.261,0.02-0.351,0.188-0.517c0.043-0.042,0.33-0.56,0.33-0.516c0-0.245,0.057-0.294,0-0.517
	C27.377,18.892,27.234,18.743,27.242,18.54"/>
<rect id="sliceCopy_x5F_31_1_" x="63.669" fill="none" width="65.054" height="40"/>
<rect id="sliceCopy_x5F_30_1_" fill="none" width="63.669" height="40"/>
</svg>
