<?xml version="1.0" encoding="utf-8"?>
<!-- Generator: Adobe Illustrator 15.1.0, SVG Export Plug-In  -->
<!DOCTYPE svg PUBLIC "-//W3C//DTD SVG 1.1//EN" "http://www.w3.org/Graphics/SVG/1.1/DTD/svg11.dtd" [
	<!ENTITY ns_flows "http://ns.adobe.com/Flows/1.0/">
]>
<svg version="1.1"
	 xmlns="http://www.w3.org/2000/svg" xmlns:xlink="http://www.w3.org/1999/xlink" xmlns:a="http://ns.adobe.com/AdobeSVGViewerExtensions/3.0/"
	 x="0px" y="0px" width="53px" height="40px" viewBox="0.618 0 53 40" enable-background="new 0.618 0 53 40" xml:space="preserve">
<defs>
</defs>
<path d="M49.094,9.701c0,0.879,0.135,1.34-0.459,1.984c-0.35,0.379-1.695,0.123-2.195,0.123c-0.834,0-0.65,0.497-0.65,1.203
	c0,0.555,0.314,1.433-0.346,1.433c-1.813,0-3.625,0-5.439,0c-0.715,0-0.389,0.39-0.324,0.981c0.045,0.408-0.5,0.384-0.418,0.772
	c0.072,0.34,0.141,0.681,0.201,1.023c-0.885,0-1.768-0.017-2.652-0.047c-0.201-0.007-1.086,1.877-1.309,2.137
	c-0.469,0.542-0.834,1.023-1.572,1.212c-0.473,0.12-1.002,0.066-1.484,0.076c-1.406,0.027-2.539-0.041-3.762-0.839
	c0,2.376,0,4.754,0,7.131c0,0.434,0,0.867,0,1.302c0,0.469-0.564,0.107-0.766,0.381c-0.09,0.123,0,0.653,0,0.797
	c0,0.691,0,1.382,0,2.073c0,1.363,0,2.728,0,4.091c0,0.124,0.08,0.465-0.074,0.465c-0.537,0-1.074,0-1.609,0
	c-1.283,0-2.564,0-3.848,0c-0.162,0-0.074-2.17-0.074-2.4c0-1.416,0-2.829,0-4.244c0-0.9-0.373-0.781-1.223-0.781
	c-0.67,0-1.342,0-2.012,0c-0.516,0-0.66-0.476-0.957-0.879c-0.105-0.142,0.145-0.777,0.18-0.938c0.17-0.753,0.34-1.506,0.51-2.26
	c0.438-1.94,0.855-3.889,1.324-5.821c0.146-0.606,0.266-0.785-0.023-1.316c-0.346-0.639-0.658-1.399-1.18-1.921
	c-0.627-0.627-2.438-0.265-3.219-0.206c-0.41,0.03-0.635,0.312-0.924,0.601c-0.439,0.44-0.785-0.345-1.004-0.481
	c-0.213-0.134-0.938,0-1.18,0c-0.785,0-1.57,0-2.355,0c-0.072,0-1.016-0.016-1.016,0.013c0,0.587,0,1.173,0,1.76
	c0,0.573,0,1.146,0,1.721c0,0.076-0.986,0.339-1.197,0.339c-0.574,0-0.934-0.06-1.477-0.216c-0.471-0.136-1.041-0.003-1.494-0.167
	c-0.367-0.133-0.734-0.581-0.91-0.91c-0.416-0.775,0.125-1.568,0.195-2.335c0.188-2.062,0.17-4.167,0.279-6.24
	c0.063-1.155,0.123-2.31,0.186-3.465C4.855,5.124,5.992,4.697,5.977,4c4.141,0.244,8.277,0.562,12.381,1.165
	c0.395,0.059,0.803,0.129,1.201,0.129c0,0,0.244,0.273,0.264,0.335c0.109,0.341-0.014,0.488-0.264,0.648
	c-0.846,0.545-1.922,0.405-2.896,0.405c-0.955,0-1.902-0.089-2.855-0.16c-0.713-0.053-1.428-0.106-2.143-0.159
	c-0.139-0.011-0.896,0.031-0.967-0.111c-0.008-0.017-0.018-0.033-0.025-0.048c-0.105,0.641,0.402,0.442,0.898,0.48
	c0.545,0.043,1.09,0.08,1.631,0.145c1.074,0.128,2.119,0.141,3.201,0.141c1.875,0,3.75,0,5.625,0c2.18,0,4.357,0,6.535,0
	c1.309,0,2.615,0,3.924,0c0.215,0,0.18-0.684,0.215-0.898c0.098-0.578-0.07-0.796,0.521-0.865c0.832-0.097,1.848-0.186,2.656,0.036
	c0.359,0.098,0.549,0.536,0.699,0.86c0.211,0.45,0.168,0.436,0.637,0.436c1.24,0,2.48,0,3.721,0c0.178,0,0.357,0,0.535,0
	c0.258,0,0.049-0.049,0.15-0.239C41.77,6.02,41.623,5.627,41.9,5.517c0.553-0.221,2.486-1.297,3.068-0.812
	c0.861,0.719,0.678,1.348,0.678,2.432c0,0.535-0.299,2.036,0.623,2.036c0.602,0,1.205,0,1.807,0
	C48.732,9.174,48.734,9.134,49.094,9.701 M29.404,18.804c1.184,0.417,2.367,0.287,3.621,0.287c1.021,0,2.223-0.265,1.936-1.629
	c-0.313-1.489-2.244-1.054-3.389-1.054c-0.563,0-1.402-0.135-1.928,0.127C28.912,16.9,28.719,18.286,29.404,18.804 M7.223,6.778
	c-0.463,0-0.67-0.069-0.67,0.481c0,0.395,0.006,0.786,0.02,1.18c0.031,0.807,0.104,1.606,0.172,2.411
	c0.318-1.326,0.648-2.627,1.055-3.929C7.605,6.875,7.414,6.827,7.223,6.778"/>
<rect id="sliceCopy_x5F_38_1_" x="53.106" fill="none" width="106.002" height="40"/>
<rect id="sliceCopy_x5F_37_1_" fill="none" width="53.106" height="40"/>
</svg>
