<?xml version="1.0" encoding="utf-8"?>
<!-- Generator: Adobe Illustrator 15.1.0, SVG Export Plug-In  -->
<!DOCTYPE svg PUBLIC "-//W3C//DTD SVG 1.1//EN" "http://www.w3.org/Graphics/SVG/1.1/DTD/svg11.dtd" [
	<!ENTITY ns_flows "http://ns.adobe.com/Flows/1.0/">
]>
<svg version="1.1"
	 xmlns="http://www.w3.org/2000/svg" xmlns:xlink="http://www.w3.org/1999/xlink" xmlns:a="http://ns.adobe.com/AdobeSVGViewerExtensions/3.0/"
	 x="0px" y="0px" width="88px" height="40px" viewBox="0.77 0 88 40" enable-background="new 0.77 0 88 40" xml:space="preserve">
<defs>
</defs>
<path d="M39.819,18.713c-3.816-2.521-8.456-3.205-12.911-3.655c-1.623-0.165-3.235-0.311-4.863-0.412
	c-0.538-0.034-1.075-0.068-1.613-0.1c-0.159-0.01-0.318-0.02-0.479-0.03c-0.18-0.011-0.169-0.156-0.402-0.156
	c-0.279-0.069-0.704,0.03-0.877-0.277c-0.225-0.399-0.446-0.789-0.7-1.168c-0.246-0.37-0.446-0.301-0.539,0.159
	c-0.094,0.473-0.188,0.947-0.284,1.42c-0.203,1.018-0.425,1.974-1.147,2.757c-0.984,1.065-2.342,1.691-3.772,1.313
	c-0.854-0.298-1.648-0.852-1.924-1.745c-0.147-0.478-0.106-1.026-0.133-1.523c-0.059-1.112,0.609-2.198,1.063-3.181
	c0.227-0.489,0.27-0.789,0.023-1.25c-0.413-0.775-0.994-1.449-1.688-1.99C9.208,8.592,8.341,7.818,7.863,8.289
	c-0.44,0.432-0.74,1.047-1.037,1.579c-0.912,1.633-1.894,3.363-2.373,5.185c-0.599,2.272-0.47,4.667-0.36,6.989
	c0.062,1.277,0.086,2.79,0.668,3.954c0.381,0.835,0.833,1.644,1.248,2.462c0.539,1.065,1.062,2.352,1.961,3.167
	c0.946,0.857,2.176-0.845,2.719-1.498c0.365-0.437,0.684-0.875,0.757-1.468c0.054-0.435-0.254-0.8-0.428-1.177
	c-0.237-0.514-0.438-1.049-0.557-1.603c-0.169-0.794-0.134-1.824,0.188-2.578c0.377-0.881,1.509-1.326,2.402-1.386
	c0.962-0.066,1.745,0.299,2.438,0.949c0.495,0.464,1.428,1.289,1.51,2.023c0.072,0.657,0.033,1.829,0.373,2.421
	c0.525,0.918,0.96-1.144,1.193-1.299c0.612-0.407,1.681-0.378,2.405-0.446c1.608-0.147,3.206-0.312,4.809-0.513
	c2.037-0.257,4.112-0.418,6.12-0.867c3.532-0.786,6.885-2.261,10.021-4.045C41.246,19.593,40.566,19.161,39.819,18.713
	C38.268,17.688,39.819,18.713,39.819,18.713z M7.05,11.394c0.205-0.387,0.612-1.51,1.192-1.409c0.578,0.102,0.951,0.505,1.378,0.867
	c0.518,0.44-0.164,2.463-0.291,3.055c-0.106,0.503-0.234,0.714-0.777,0.49c-0.391-0.161-0.767-0.391-1.143-0.583
	c-0.348-0.177-0.797-0.322-0.997-0.673C6.158,12.694,6.852,11.774,7.05,11.394C7.551,10.444,6.55,12.345,7.05,11.394z M9.303,29.563
	c-0.61,0.508-0.913,0.652-1.397,0.019c-0.363-0.473-0.652-0.97-0.944-1.487c-0.139-0.245-0.501-0.75-0.155-0.983
	c0.413-0.282,0.818-0.581,1.249-0.833c0.472-0.276,1.125-0.642,1.398,0.019c0.167,0.403,0.218,0.896,0.321,1.321
	c0.091,0.371,0.122,0.761,0.179,1.139C10.004,29.09,9.533,29.344,9.303,29.563C8.853,29.938,9.303,29.563,9.303,29.563z
	 M9.378,22.392c-0.637,0.556-1.272,1.112-1.909,1.667c-0.654,0.57-1.59,0.685-1.999-0.33c-0.427-1.06-0.398-2.318-0.479-3.447
	c-0.057-0.791-0.002-1.643,0.072-2.433c0.051-0.556,0.089-1.315,0.461-1.771c0.266-0.327,0.892-0.504,1.252-0.195
	c0.684,0.589,1.368,1.179,2.053,1.768c0.82,0.707,1.698,1.433,2.367,2.289c0.21,0.271,0.087,0.409-0.114,0.66
	C10.568,21.243,9.964,21.817,9.378,22.392C9.378,22.392,10.704,21.092,9.378,22.392z M83.212,19.502
	c-2.466-1.479-4.867-2.786-7.706-3.406c-1.438-0.313-2.866-0.668-4.332-0.816c-1.719-0.175-3.439-0.411-5.162-0.516
	c-1.706-0.105-3.629,0.018-5.172-0.578c-0.378-0.144-0.848-2.228-1.291-1.23c-0.289,0.654-0.317,1.537-0.495,2.244
	c-0.384,1.536-1.231,2.638-2.747,3.282c-1.175,0.498-2.948,0.057-3.651-1.054c-0.587-0.93-0.518-2.49-0.158-3.482
	c0.175-0.482,0.408-0.944,0.624-1.41c0.158-0.34,0.577-0.995,0.382-1.36c-0.319-0.602-0.668-1.163-1.143-1.66
	c-0.448-0.467-1.448-1.513-2.189-1.363c-0.389,0.079-0.693,0.74-0.873,1.037c-0.543,0.895-1.023,1.83-1.493,2.764
	c-0.774,1.545-1.384,3.083-1.585,4.809c-0.135,1.167-0.161,2.354-0.132,3.53c0.053,2.085,0.061,4.343,1.02,6.233
	c0.44,0.871,0.873,1.746,1.325,2.611c0.448,0.857,1.338,3.207,2.664,2.566c0.889-0.429,1.891-1.565,2.267-2.482
	c0.385-0.937-0.248-1.583-0.565-2.454c-0.346-0.946-0.413-1.85-0.229-2.837c0.358-1.937,2.909-2.556,4.434-1.521
	c0.735,0.5,1.458,1.27,1.894,2.05c0.255,0.458,0.243,0.987,0.301,1.497c0.032,0.296,0.329,2.197,0.796,1.404
	c0.215-0.364,0.381-0.674,0.514-1.072c0.161-0.484,0.742-0.493,1.194-0.557c1.46-0.208,2.937-0.271,4.399-0.456
	c2.037-0.255,4.072-0.512,6.108-0.767c4.156-0.522,8.183-2.312,11.793-4.365C83.736,19.928,83.475,19.715,83.212,19.502
	L83.212,19.502z M49.129,11.394c0.204-0.387,0.611-1.51,1.192-1.409c0.576,0.102,0.95,0.505,1.377,0.867
	c0.518,0.44-0.164,2.463-0.292,3.055c-0.105,0.503-0.233,0.714-0.776,0.49c-0.391-0.161-0.767-0.391-1.144-0.583
	c-0.346-0.177-0.797-0.322-0.995-0.673C48.236,12.694,48.929,11.774,49.129,11.394C49.629,10.444,48.629,12.345,49.129,11.394z
	 M51.381,29.563c-0.611,0.508-0.912,0.652-1.398,0.019c-0.361-0.473-0.65-0.97-0.942-1.487c-0.141-0.245-0.502-0.75-0.156-0.983
	c0.413-0.282,0.819-0.581,1.248-0.833c0.473-0.276,1.126-0.642,1.398,0.019c0.168,0.403,0.22,0.896,0.322,1.321
	c0.09,0.371,0.121,0.761,0.179,1.139C52.081,29.09,51.611,29.344,51.381,29.563C50.931,29.938,51.381,29.563,51.381,29.563z
	 M51.456,22.392c-0.637,0.556-1.272,1.112-1.91,1.667c-0.653,0.57-1.589,0.685-1.998-0.33c-0.427-1.06-0.398-2.318-0.479-3.447
	c-0.057-0.791-0.002-1.643,0.071-2.433c0.052-0.556,0.09-1.315,0.461-1.771c0.267-0.327,0.892-0.504,1.253-0.195
	c0.685,0.589,1.369,1.179,2.053,1.768c0.819,0.707,1.699,1.433,2.367,2.289c0.21,0.271,0.087,0.409-0.114,0.66
	C52.646,21.243,52.042,21.817,51.456,22.392C51.456,22.392,52.781,21.092,51.456,22.392z"/>
<rect id="sliceCopy_x5F_16_1_" x="88.001" fill="none" width="88" height="40"/>
<rect id="sliceCopy_x5F_15_1_" fill="none" width="88.001" height="40"/>
</svg>
