<?xml version="1.0" encoding="utf-8"?>
<!-- Generator: Adobe Illustrator 15.1.0, SVG Export Plug-In  -->
<!DOCTYPE svg PUBLIC "-//W3C//DTD SVG 1.1//EN" "http://www.w3.org/Graphics/SVG/1.1/DTD/svg11.dtd" [
	<!ENTITY ns_flows "http://ns.adobe.com/Flows/1.0/">
]>
<svg version="1.1"
	 xmlns="http://www.w3.org/2000/svg" xmlns:xlink="http://www.w3.org/1999/xlink" xmlns:a="http://ns.adobe.com/AdobeSVGViewerExtensions/3.0/"
	 x="0px" y="0px" width="56px" height="40px" viewBox="0.224 0 56 40" enable-background="new 0.224 0 56 40" xml:space="preserve">
<defs>
</defs>
<path d="M23.356,4.978c1.391,0.152,2.791,0.081,4.188,0.081c0.695-0.1,1.398-0.084,2.1-0.081c4.27,0.045,8.543,0.046,12.814,0.015
	c0.086-0.236,0.084-0.555,0.291-0.718c0.486,0.004,0.965,0.063,1.447,0.101c0.195,0.322,0.367,0.673,0.684,0.897
	c0.236,0.152,0.227,0.486,0.408,0.669c2.205,0.002,4.408,0.023,6.611,0.083c0.363,0.788,0.348,1.763,0,2.554
	c-2.244,0.004-4.48,0.023-6.721-0.013c-0.188,0.865,0.01,1.763-0.205,2.625c-0.102,0.319-0.473,0.391-0.766,0.397
	c-2.045,0.092-4.096-0.016-6.141,0.086c0.697-0.063,1.158,0.51,1.748,0.766c0.158,0.074,0.369,0.258,0.23,0.443
	c-0.289,0.286-0.682,0.438-1.053,0.581c-0.561,0.034-1.121,0.034-1.684,0.06c1.785,5.599,3.525,11.216,5.254,16.833
	c0.336,1.121,0.738,2.217,1.006,3.357c-0.148,0.13-0.301,0.256-0.455,0.384c-0.02,0.304-0.014,0.615-0.09,0.911
	c-0.244,0.248-0.637,0.26-0.963,0.311c-0.287,0.043-0.381,0.469-0.697,0.439c-0.408-0.029-0.756,0.242-1.16,0.229
	c-0.832-0.002-1.668,0.035-2.5-0.002c-0.293-0.304-0.395-0.772-0.547-1.163c-1.537-4.949-3.133-9.879-4.691-14.82
	c-0.699-2.361-1.445-4.707-2.158-7.064c-0.377,0.31-0.631,0.745-0.773,1.206c-0.135,0.473,0.08,0.949,0.07,1.426
	c0,0.774,0.018,1.547,0.004,2.321c-0.582,0.453-1.281,0.708-1.965,0.967c-1.135,0.424-2.338,0.622-3.541,0.72
	c-0.994,0.083-1.973-0.156-2.9-0.49c-0.805-0.231-1.699-0.559-2.51-0.162c-0.787,0.294-1.248,1.066-1.465,1.844
	c-0.41,1.484-0.967,2.924-1.4,4.404c-0.35,1.123-0.809,2.22-0.98,3.395c-0.148,0.767-0.092,1.553-0.023,2.326
	c0.398,0.229,0.953,0.341,1.098,0.836c-0.301,0.423-0.73,0.729-1.156,1.022c-0.121,0.089-0.256,0.125-0.41,0.112
	c-2.432,0.013-4.867,0.048-7.299,0.061c-0.285,0.024-0.514-0.165-0.752-0.287c0.02-0.336,0.023-0.671,0.014-1.005
	c-0.857-0.104-1.963-0.331-2.271-1.26c-0.137-1.304,0.039-2.63,0.404-3.888c0.508-1.68,1.037-3.354,1.625-5.009
	c0.244-0.713,0.58-1.387,0.912-2.062c0.545-1.094,1.359-2.033,1.84-3.159c0.301-1.049,0.082-2.383-0.912-2.996
	c-0.949-0.607-2.104-0.233-3.146-0.309c-0.412-0.214-0.213-0.778-0.238-1.151c0.996-0.324,2.227-0.25,2.979-1.092
	c0.346-0.299,0.287-0.771,0.338-1.181C7.915,8.958,7.679,8.373,7.261,7.99C6.958,7.713,6.583,7.403,6.622,6.947
	C6.56,6.554,6.806,6.246,7.05,5.974C7.255,5.88,7.454,5.76,7.677,5.71c0.344-0.053,0.654,0.129,0.971,0.235
	c0.258-0.368,0.578-0.689,0.885-1.019c0.609-0.036,1.219,0.013,1.826-0.018c0.162-0.279,0.244-0.597,0.348-0.902
	c0.314-0.012,0.629-0.004,0.943,0.007c0.143,0.296,0.264,0.6,0.383,0.905C16.474,4.91,19.915,4.899,23.356,4.978z M7.79,6.364
	c-0.082,0.029-0.25,0.089-0.334,0.12C7.382,6.6,7.308,6.716,7.233,6.833c0.119,0.279,0.35,0.483,0.66,0.512
	c0.115-0.169,0.377-0.286,0.332-0.525C8.296,6.548,7.956,6.48,7.79,6.364z M26.696,12.881c-0.863-0.078-1.592,0.523-2.432,0.571
	c-0.002,0.135-0.004,0.269-0.008,0.404c-0.244,0.422-0.645,0.761-0.758,1.249c-0.166,0.798,0.023,1.709,0.643,2.269
	c0.307,0.277,0.748,0.498,0.768,0.968c-0.85,0.015-1.402-0.724-1.859-1.334c-0.547-0.812-0.074-1.789-0.127-2.673
	c0.029-0.2-0.172-0.313-0.264-0.462c0-0.098,0.006-0.295,0.008-0.393c-0.666-0.026-1.234,0.384-1.699,0.817
	c-0.531,0.518-0.939,1.24-0.871,2.004c0.07,1.087,0.949,1.979,1.961,2.284c1.66,0.378,3.461,0.238,4.986-0.546
	c0.846-0.397,1.496-1.194,1.684-2.11c0.068-0.685,0.059-1.446-0.355-2.03C28.003,13.323,27.353,13,26.696,12.881z"/>
<rect id="sliceCopy_x5F_33_1_" x="56.166" fill="none" width="52.354" height="40"/>
<rect id="sliceCopy_x5F_32_1_" fill="none" width="56.167" height="40"/>
</svg>
