<?xml version="1.0" encoding="utf-8"?>
<!-- Generator: Adobe Illustrator 15.1.0, SVG Export Plug-In  -->
<!DOCTYPE svg PUBLIC "-//W3C//DTD SVG 1.1//EN" "http://www.w3.org/Graphics/SVG/1.1/DTD/svg11.dtd" [
	<!ENTITY ns_flows "http://ns.adobe.com/Flows/1.0/">
]>
<svg version="1.1"
	 xmlns="http://www.w3.org/2000/svg" xmlns:xlink="http://www.w3.org/1999/xlink" xmlns:a="http://ns.adobe.com/AdobeSVGViewerExtensions/3.0/"
	 x="0px" y="0px" width="111px" height="40px" viewBox="0.492 0 111 40" enable-background="new 0.492 0 111 40"
	 xml:space="preserve">
<defs>
</defs>
<path d="M106.701,10.606l-0.309-0.701l-1.662-0.176V5h-1.797v0.307l-0.131,0.656c-0.117,0.117-0.248,0.396-0.395,0.833l-0.568,1.27
	l-0.744,1.664l-0.527,0.176h-6.875L92.861,9.38l-1.051-1.095L90.627,6.84h-7.838L82,6.577l-0.877-0.263l-1.051-0.352L61.328,5.788
	l-1.051,0.088c-0.234,0.058-0.395,0.131-0.482,0.219l-0.264,0.22h-24.35l-0.35-0.352L30.846,9.38l-2.451,0.744l-1.885,0.482
	l-1.094,0.263l-1.84-0.395L22.35,10.08L16,10.475l-4.293,0.351l-1.926,0.044l-2.234-0.044l-1.926,0.481
	C5.006,11.481,4.467,11.745,4,12.095l0.875,12.395l10.381-3.416l7.838-2.891l2.979-1.051l2.629-0.964l1.971-0.656l0.875-0.307
	c0.408-0.088,0.789,0.044,1.139,0.394l0.746,0.525l-0.789,1.052l-1.314,2.408l-1.27,2.409L29.4,23.395
	c0.146,1.051,0.498,1.752,1.053,2.103c0.584,0.32,1.197,0.467,1.838,0.438l1.752-0.394l0.789-0.352
	c0.203-0.876,0.584-1.736,1.139-2.583c0.525-0.905,1.094-1.724,1.709-2.453l1.619-1.708l0.832-0.656
	c0.76,0.612,1.549,0.963,2.365,1.05l2.059-0.132c0.73-0.145,1.43-0.407,2.102-0.787l1.314,0.219l0.352-0.307l0.48-0.043
	c0.963,2.919,2.176,5.43,3.635,7.532c1.461,2.16,2.875,3.956,4.248,5.387c1.576,1.665,3.242,3.095,4.994,4.292l1.971-3.197
	l1.443-2.277l0.789-1.007c-2.395-1.693-4.232-3.387-5.518-5.08c-1.256-1.664-2.176-3.183-2.76-4.556
	c-0.672-1.576-1.008-3.109-1.008-4.598h6l0.615,0.394c0.057,0.117,0.174,0.19,0.35,0.22l0.832,0.132l0.832-0.176l1.139-0.613
	l1.576-0.832h13.227l0.131-0.744h8.41l0.699,0.525l0.613-0.745h11.781l1.4,0.569l0.746-1.313h0.525l0.48,0.131l0.746-0.263
	l0.219-0.438L106.701,10.606z M45.912,17.438c-0.264,0.292-0.613,0.438-1.051,0.438h-2.365c-0.467,0-0.875-0.146-1.227-0.438
	c-0.291-0.292-0.438-0.628-0.438-1.008c0-0.467,0.146-0.861,0.438-1.182c0.352-0.292,0.76-0.424,1.227-0.395l2.365-0.044
	c0.438,0,0.787,0.146,1.051,0.438c0.262,0.32,0.395,0.715,0.395,1.182L45.912,17.438z"/>
<rect id="sliceCopy_x5F_47_1_" x="110.92" fill="none" width="105.287" height="40"/>
<rect id="sliceCopy_x5F_46_1_" fill="none" width="110.92" height="40"/>
</svg>
