<?xml version="1.0" encoding="utf-8"?>
<!-- Generator: Adobe Illustrator 15.1.0, SVG Export Plug-In  -->
<!DOCTYPE svg PUBLIC "-//W3C//DTD SVG 1.1//EN" "http://www.w3.org/Graphics/SVG/1.1/DTD/svg11.dtd" [
	<!ENTITY ns_flows "http://ns.adobe.com/Flows/1.0/">
]>
<svg version="1.1"
	 xmlns="http://www.w3.org/2000/svg" xmlns:xlink="http://www.w3.org/1999/xlink" xmlns:a="http://ns.adobe.com/AdobeSVGViewerExtensions/3.0/"
	 x="0px" y="0px" width="83px" height="40px" viewBox="0.703 0 83 40" enable-background="new 0.703 0 83 40" xml:space="preserve">
<defs>
</defs>
<path d="M36.703,5.446c0.086-0.147,0.182-0.209,0.129-0.432c1.227-0.171,1.477,1.296,2.58,1.296c2.352,0,4.701,0,7.051,0
	c7.238,0,14.479,0,21.717,0c0.572,0,3.002-0.409,3.363,0.302c0.455,0.893,0.588,2.007,1.025,2.962
	c0.447,0.983,2.074,0.364,2.906,0.364c1.01,0,2.238,0.128,3.219,0.216c0.561,0.05,0.561,0.16,0.555,0.733
	c-0.008,0.813-0.072,2.492-0.025,3.304c0.031,0.54,0.182,0.705-0.734,0.671c-1.242-0.046-2.484,0-3.727,0
	c0.559,1.262,1.119,2.524,1.678,3.786c0.068,0.157,0.043,0.447,0.051,0.621c0.031,0.87,0.129,0.947-0.746,0.969
	c-0.828,0.021-0.908,0.158-1.289-0.536c-0.432-0.784-0.861-1.567-1.293-2.352c-0.176-0.321-2.072-0.277-2.072,0.32
	c0,0.854-0.086,1.775-0.086,2.657c0,0.893,0.26,1.745,0.26,2.657c0,0.809,0.482,1.781,0.734,2.549
	c0.26,0.792,0.504,1.647,0.691,2.462c0.252,1.093,1.383,4.505,0.086,5.227c-0.676,0.377-1.695,0.483-2.461,0.562
	c-0.516,0.053-1.09,0.056-1.557,0.13c-0.326,0.051-1.166,0.329-1.447,0.216c-0.771-0.311-0.797-0.452-1.059-1.125
	c-0.182-0.465-0.426-0.89-0.584-1.359c-0.057-0.175-0.064-0.398-0.064-0.584c0-0.341-0.199-0.37-0.301-0.648
	c-0.131-0.354-0.18-0.949-0.217-1.296c-0.092-0.857-0.174-1.668-0.174-2.548c0-0.35-0.172-0.827-0.172-1.253
	c0-0.446-0.057-0.816-0.086-1.253c-0.063-0.922-0.131-1.766-0.131-2.678c0-1.006-0.279-2.171-1.383-2.376
	c-1.459-0.272-1.875,1.499-2.98,2.052c-0.5,0.25-0.813,0.686-1.297,0.927c-0.686,0.345-1.217,0.693-2.02,0.788
	c-1.742,0.203-3.34,0.404-4.633-0.831c-1.658,3.098-1.77,6.559-1.77,10.195c0,0.454,0,0.907,0,1.361c0,0.202-0.037,0.54-0.305,0.54
	c-0.203,0-0.016,0.498-0.086,0.648c-0.248,0.531-2.492,0.216-3.16,0.216c-1.449,0-2.898,0-4.346,0c-0.033,0,0.008-0.463-0.012-0.518
	c-0.025-0.079,0.051-0.283,0-0.346c-0.096-0.122-0.666-0.05-0.863-0.043c-0.744,0.026-1.291,0.184-1.512-0.604
	c-0.223-0.795-0.129-1.807-0.129-2.657c0-1.714-0.006-3.499,0.475-5.076c0.066-0.218,0.287-0.431,0.367-0.669
	c0.066-0.198,0.074-0.429,0.152-0.627c0.174-0.449,0.518-0.854,0.691-1.296c0.332-0.845,0.814-1.706,0.863-2.636
	c0.029-0.543-0.061-0.846-0.303-1.296c-0.148-0.277-0.561-1.21-0.873-1.208c-2.664,0.016-5.328,0.028-7.992,0.051
	c-1.168,0.011-3.055-0.313-4.051,0.186c-0.502,0.252-1.123-0.41-1.123-0.842c0-0.835,0-1.671,0-2.505c0-0.194,0-0.389,0-0.583
	c0-0.45-0.779-0.022-1.08-0.324c-0.086-0.085-0.277,0.019-0.389-0.151c-0.006-0.007-0.17-0.296-0.131-0.28
	c-0.148-0.061-0.455,0-0.611,0c-3.203,0-6.406,0-9.609,0c-3.098,0-6.197,0-9.295,0c-0.82,0-0.441,0.938-0.443,1.469
	c-0.006,1.124-0.252,2.355-0.355,3.486c-0.15,1.643-0.303,3.288-0.453,4.93c-0.031,0.342-0.221,0.717-0.324,1.065
	C5.305,25.232,4.807,25.026,4,25.102c0-2.806,0-5.612,0-8.417c0-1.618,0-3.233,0-4.851c0-0.308,0-0.615,0-0.923
	c0-0.264,0.525,0.06,0.561,0.065c1.598,0.244,3.541,0.216,5.293,0.216c3.748,0,7.498,0,11.246,0c2.186,0,4.377,0.043,6.563-0.001
	c0.699-0.014,1.398-0.028,2.098-0.042c0.342-0.007,0.289-0.064,0.289-0.389c0-0.447,0-0.894,0-1.339c0-0.677-0.273-2.066,0-2.679
	c0.49-1.09,6.264-0.058,6.264-0.475C36.313,5.749,36.48,5.825,36.703,5.446 M55.063,20.653c-0.678-0.679-1.123-1.545-1.209-2.505
	c-0.279,0.218-1.385,1.297-1.102,1.576c0.744,0.741,1.689,1.227,2.744,1.318C55.35,20.912,55.207,20.782,55.063,20.653
	 M59.814,18.579c-0.842-0.863-2.102-1.609-3.361-1.399c-0.941,0.157-1.203,0.022-1.219,1.052c0,0.766,0.191,1.521,0.584,2.179
	c0.248,0.414,0.314,0.669,0.826,0.582c0.48-0.084,0.945-0.253,1.365-0.502C58.813,20.017,59.27,19.307,59.814,18.579 M40.936,32.878
	C40.859,32.66,40.963,32.957,40.936,32.878"/>
<rect id="sliceCopy_x5F_35_1_" x="83.251" fill="none" width="60.272" height="40"/>
<rect id="sliceCopy_x5F_34_1_" fill="none" width="83.251" height="40"/>
</svg>
