<?xml version="1.0" encoding="utf-8"?>
<!-- Generator: Adobe Illustrator 15.1.0, SVG Export Plug-In  -->
<!DOCTYPE svg PUBLIC "-//W3C//DTD SVG 1.1//EN" "http://www.w3.org/Graphics/SVG/1.1/DTD/svg11.dtd" [
	<!ENTITY ns_flows "http://ns.adobe.com/Flows/1.0/">
]>
<svg version="1.1"
	 xmlns="http://www.w3.org/2000/svg" xmlns:xlink="http://www.w3.org/1999/xlink" xmlns:a="http://ns.adobe.com/AdobeSVGViewerExtensions/3.0/"
	 x="0px" y="0px" width="90px" height="40px" viewBox="0.986 0 90 40" enable-background="new 0.986 0 90 40" xml:space="preserve">
<defs>
</defs>
<path d="M86.65,14.6l0.258,0.772c0.074,0.566-0.305,1.072-0.258,1.585c-1.242,0.017-2.494,0.167-3.74,0.197
	c-1.057,0.025-1.992-0.326-3.039-0.326c-1.762,0-3.523,0-5.283,0c-1.238,0-2.23,0.657-3.451,0.729l-0.387-0.3h-0.17
	c-0.229,1.12-0.488,1.927-1.156,2.872c-1.018,0.339-1.834,0.3-2.91,0.3c-2.129,0-4.26,0-6.391,0c-2.125,0-4.252,0-6.377,0
	c-1.051,0-2.047-0.1-3.051,0.214c0,1.105,0.186,2.48-0.471,3.428c-0.963,0.613-2.553,0.233-3.639,0.12
	c-0.963-0.102-1.904-0.233-2.834-0.506l-0.77,0.513c-0.66,0.496-0.514,1.5-0.514,2.229c-0.52,0.212-0.768,0.908-0.986,1.372
	c0.023,0.244,0.037,0.488,0.086,0.728l0.258,0.343h-0.258c-0.652,0.831-0.898,1.491-0.898,2.571l0.17,0.257
	c-0.91,0-1.877-0.347-2.775-0.521c-0.406-0.08-0.793-0.257-1.18-0.396c-0.18-0.064-0.373-0.115-0.543-0.196
	c-0.461-0.216-0.545-0.596-0.9-0.857c0.145-1.954,0.252-4.185,1.121-5.973c0.576-1.179,1.844-1.93,1.963-3.24
	c0-0.258-0.227-0.515-0.684-0.772c-1.252-0.215-2.193-0.21-3.428,0.258c-1.209,0.435-2.236,1.234-2.939,2.311
	c-0.6,0.917-0.793,2.403-2.205,2.403c0.016,1.263,0.135,2.517,0.18,3.777c0.055,1.509,0.285,3.076,0.25,4.58
	c-2.031,1.479-4.344,1.933-6.814,1.928c-0.236-4.398-0.518-8.795-0.6-13.198c-1.578,0.27-3.123,0.545-4.672,0.942
	c-0.057,0.339-0.07,1.329-0.512,1.329c-0.684,0.162-1.475,0.462-2.143,0.515c-0.174-0.26-0.338-0.465-0.559-0.687l-0.086-0.385
	c-2.611,1.354-5.375,1.573-8.271,1.714c-0.078-0.099-0.18-0.17-0.299-0.214c-0.74-2.321-1.355-4.659-1.572-7.09
	c-0.148-1.649-0.492-4.265,0.586-5.683c0.43-0.631,0.951-1.125,1.355-1.769c0.27-0.436,0.584-0.851,0.875-1.274V8.987h8.096v0.214
	c0.502,0.712,0.973,1.315,1.588,1.929c1.047-0.484,1.799-1.07,2.699-1.8c4.197-0.034,8.361,0.639,12.557,0.171
	c0.207-0.593,0.406-1.188,0.557-1.8c0.119-0.489,0.43-1.218,0.428-1.714c0.988-0.93,3.234-1.02,4.555-0.979
	c1.781,0.056,3.563,0.114,5.342,0.171c4.707,0.15,9.41,0.301,14.115,0.451c2.225,0.071,4.449,0.119,6.672,0.177
	c2.209,0.058,4.436,0.18,6.641,0.18c0.229-0.056,0.443,0.1,0.643,0.471c1.027,1.134,0.895,3.184,0.814,4.628
	c-0.057,1.019-0.311,1.997-0.428,3c0.768-0.033,1.527,0.177,2.27,0.342c0.059,0.104,0.09,0.223,0.086,0.342c1.127,0,2.254,0,3.381,0
	c0.988,0,2.164,0.184,3.133-0.086c2.037-0.569,4.105-0.52,6.213-0.429l0.303,0.172V14.6 M65.951,8.645H38.398
	c-0.943,0-1.414,0.5-1.414,1.5v1.371c0,0.971,0.473,1.457,1.414,1.457c8.449,0,16.902,0,25.352,0c0.801,0,2.656,0.293,3.23-0.429
	c0.707-0.565,0.648-2.888,0-3.471C66.752,8.788,66.41,8.645,65.951,8.645"/>
<rect id="sliceCopy_x5F_45_1_" x="90.918" fill="none" width="94.576" height="40"/>
<rect id="sliceCopy_x5F_44_1_" fill="none" width="90.918" height="40"/>
</svg>
