<?xml version="1.0" encoding="utf-8"?>
<!-- Generator: Adobe Illustrator 15.1.0, SVG Export Plug-In  -->
<!DOCTYPE svg PUBLIC "-//W3C//DTD SVG 1.1//EN" "http://www.w3.org/Graphics/SVG/1.1/DTD/svg11.dtd" [
	<!ENTITY ns_flows "http://ns.adobe.com/Flows/1.0/">
]>
<svg version="1.1"
	 xmlns="http://www.w3.org/2000/svg" xmlns:xlink="http://www.w3.org/1999/xlink" xmlns:a="http://ns.adobe.com/AdobeSVGViewerExtensions/3.0/"
	 x="0px" y="0px" width="79px" height="40px" viewBox="0.179 0 79 40" enable-background="new 0.179 0 79 40" xml:space="preserve">
<defs>
</defs>
<path d="M16.496,23.018c0-0.12,1.014-1.983,1.082-2.145c0.25-0.584,0.646-1.114,0.982-1.677c-0.309-0.308-1.252-0.33-1.68-0.368
	c-0.594-0.054-1.141-0.193-1.758-0.287c-1.076-0.165-2.322-0.357-3.357-0.737c-0.855-0.315-1.957-0.406-2.762-0.942
	c-0.408-0.272-0.896-0.453-1.291-0.655c-0.469-0.241-0.855-0.652-1.287-0.94C6.1,15.047,5.682,14.455,5.219,14.57
	c0.057-0.348-0.553-0.652-0.736-0.9c-0.186-0.25-0.396-0.568-0.449-0.9c-0.043-0.265-0.045-0.676,0-0.942
	c0.049-0.311,0.059-0.665,0.121-0.981c0.08-0.387,0.387-0.593,0.574-0.9c0.195-0.32,0.115-0.682,0.266-0.982
	c0.129-0.258,0.078-0.683,0.143-0.941c0.084-0.326,0.26-0.873,0.697-0.86V7.122c3.945,0,7.891,0,11.836,0
	c1.395,0,2.801,0.053,4.193-0.001C22.229,7.106,22.688,7,23,7c0.166,0,0.301,0.123,0.424,0.123c0.271,0,0.547,0,0.818,0
	c9.039,0,18.078,0,27.115,0c2.584,0,5.168,0,7.75,0c0.598,0,1.197,0,1.795,0c0.119,0,0.242,0,0.363,0
	c0.172,0,0.33,0.087,0.408,0.246c0.117,0.231,0.256,0.163,0.514,0.163c0,0.563-0.039,1.099,0,1.637h-0.164V9.25
	c0.117-0.015,0.238,0.014,0.328,0.083c0.178-0.154,0.602-0.126,0.816-0.042V9.25c0.457,0.045,0.328,0.702,0.328,1.023
	c1.834,0,3.668,0,5.502,0c1.213,0,2.426,0,3.637,0c0.318,0,1.32-0.183,1.584,0.082c0.34,0.343,0.328,0.478,0.328,0.983
	c0,0.336,0.031,0.69,0,1.023c-0.031,0.279-0.057,0.778-0.469,0.778c-1.066,0-2.133,0-3.197,0c-0.607,0-1.213,0-1.818,0
	c0,0.149,0,0.301,0,0.45H69.02c-0.18,0.539-1.908,0.287-2.385,0.287c-0.766,0-1.533,0-2.303,0c-0.303,0-0.549-0.003-0.795,0.164
	c0.307,0.377-0.33,0.469-0.613,0.45v0.123H61.49c0,0.272,0,0.546,0,0.818l-0.369,0.041c-0.184,0.457-0.393,0.877-0.652,1.31
	c-0.252,0.42-0.82,0.736-1.002,1.105c-0.34,0.684-2.078,0.492-2.682,0.492c-0.67,0-1.504-0.215-1.924-0.737
	c-1.713,0.015-3.469,0.122-5.146,0.122c-0.221,0-0.467,0.21-0.645,0.328c-0.105,0.071-0.148,0.091-0.205,0.205
	c-0.047,0.093-0.324,0.098-0.428,0.204c-0.299,0.3-0.635,0.597-0.861,0.983c-0.406,0.692-0.549,1.514-1.434,1.74
	c-0.65,0.165-2.453,0.019-2.453-0.962c0-0.293-0.15-0.584-0.164-0.9c-0.018-0.321-0.008-0.609-0.084-0.9
	c-1.258,0.008-2.516,0.016-3.773,0.025c-0.693,0.003-1.387,0.009-2.082,0.013c-0.273,0.002-0.553,0.115-0.814,0.085
	c0.006,0.358-0.348,0.409-0.471,0.655c-0.152,0.308-0.381,0.526-0.633,0.778c-0.232,0.232-0.438,0.517-0.697,0.776
	c-0.143,0.146-0.338,0.184-0.43,0.368c0.01-0.016-0.318,0.272-0.346,0.288c-0.904,0.452-2.414,0.205-3.479,0.205
	c-0.813,0-1.627,0-2.439,0c-0.252,0-0.762-0.042-0.549-0.41h-0.164c-0.047,0.233-0.246,0.432-0.246,0.655
	c0,0.169-0.168,0.5-0.246,0.696c-0.092,0.234-4.371,8.874-4.439,9.003c-0.238,0.458-0.158,0.603-0.365,0.638
	c-0.248,0.041,0.025,0.341-0.166,0.528c-0.223,0.218-0.613,0.146-0.93,0.147c-1.883,0.01-3.768,0.02-5.65,0.03
	c-0.711,0.002-2.037,0.241-2.607-0.238c-0.193-0.162-0.572-0.479-0.572-0.736c0-0.371,1.439-3.585,1.701-4.122L16.496,23.018z
	 M34.318,17.885v-0.041l-3.807,0.041c0,0.342-0.059,0.767,0.121,1.064c0.363,0.605,0.732,0.615,1.467,0.615
	c0.469,0,1.334,0.048,1.584-0.451c0.115-0.234,0.471-0.982,0.715-1.023C34.387,18.02,34.357,17.947,34.318,17.885 M29.201,18.581
	v-0.083c-0.068,0.094-0.146,0.203-0.203,0.287h-0.043c-0.014,0.044-0.025,0.08-0.041,0.124h-0.039
	c-0.016,0.044-0.027,0.079-0.043,0.123c-0.16,0.113-0.258,0.327-0.287,0.532h0.941C29.5,19.241,29.146,19.002,29.201,18.581"/>
<rect id="sliceCopy_x5F_37_1_" x="78.561" fill="none" width="53.106" height="40"/>
<rect id="sliceCopy_x5F_36_1_" fill="none" width="78.561" height="40"/>
</svg>
