<?xml version="1.0" encoding="utf-8"?>
<!-- Generator: Adobe Illustrator 15.1.0, SVG Export Plug-In  -->
<!DOCTYPE svg PUBLIC "-//W3C//DTD SVG 1.1//EN" "http://www.w3.org/Graphics/SVG/1.1/DTD/svg11.dtd" [
	<!ENTITY ns_flows "http://ns.adobe.com/Flows/1.0/">
]>
<svg version="1.1"
	 xmlns="http://www.w3.org/2000/svg" xmlns:xlink="http://www.w3.org/1999/xlink" xmlns:a="http://ns.adobe.com/AdobeSVGViewerExtensions/3.0/"
	 x="0px" y="0px" width="95px" height="40px" viewBox="0.068 0 95 40" enable-background="new 0.068 0 95 40" xml:space="preserve">
<defs>
</defs>
<path d="M46.164,17.76l-0.26,0.217c-0.206,0.231-0.305,0.521-0.305,0.869l0.09,0.867l-0.178,0.261l-0.87,0.043l-0.563-0.043
	l-0.214,0.52h-1.043l-0.306,0.087l-0.261,0.261l-2.128,3.907c-0.288,0.55-0.318,1.027-0.085,1.433
	c0.171,0.318,0.405,0.521,0.692,0.608h2.953c1.071-0.117,1.894-0.391,2.476-0.825c0.402-0.348,1.824-2.519,4.254-6.512
	c0.145-0.261-0.044-0.825-0.564-1.693H46.164 M86.93,10.813l0.522,0.044l0.607-0.262h2.126l0.219,0.391l0.172,0.999l-0.172,1
	l-0.304,0.389h-1.91l-0.394-0.13l-0.39-0.044l-0.521,0.087l-0.259,0.087h-1.216l-0.175-0.13h-1.909l-0.176-0.171H82.24
	c-0.055,0.201-0.188,0.302-0.389,0.302h-1.78l-0.347-0.13l-0.133-0.086l-12.545,0.303l-0.694,0.738h-0.305l-0.214-0.261h-0.309
	l-0.175,0.261h-2.604L62.4,16.847c-0.029,0.29-0.218,0.492-0.565,0.608l0.308,0.305l0.691,0.086
	c0.466,0.087,0.683,0.274,0.652,0.564c-0.177,0.956-0.215,1.664-0.131,2.127l0.044,1.997v2.258c0.058,0.898,0.393,1.853,0.999,2.867
	c0.115,0.202-0.088,0.404-0.606,0.606l-1.649,0.305l-1.912-0.348l-1.085-0.304c-0.026-1.273,0.044-2.445,0.22-3.517l0.604-2.127
	c0.231-0.695,0.302-1.202,0.219-1.52l-0.307-1.086l-0.345-0.78c-0.089-0.233,0.13-0.492,0.651-0.782l0.779-0.392l-3.254-0.174
	l-3.777,0.174c-0.84,0.551-1.939,1.781-3.301,3.691l-2.777,4.167c-0.637,0.927-1.247,1.535-1.823,1.824l-2.476,0.435l-4.3,0.216
	l-3.037,0.044c-0.288,0-0.479-0.087-0.563-0.26L35.57,26.92c0.058-1.245,0.217-2.142,0.478-2.691l0.824-1.521
	c0.435-0.782,0.738-1.244,0.912-1.389l0.869-0.782c0.434-0.521,0.651-1.157,0.651-1.91c0-0.84-0.361-1.333-1.086-1.476l-2.432,0.086
	l-2.65,0.174c-0.867,0.057-1.359,0.203-1.474,0.434c-0.229,0.346-0.636,0.623-1.214,0.825l-0.086,1.563
	c0.143,1.592,0.589,3.69,1.344,6.295c1.155,4.111,2.212,6.787,3.17,8.032c0.406,0.521,0.36,0.911-0.13,1.171l-3.171,1.13
	l-3.214,1.128c-0.347,0.087-0.492-0.434-0.436-1.564L26.932,34.3c-0.724-1.91-1.36-3.98-1.91-6.208
	c-0.524-2.229-0.898-4.371-1.127-6.426l-0.177-2.388l-1.3-0.043l-1.955,1.563c-0.088,0.087-0.233,0-0.436-0.261
	c-0.203-0.231-0.332-0.333-0.391-0.303c-0.694,0.259-1.736,0.854-3.125,1.779c-1.595,1.129-2.474,1.997-2.649,2.605l-0.304,1.042
	l0.479,0.521l0.475,0.738c0,0.376-0.114,0.667-0.345,0.868c-0.202,0.203-0.494,0.304-0.87,0.304H8.219
	c-0.319,0-0.635-0.13-0.956-0.391c-0.376-0.347-0.663-0.811-0.868-1.389l-1.344-5.601c-0.667-3.126-1.014-5.036-1.042-5.731
	c-0.03-0.723,0.014-1.245,0.13-1.563l0.564-0.826l1.388-1.128c0.696-0.463,1.23-0.693,1.608-0.693l27.307-0.565V9.902L35.7,9.381
	l1.042-0.695l1.215-0.218l1.648,0.043V6.299h-0.648c0.026,0.317-0.19,0.476-0.648,0.476l-0.524-0.217l-0.086-0.259h-1.521
	l-0.217,0.216h-0.52c-0.263-0.377-0.393-1.014-0.393-1.911c0-0.869,0.115-1.346,0.347-1.434h0.392l0.261,0.175l1.477-0.044
	l0.086-0.304c0.088-0.172,0.29-0.259,0.608-0.259c0.376,0,0.564,0.172,0.564,0.52l0.438-0.044V2.476l0.822-0.129l0.909,0.086v0.522
	l3.432-0.479L48.508,2h1.346l0.608,0.476h0.606v-0.26h0.479V2.39h0.866v4.255l-0.866,0.043v0.173H51.11V6.601h-2.167l0.348,0.521
	h0.563c0.406,0.059,0.623,0.159,0.65,0.304l0.178,0.825h1.43V8.078h0.649v0.173h1.477V8.078h0.651v0.173h1.477V8.078h0.609v0.173
	h1.518V8.078h0.609v0.173h1.521V8.078h0.606v0.173H62.4l3.082,1.52v1l0.78,0.433h13.462l0.216-0.13l0.349-0.215h1.605l0.391,0.346
	h0.782l0.389-0.217l1.695,0.086l0.042-0.173c0.088-0.117,0.203-0.174,0.348-0.174h1.087L86.93,10.813"/>
<rect id="sliceCopy_x5F_46_1_" x="94.576" fill="none" width="110.92" height="40"/>
<rect id="sliceCopy_x5F_45_1_" fill="none" width="94.576" height="40"/>
</svg>
