<?xml version="1.0" encoding="utf-8"?>
<!-- Generator: Adobe Illustrator 15.1.0, SVG Export Plug-In  -->
<!DOCTYPE svg PUBLIC "-//W3C//DTD SVG 1.1//EN" "http://www.w3.org/Graphics/SVG/1.1/DTD/svg11.dtd" [
	<!ENTITY ns_flows "http://ns.adobe.com/Flows/1.0/">
]>
<svg version="1.1"
	 xmlns="http://www.w3.org/2000/svg" xmlns:xlink="http://www.w3.org/1999/xlink" xmlns:a="http://ns.adobe.com/AdobeSVGViewerExtensions/3.0/"
	 x="0px" y="0px" width="108px" height="40px" viewBox="0.438 0 108 40" enable-background="new 0.438 0 108 40"
	 xml:space="preserve">
<defs>
</defs>
<path d="M102.268,14.504c0.492-0.026,0.979-0.086,1.449-0.219c0.715-0.2,0.596-0.063,0.621-0.643h-0.002v-1.153
	c0-0.376-0.041-0.611-0.428-0.729c-0.506-0.154-0.73-0.242-1.082-0.65c-0.617-0.72-1.426-1.234-2.246-1.699
	c-0.303-0.172-0.664-0.375-1.025-0.375c-0.451,0.002-0.457,0.476-0.533,0.811c-0.125,0.542-0.313,1.073-0.691,1.493
	c-0.291,0.324-0.637,0.296-1.047,0.262c-2.781-0.232-5.66-0.031-8.451-0.031c-2.904,0-5.805,0-8.707,0c-4.68,0-9.359,0-14.039,0
	c-2.332,0-4.664,0-6.996,0c-2.176,0-4.396-0.126-6.568,0.026c-0.84,0.058-0.85-0.318-0.959-1.01
	c-0.127-0.801-1.367-0.007-1.836-0.324c-0.182-0.123,0.182-0.695-0.119-0.728c-0.18-0.019-0.697-0.06-0.674,0.208
	c0.039,0.424,0.088,0.522-0.371,0.522c-0.494,0-0.99,0-1.486,0c-2.285,0-4.572,0-6.857,0c-1.176,0-2.352,0-3.525,0
	c-0.295,0-0.385-0.045-0.385,0.293c0,0.268,0.051,0.534,0.051,0.801c-0.541-0.269-0.209-0.701-0.529-1.156
	c-0.287-0.409-0.957-0.306-1.385-0.292c-0.59,0.017-1.271,0.036-1.789-0.292c-0.145-0.091-0.172-0.476-0.252-0.471
	c-0.174,0.014-0.262-0.13-0.443-0.14c-0.469-0.024-0.883-0.026-1.162,0.376c-0.232,0.335-0.744,1.413-1.139,1.479
	c-0.102,0.016,0.016,1.029-0.559,0.788c-0.301-0.126-0.693-0.653-0.639-0.997c-2.301,0.196-4.6,0.422-6.9,0.635
	c-2.279,0.209-4.561,0.419-6.84,0.629c-1.172,0.108-2.342,0.216-3.514,0.323c-0.424,0.038-0.738,0.042-1.061,0.338
	c-0.307,0.284-0.59,0.401-1.004,0.478c-1.078,0.202-2.189,0.299-3.277,0.458C5.412,13.583,3.988,13.48,4,14.106
	c0.037,2.264,0.072,4.526,0.109,6.791c0.02,1.212,0.037,2.425,0.059,3.637c0.008,0.508-0.24,2.451,0.246,2.641
	c0.848,0.334,1.621-0.224,2.404-0.557c0.773-0.326,1.924-0.666,2.508-1.308c0.326-0.359,0.482-0.94,0.672-1.376
	c0.209-0.484,0.426-0.966,0.703-1.415c0.453-0.73,0.934-1.157,1.781-1.345c2.182-0.485,4.332-1.077,6.533-1.493
	c-0.129,0.208-0.117,0.47-0.141,0.705c0.543,0,1.084,0.038,1.623,0.111c0.322,0.044,1.244,0.049,1.414,0.365
	c0.406,0.756,0.092,1.535-0.252,2.228c-0.549,1.105-1.164,2.175-1.764,3.253c-0.385,0.694-1.264,1.667-1.236,2.495
	c0.025,0.782,1.043,1.039,1.646,1.208c0.84,0.236,1.666,0.391,2.521,0.561c1.053,0.208,2.131,0.574,3.213,0.285
	c0.975-0.262-0.104-0.974-0.305-1.415c-0.441-0.961,0.027-1.692,0.457-2.538c0.488-0.957,0.955-1.926,1.398-2.907
	c0.273-0.61,0.525-1.906,1.268-2.113c0.801-0.224,1.764-0.183,2.588-0.229c0.561-0.032,1.127-0.019,1.688-0.059
	c0.443-0.032,0.861-0.226,1.309-0.226c0.721,0,1.299-0.686,1.713-1.192c0.508-0.62,0.846-1.187,1.688-1.346
	c0.75-0.142,1.57-0.082,2.322,0.019c0.615,0.083,1.219,0.229,1.818,0.385c0.383,0.1,0.889,0.403,1.283,0.355
	c0.758-0.091,1.275-0.821,2.061-0.938c1.074-0.159,2.252-0.021,3.32,0.107c0.912,0.109,1.916-0.172,2.787,0.142
	c0.967,0.348,2.205,0.235,3.221,0.223c1.102-0.014,2.203-0.011,3.305-0.014c2.336-0.007,4.67-0.023,7.004-0.057
	c2.309-0.034,4.613,0.008,6.92,0.02c1.172,0.007,2.318-0.131,3.479-0.263c0.496-0.055,1.029-0.062,1.506-0.222
	c0.465-0.156,0.846-0.286,1.344-0.286c4.639,0,9.275,0,13.914,0c2.336,0,4.672,0,7.008,0c1.215,0,2.432,0,3.646,0
	c0.668,0,1.111-0.743,1.215-1.324c0.127-0.705-0.178-1.663-0.891-1.941c-0.547-0.215-1.664,0.384-1.941-0.299
	C100.996,14.364,102.045,14.516,102.268,14.504z M34.068,20.138c-0.488,0.698-1.904,0.399-2.607,0.361
	c-0.523-0.029-1.115,0.083-1.521-0.335c-0.285-0.292-0.373-0.738-0.287-1.13c0.281-1.27,2.008-0.936,2.947-0.883
	c0.467,0.026,1.123-0.09,1.461,0.327C34.467,18.979,34.256,19.603,34.068,20.138z M98.859,15.117c-4.107,0-8.096-0.093-12.203-0.02
	c-2.043,0.038-4.088,0.044-6.133,0.028c-0.836-0.006-1.676-0.053-2.51-0.028c-0.516,0.016-1.023-0.088-0.506-0.684
	c0.23-0.264,0.859-0.128,1.172-0.128c0.451,0,0.902,0,1.354,0c1.025,0,2.053,0,3.078,0c2.053,0,4.105,0,6.158,0
	c2.014,0,4.029,0,6.041,0c0.521,0,1.041,0,1.563,0c0.121,0,0.461-0.073,0.539,0.057c0.027,0.073,0.068,0.135,0.121,0.191
	c0.234,0.106,0.625-0.016,0.883,0.008c0.24,0.023,0.289,0.159,0.455,0.323L98.859,15.117z M32.977,9.632
	c0.066,0.018,0.123,0.041,0.176,0.07C33.008,9.746,33.018,9.655,32.977,9.632z M30.402,9.702c-0.035,0-0.07,0-0.105,0
	C30.369,9.646,30.379,9.696,30.402,9.702z"/>
<rect id="sliceCopy_x5F_56_1_" x="108.339" fill="none" width="94.488" height="40"/>
<rect id="sliceCopy_x5F_55_1_" fill="none" width="108.338" height="40"/>
</svg>
